<?xml version="1.0" encoding="utf-8"?>
<!-- Generator: Adobe Illustrator 17.0.1, SVG Export Plug-In . SVG Version: 6.00 Build 0)  -->
<!DOCTYPE svg PUBLIC "-//W3C//DTD SVG 1.1//EN" "http://www.w3.org/Graphics/SVG/1.1/DTD/svg11.dtd">
<svg version="1.1" id="Layer_1" xmlns="http://www.w3.org/2000/svg" xmlns:xlink="http://www.w3.org/1999/xlink" x="0px" y="0px"
	 width="229.333px" height="160.667px" viewBox="0 0 229.333 160.667" enable-background="new 0 0 229.333 160.667"
	 xml:space="preserve">
<path fill="#FFFFFF" d="M80.025,59.449V58.72c0-0.833,0.151-1.525,0.456-2.074c0.303-0.554,0.831-1.126,1.587-1.714
	c0.899-0.712,1.48-1.265,1.741-1.657c0.261-0.393,0.391-0.861,0.391-1.408c0-0.634-0.21-1.122-0.633-1.461
	c-0.427-0.342-1.035-0.513-1.826-0.513c-0.718,0-1.387,0.102-1.999,0.306c-0.613,0.207-1.209,0.451-1.79,0.739l-0.957-1.996
	c1.538-0.854,3.181-1.283,4.937-1.283c1.479,0,2.656,0.363,3.527,1.088c0.872,0.73,1.304,1.728,1.304,3.008
	c0,0.566-0.083,1.071-0.249,1.514c-0.163,0.442-0.417,0.865-0.752,1.264c-0.337,0.402-0.92,0.925-1.741,1.566
	c-0.705,0.551-1.176,1.011-1.413,1.373c-0.239,0.363-0.359,0.852-0.359,1.464v0.513H80.025z M79.561,63.068
	c0-1.145,0.557-1.717,1.665-1.717c0.547,0,0.964,0.151,1.248,0.447c0.29,0.302,0.432,0.723,0.432,1.27
	c0,0.535-0.144,0.957-0.437,1.273c-0.291,0.313-0.703,0.471-1.243,0.471c-0.535,0-0.947-0.153-1.235-0.462
	C79.705,64.046,79.561,63.621,79.561,63.068"/>
<rect x="90.259" y="49.573" opacity="0.8" fill="#FFFFFF" width="58.567" height="5.967"/>
<rect x="90.259" y="58.42" opacity="0.8" fill="#FFFFFF" width="58.567" height="1.029"/>
<rect x="90.259" y="62.123" opacity="0.8" fill="#FFFFFF" width="58.567" height="1.028"/>
<path opacity="0.75" fill="#FFFFFF" d="M173.621,66.456h-68.708c-1.292,0-2.337,1.044-2.337,2.334v42.849
	c0,1.288,1.045,2.333,2.337,2.333h68.708c1.287,0,2.327-1.045,2.327-2.333V68.79C175.948,67.5,174.908,66.456,173.621,66.456z
	 M171.133,79.415c0-0.457,0.368-0.823,0.82-0.823c0.459,0,0.825,0.366,0.825,0.823v4.798c0,0.455-0.366,0.824-0.825,0.824
	c-0.452,0-0.82-0.369-0.82-0.824V79.415z M168.33,108.5h-60.105V71.93h60.105V108.5z M172.778,101.014
	c0,0.452-0.366,0.822-0.825,0.822c-0.452,0-0.82-0.37-0.82-0.822v-4.802c0-0.454,0.368-0.824,0.82-0.824
	c0.459,0,0.825,0.37,0.825,0.824V101.014z M172.092,92.171c-1.13,0-2.056-0.923-2.056-2.058c0-1.138,0.926-2.057,2.056-2.057
	c1.14,0,2.058,0.919,2.058,2.057C174.15,91.248,173.232,92.171,172.092,92.171z"/>
<path opacity="0.5" fill="#FFFFFF" d="M137.625,72.776c-8.914,0-16.167,7.254-16.167,16.166c0,8.916,7.253,16.171,16.167,16.171
	c8.916,0,16.169-7.255,16.169-16.171C153.794,80.03,146.541,72.776,137.625,72.776 M144.993,94.745
	c0.505-1.621,0.81-3.307,0.901-5.033h6.325c-0.158,3.056-1.254,5.866-3.015,8.146C147.967,96.585,146.543,95.538,144.993,94.745
	 M126.045,97.858c-1.758-2.28-2.854-5.09-3.015-8.146h6.616c0.039,1.7,0.288,3.368,0.733,4.972
	C128.782,95.485,127.317,96.552,126.045,97.858 M130.362,83.808c-0.389,1.413-0.625,2.877-0.701,4.369h-6.631
	c0.154-2.906,1.15-5.585,2.759-7.801C127.112,81.8,128.662,82.953,130.362,83.808 M138.543,85.507
	c1.853-0.101,3.645-0.524,5.32-1.223c0.302,1.265,0.476,2.567,0.507,3.893h-5.827V85.507z M138.543,83.968v-8.911
	c2.268,2.159,3.94,4.817,4.897,7.738C141.904,83.46,140.252,83.864,138.543,83.968 M137.009,75.593v8.389
	c-1.66-0.068-3.271-0.416-4.78-1.014C133.206,80.191,134.834,77.664,137.009,75.593 M137.009,85.518v2.659h-5.815
	c0.071-1.273,0.274-2.522,0.589-3.736C133.435,85.082,135.198,85.447,137.009,85.518 M131.18,89.712h5.829v3.273
	c-1.806,0.067-3.559,0.433-5.207,1.068C131.428,92.648,131.219,91.196,131.18,89.712 M137.009,94.518v8.315
	c-2.155-2.055-3.776-4.56-4.755-7.31C133.758,94.928,135.362,94.587,137.009,94.518 M138.543,102.294v-7.761
	c1.574,0.098,3.105,0.444,4.541,1.022C142.09,98.083,140.552,100.384,138.543,102.294 M138.543,92.995v-3.283h5.815
	c-0.083,1.503-0.349,2.975-0.776,4.391C141.99,93.471,140.291,93.091,138.543,92.995 M145.908,88.177
	c-0.039-1.557-0.256-3.086-0.632-4.564c1.548-0.832,2.964-1.92,4.187-3.237c1.609,2.216,2.605,4.895,2.756,7.801H145.908z
	 M148.487,79.172c-1.067,1.178-2.303,2.164-3.655,2.929c-0.955-2.804-2.52-5.382-4.61-7.545
	C143.479,75.142,146.355,76.808,148.487,79.172 M136.033,74.402c-2.358,2.223-4.129,4.937-5.203,7.925
	c-1.513-0.793-2.89-1.857-4.062-3.155C129.112,76.568,132.366,74.8,136.033,74.402 M127.049,99.031
	c1.118-1.173,2.402-2.136,3.808-2.868c0.972,2.683,2.505,5.145,4.522,7.222C132.124,102.883,129.224,101.309,127.049,99.031
	 M139.573,103.433c2.165-2.049,3.828-4.515,4.905-7.229c1.372,0.729,2.629,1.677,3.725,2.827
	C145.96,101.381,142.947,102.983,139.573,103.433"/>
<path fill="#FFFFFF" d="M170.881,121.529c0.72,1.1,0.413,2.571-0.689,3.291l-3.398,2.222c-1.101,0.715-2.573,0.407-3.291-0.693
	l-11.536-17.655c-0.72-1.101-0.412-2.573,0.687-3.29l3.4-2.225c1.097-0.716,2.571-0.407,3.289,0.689L170.881,121.529z"/>
<path fill="#FFFFFF" d="M147.149,109.406c-5.64,0-10.869-2.851-13.989-7.626c-5.027-7.694-2.969-17.969,4.584-22.905
	c2.632-1.72,5.687-2.629,8.836-2.629c5.637,0,10.864,2.85,13.982,7.624c5.027,7.695,2.971,17.97-4.583,22.906
	C153.35,108.497,150.296,109.406,147.149,109.406 M146.58,80.459c-2.327,0-4.585,0.67-6.531,1.941
	c-5.61,3.666-7.119,11.327-3.364,17.074c2.339,3.581,6.25,5.719,10.464,5.719c2.324,0,4.582-0.67,6.528-1.941
	c5.608-3.668,7.122-11.327,3.362-17.076C154.7,82.594,150.789,80.459,146.58,80.459"/>
<polygon fill="none" points="69.78,43.636 69.78,96.942 101.364,96.942 101.364,87.03 79.59,87.03 79.59,83.291 101.364,83.291 
	101.364,79.039 79.59,79.039 79.59,78.009 101.364,78.009 101.364,75.334 79.59,75.334 79.59,74.307 101.364,74.307 101.364,71.632 
	79.59,71.632 79.59,70.603 101.364,70.603 101.364,65.529 156.726,65.529 156.726,43.636 "/>
<path fill="#FFFFFF" d="M69.78,96.942V43.636h86.946v21.894h6.426V42.005c0-1.517-1.235-2.75-2.756-2.75h-94.29
	c-1.516,0-2.749,1.233-2.749,2.75v56.564c0,1.52,1.233,2.753,2.749,2.753h35.258v-4.38H69.78z"/>
<path fill="#FFFFFF" d="M55.781,103.427c-3.542,0-3.516,1.018-2.751,1.9l3.171,3.785c2.341,2.189,4.402,1.898,5.923,1.898h39.24
	v-7.583H55.781z"/>
<rect x="79.59" y="83.291" opacity="0.8" fill="#FFFFFF" width="21.774" height="3.739"/>
<rect x="79.59" y="70.603" opacity="0.8" fill="#FFFFFF" width="21.774" height="1.029"/>
<rect x="79.59" y="74.307" opacity="0.8" fill="#FFFFFF" width="21.774" height="1.027"/>
<rect x="79.59" y="78.009" opacity="0.8" fill="#FFFFFF" width="21.774" height="1.03"/>
</svg>
