<?xml version="1.0" encoding="utf-8"?>
<!-- Generator: Adobe Illustrator 21.1.0, SVG Export Plug-In . SVG Version: 6.00 Build 0)  -->
<svg version="1.1" id="Layer_1" xmlns="http://www.w3.org/2000/svg" xmlns:xlink="http://www.w3.org/1999/xlink" x="0px" y="0px"
	 viewBox="0 0 105 105" style="enable-background:new 0 0 105 105;" xml:space="preserve">
<style type="text/css">
	.st0{fill:#FFFFFF;}
	.st1{opacity:0.8;fill:#FFFFFF;enable-background:new    ;}
	.st2{opacity:0.75;fill:#FFFFFF;enable-background:new    ;}
	.st3{opacity:0.5;fill:#FFFFFF;enable-background:new    ;}
	.st4{fill:none;}
</style>
<g>
	<path class="st0" d="M24.7,33.1v-0.6c0-0.7,0.1-1.2,0.4-1.7c0.2-0.4,0.7-0.9,1.3-1.4c0.7-0.6,1.2-1,1.4-1.3
		c0.2-0.3,0.3-0.7,0.3-1.1c0-0.5-0.2-0.9-0.5-1.2c-0.3-0.3-0.8-0.4-1.5-0.4c-0.6,0-1.1,0.1-1.6,0.2c-0.5,0.2-1,0.4-1.5,0.6l-0.8-1.6
		c1.2-0.7,2.6-1,4-1c1.2,0,2.2,0.3,2.9,0.9c0.7,0.6,1.1,1.4,1.1,2.4c0,0.5-0.1,0.9-0.2,1.2c-0.1,0.4-0.3,0.7-0.6,1
		c-0.3,0.3-0.7,0.8-1.4,1.3c-0.6,0.4-1,0.8-1.1,1.1c-0.2,0.3-0.3,0.7-0.3,1.2v0.4H24.7z M24.3,36.1c0-0.9,0.5-1.4,1.4-1.4
		c0.4,0,0.8,0.1,1,0.4c0.2,0.2,0.4,0.6,0.4,1c0,0.4-0.1,0.8-0.4,1c-0.2,0.3-0.6,0.4-1,0.4c-0.4,0-0.8-0.1-1-0.4
		C24.5,36.9,24.3,36.5,24.3,36.1"/>
	<rect x="33" y="25.1" class="st1" width="47.5" height="4.8"/>
	<rect x="33" y="32.3" class="st1" width="47.5" height="0.8"/>
	<rect x="33" y="35.3" class="st1" width="47.5" height="0.8"/>
	<path class="st2" d="M100.6,38.8H44.9c-1,0-1.9,0.8-1.9,1.9v34.7c0,1,0.8,1.9,1.9,1.9h55.7c1,0,1.9-0.8,1.9-1.9V40.7
		C102.5,39.7,101.7,38.8,100.6,38.8z M98.6,49.3c0-0.4,0.3-0.7,0.7-0.7c0.4,0,0.7,0.3,0.7,0.7v3.9c0,0.4-0.3,0.7-0.7,0.7
		c-0.4,0-0.7-0.3-0.7-0.7V49.3z M96.3,72.9H47.6V43.2h48.7V72.9z M99.9,66.8c0,0.4-0.3,0.7-0.7,0.7c-0.4,0-0.7-0.3-0.7-0.7v-3.9
		c0-0.4,0.3-0.7,0.7-0.7c0.4,0,0.7,0.3,0.7,0.7V66.8z M99.4,59.7c-0.9,0-1.7-0.7-1.7-1.7c0-0.9,0.8-1.7,1.7-1.7
		c0.9,0,1.7,0.7,1.7,1.7C101,58.9,100.3,59.7,99.4,59.7z"/>
	<path class="st3" d="M71.4,43.9c-7.2,0-13.1,5.9-13.1,13.1c0,7.2,5.9,13.1,13.1,13.1c7.2,0,13.1-5.9,13.1-13.1
		C84.5,49.8,78.7,43.9,71.4,43.9 M77.4,61.7c0.4-1.3,0.7-2.7,0.7-4.1h5.1c-0.1,2.5-1,4.8-2.4,6.6C79.8,63.2,78.7,62.4,77.4,61.7
		 M62,64.3c-1.4-1.8-2.3-4.1-2.4-6.6H65c0,1.4,0.2,2.7,0.6,4C64.3,62.3,63.1,63.2,62,64.3 M65.5,52.9C65.2,54,65,55.2,65,56.4h-5.4
		c0.1-2.4,0.9-4.5,2.2-6.3C62.9,51.3,64.2,52.2,65.5,52.9 M72.2,54.3c1.5-0.1,3-0.4,4.3-1c0.2,1,0.4,2.1,0.4,3.2h-4.7L72.2,54.3
		L72.2,54.3z M72.2,53v-7.2c1.8,1.8,3.2,3.9,4,6.3C74.9,52.6,73.6,52.9,72.2,53 M70.9,46.2V53c-1.3-0.1-2.7-0.3-3.9-0.8
		C67.8,49.9,69.2,47.9,70.9,46.2 M70.9,54.3v2.2h-4.7c0.1-1,0.2-2,0.5-3C68,53.9,69.5,54.2,70.9,54.3 M66.2,57.7h4.7v2.7
		c-1.5,0.1-2.9,0.4-4.2,0.9C66.4,60,66.2,58.9,66.2,57.7 M70.9,61.6v6.7c-1.7-1.7-3.1-3.7-3.9-5.9C68.3,61.9,69.6,61.6,70.9,61.6
		 M72.2,67.9v-6.3c1.3,0.1,2.5,0.4,3.7,0.8C75,64.5,73.8,66.3,72.2,67.9 M72.2,60.3v-2.7h4.7c-0.1,1.2-0.3,2.4-0.6,3.6
		C75,60.7,73.6,60.4,72.2,60.3 M78.1,56.4c0-1.3-0.2-2.5-0.5-3.7c1.3-0.7,2.4-1.6,3.4-2.6c1.3,1.8,2.1,4,2.2,6.3H78.1z M80.2,49.1
		c-0.9,1-1.9,1.8-3,2.4c-0.8-2.3-2-4.4-3.7-6.1C76.2,45.9,78.5,47.2,80.2,49.1 M70.1,45.3c-1.9,1.8-3.3,4-4.2,6.4
		c-1.2-0.6-2.3-1.5-3.3-2.6C64.5,47,67.2,45.6,70.1,45.3 M62.9,65.2c0.9-1,1.9-1.7,3.1-2.3c0.8,2.2,2,4.2,3.7,5.9
		C67,68.3,64.6,67.1,62.9,65.2 M73,68.8c1.8-1.7,3.1-3.7,4-5.9c1.1,0.6,2.1,1.4,3,2.3C78.2,67.1,75.7,68.4,73,68.8"/>
	<path class="st0" d="M98.4,83.5c0.6,0.9,0.3,2.1-0.6,2.7l-2.8,1.8c-0.9,0.6-2.1,0.3-2.7-0.6l-9.4-14.3c-0.6-0.9-0.3-2.1,0.6-2.7
		l2.8-1.8c0.9-0.6,2.1-0.3,2.7,0.6L98.4,83.5z"/>
	<path class="st0" d="M79.1,73.6c-4.6,0-8.8-2.3-11.3-6.2c-4.1-6.2-2.4-14.6,3.7-18.6c2.1-1.4,4.6-2.1,7.2-2.1
		c4.6,0,8.8,2.3,11.3,6.2c4.1,6.2,2.4,14.6-3.7,18.6C84.2,72.9,81.7,73.6,79.1,73.6 M78.7,50.2c-1.9,0-3.7,0.5-5.3,1.6
		c-4.5,3-5.8,9.2-2.7,13.8c1.9,2.9,5.1,4.6,8.5,4.6c1.9,0,3.7-0.5,5.3-1.6c4.5-3,5.8-9.2,2.7-13.8C85.3,51.9,82.1,50.2,78.7,50.2"/>
	<polygon class="st4" points="16.4,20.3 16.4,63.5 42,63.5 42,55.5 24.4,55.5 24.4,52.5 42,52.5 42,49 24.4,49 24.4,48.2 42,48.2 
		42,46 24.4,46 24.4,45.2 42,45.2 42,43 24.4,43 24.4,42.2 42,42.2 42,38.1 86.9,38.1 86.9,20.3 	"/>
	<path class="st0" d="M16.4,63.5V20.3h70.5v17.8h5.2V19c0-1.2-1-2.2-2.2-2.2H13.4c-1.2,0-2.2,1-2.2,2.2v45.9c0,1.2,1,2.2,2.2,2.2H42
		v-3.6H16.4z"/>
	<path class="st0" d="M5.1,68.8c-2.9,0-2.9,0.8-2.2,1.5l2.6,3.1c1.9,1.8,3.6,1.5,4.8,1.5H42v-6.1C42,68.8,5.1,68.8,5.1,68.8z"/>
	<rect x="24.4" y="52.5" class="st1" width="17.7" height="3"/>
	<rect x="24.4" y="42.2" class="st1" width="17.7" height="0.8"/>
	<rect x="24.4" y="45.2" class="st1" width="17.7" height="0.8"/>
	<rect x="24.4" y="48.2" class="st1" width="17.7" height="0.8"/>
</g>
</svg>
