<?xml version="1.0" encoding="utf-8"?>
<!-- Generator: Adobe Illustrator 21.1.0, SVG Export Plug-In . SVG Version: 6.00 Build 0)  -->
<svg version="1.1" id="Layer_1" xmlns="http://www.w3.org/2000/svg" xmlns:xlink="http://www.w3.org/1999/xlink" x="0px" y="0px"
	 viewBox="0 0 200 200" style="enable-background:new 0 0 200 200;" xml:space="preserve">
<style type="text/css">
	.st0{fill:#2886C3;}
</style>
<g>
	<g>
		<g>
			<path class="st0" d="M102.2,24.2c-41.4,0-75,33.6-75,75s33.6,75,75,75s75-33.6,75-75S143.6,24.2,102.2,24.2z M101.8,126.3
				L101.8,126.3L101.8,126.3c0,1.7-1,3.2-2.5,4c-0.6,0.3-1.3,0.4-2,0.4c-1,0-2-0.3-2.8-0.9l-14.7-11.4c-0.7,0.2-1.4,0.3-2.1,0.3H63
				c-4.8,0-8.7-3.9-8.7-8.7V84.6c0-4.8,3.9-8.7,8.7-8.7h14.7c0.9,0,1.7,0.1,2.5,0.4L94.5,65c1.6-1.3,4-1.3,5.7,0.1
				c1,0.9,1.6,2.2,1.6,3.5V126.3z M116.5,107.9l-4.9-4.9c1.1-1.5,1.8-3.4,1.8-5.5c0-2.3-0.8-4.3-2.2-6l4.9-4.9
				c2.6,2.9,4.2,6.7,4.2,10.8C120.3,101.5,118.8,105.1,116.5,107.9z M122.8,114.2c4-4.5,6.4-10.3,6.4-16.7c0-6.6-2.6-12.7-6.8-17.2
				l4.9-4.9c5.5,5.7,8.8,13.5,8.8,22c0,8.3-3.2,15.9-8.4,21.6L122.8,114.2z M139.4,130.6l-4.9-4.9c6.9-7.4,11.1-17.4,11.1-28.3
				c0-11.1-4.4-21.2-11.5-28.7l4.9-4.9c8.4,8.7,13.5,20.5,13.5,33.6C152.5,110.3,147.5,122,139.4,130.6z"/>
		</g>
	</g>
</g>
</svg>
