<?xml version="1.0" encoding="utf-8"?>
<!-- Generator: Adobe Illustrator 21.1.0, SVG Export Plug-In . SVG Version: 6.00 Build 0)  -->
<svg version="1.1" id="Layer_1" xmlns="http://www.w3.org/2000/svg" xmlns:xlink="http://www.w3.org/1999/xlink" x="0px" y="0px"
	 viewBox="0 0 105 105" style="enable-background:new 0 0 105 105;" xml:space="preserve">
<style type="text/css">
	.st0{opacity:0.5;fill:#FFFFFF;enable-background:new    ;}
	.st1{fill:#FFFFFF;}
	.st2{opacity:0.9;}
	.st3{opacity:0.9;fill:#FFFFFF;enable-background:new    ;}
</style>
<g>
	<path class="st0" d="M44.8,17.1h-3.6c-0.3-1-0.7-2-1.2-2.9l2.5-2.5c0.6-0.6,0.6-1.4,0-2L39,6.1c-0.5-0.5-1.4-0.5-2,0l-2.5,2.5
		c-0.9-0.5-1.9-0.9-2.9-1.2V3.9c0-0.8-0.6-1.4-1.4-1.4h-5c-0.8,0-1.4,0.6-1.4,1.4v3.6c-1,0.3-2,0.7-2.9,1.2l-2.5-2.5
		c-0.6-0.5-1.4-0.5-2,0l-3.6,3.6c-0.6,0.5-0.6,1.4,0,2l2.5,2.5c-0.5,0.9-0.9,1.9-1.2,2.9h-3.6c-0.8,0-1.4,0.6-1.4,1.4v5
		c0,0.8,0.6,1.4,1.4,1.4h3.6c0.3,1,0.7,2,1.2,2.9l-2.5,2.5c-0.6,0.5-0.6,1.4,0,2l3.6,3.6c0.6,0.5,1.4,0.5,2,0l2.5-2.5
		c0.9,0.5,1.9,0.9,2.9,1.2v3.6c0,0.8,0.6,1.4,1.4,1.4h5c0.8,0,1.4-0.6,1.4-1.4v-3.6c1-0.3,2-0.7,2.9-1.2l2.5,2.5
		c0.6,0.5,1.4,0.5,2,0l3.6-3.6c0.6-0.6,0.6-1.4,0-2l-2.5-2.5c0.5-0.9,0.9-1.9,1.2-2.9h3.6c0.8,0,1.4-0.6,1.4-1.4v-5
		C46.2,17.7,45.6,17.1,44.8,17.1 M27.7,29.5c-4.7,0-8.5-3.8-8.5-8.5c0-4.7,3.8-8.5,8.5-8.5c4.7,0,8.5,3.8,8.5,8.5
		C36.2,25.7,32.4,29.5,27.7,29.5"/>
	<path class="st1" d="M69.8,32.7c-0.3-0.1-0.7-0.1-1-0.1c-1.8,0.1-3.2,1.6-3.1,3.4c0.1,1.4,1,2.6,2.4,3c0.3,0.1,0.7,0.1,1,0.1
		c0.9,0,1.7-0.4,2.3-1c0.6-0.6,0.9-1.5,0.9-2.3C72.1,34.2,71.2,33,69.8,32.7"/>
	<path class="st1" d="M51,40.5c-0.5-0.1-1-0.2-1.6-0.2c-1.3,0.1-2.6,0.6-3.5,1.6c-0.9,1-1.4,2.3-1.3,3.6c0.1,2.2,1.5,4,3.6,4.6
		c0.5,0.1,1,0.2,1.6,0.2c2.7-0.1,4.9-2.4,4.8-5.2C54.6,42.9,53.1,41.1,51,40.5"/>
	<g class="st2">
		<path class="st1" d="M54,28.2c2,0,3.6-1.6,3.6-3.6c0-2-1.6-3.6-3.6-3.6s-3.6,1.6-3.6,3.6C50.4,26.6,52,28.2,54,28.2z"/>
		<path class="st1" d="M52.4,18.8v-0.9c-0.7,0.1-1.5,0.3-2.2,0.4l1,1C51.5,19.1,51.9,19,52.4,18.8z"/>
		<path class="st3" d="M89,45.9c-0.2-14.3-7.7-28.6-29-28.6c-1.4,0-2.9,0.1-4.3,0.2v1.4c0.4,0.1,0.8,0.3,1.2,0.5l1.1-1.1
			c0.2-0.2,0.6-0.2,0.8,0l1.5,1.5c0.2,0.2,0.2,0.6,0,0.9l-1.1,1.1c0.2,0.4,0.4,0.8,0.5,1.2h1.5c0.3,0,0.6,0.3,0.6,0.6v2.2
			c0,0.3-0.3,0.6-0.6,0.6h-1.5c-0.1,0.4-0.3,0.8-0.5,1.2l1.1,1.1c0.2,0.2,0.2,0.6,0,0.9L58.9,31c-0.2,0.2-0.6,0.2-0.8,0L57,29.9
			c-0.4,0.2-0.8,0.4-1.2,0.5v1.5c0,0.3-0.3,0.6-0.6,0.6H53c-0.3,0-0.6-0.3-0.6-0.6v-1.5c-0.4-0.1-0.8-0.3-1.2-0.5L50.1,31
			c-0.2,0.2-0.6,0.2-0.9,0l-1.5-1.5c-0.2-0.2-0.2-0.6,0-0.9l1.1-1.1c-0.2-0.4-0.4-0.8-0.5-1.2h-1.5c-0.3,0-0.6-0.3-0.6-0.6v-2.2
			c0-0.3,0.3-0.6,0.6-0.6h1.5c0.1-0.4,0.3-0.8,0.5-1.2l-1.1-1.1c-0.2-0.2-0.2-0.6,0-0.9l1.1-1.1c-8.6,2.4-16.3,7.9-18.3,18.7
			c-3.4,18.5,8.7,31.9,8.7,31.9s0.5,10.4-0.2,17.6l32.5,15.5l3.2-18.2c0,0,6.7,1.6,12.9,0.5c5-0.9,1-8.3,1-8.3l1.5-4.2L87.7,70
			l2.2-2v-5.1c0,0,2.2,0.4,4.9-0.5C98.8,61.2,89.1,49,89,45.9z M61.9,46c0,0.4-0.3,0.7-0.7,0.8l-1.5,0.5c-0.3,0.1-0.7,0.5-0.8,0.8
			c-0.1,0.3-0.2,0.6-0.4,1c-0.1,0.3-0.1,0.8,0.1,1.1l0.8,1.4c0.2,0.3,0.2,0.8,0,1.1c-0.2,0.3-0.5,0.6-0.7,0.9
			c-0.3,0.3-0.6,0.6-0.9,0.8c-0.3,0.2-0.8,0.3-1.1,0.1l-1.4-0.7c-0.3-0.2-0.8-0.1-1.1,0c-0.3,0.2-0.6,0.3-0.9,0.4
			c-0.3,0.1-0.7,0.5-0.8,0.8l-0.4,1.5c-0.1,0.3-0.4,0.7-0.8,0.7c-0.4,0.1-0.8,0.1-1.2,0.1c-0.4,0-0.7,0-1.1,0
			c-0.4,0-0.7-0.3-0.8-0.7l-0.5-1.5c-0.1-0.3-0.3-0.6-0.4-0.7c-0.1,0-0.1,0-0.2-0.1c-0.4-0.1-0.8-0.3-1.2-0.4
			c-0.3-0.1-0.8-0.1-1.1,0.1l-1.4,0.8c-0.3,0.2-0.8,0.2-1.1,0c-0.3-0.2-0.6-0.5-0.9-0.7c-0.2-0.2-0.4-0.4-0.6-0.6
			c-0.1-0.1-0.1-0.1-0.2-0.2c0,0-0.1-0.1-0.1-0.1c0,0,0-0.1,0-0.1c0,0,0,0,0,0c-0.1-0.3-0.1-0.6,0-0.8l0.7-1.4
			c0.2-0.3,0.1-0.8,0-1.1c-0.2-0.3-0.3-0.7-0.5-1c-0.1-0.3-0.5-0.7-0.8-0.8l-1.5-0.4c-0.3-0.1-0.7-0.4-0.7-0.8
			c-0.1-0.4-0.1-0.7-0.1-1.1c0-0.4,0-0.8,0-1.2c0-0.4,0.3-0.7,0.7-0.8l1.4-0.5c0.3-0.1,0.7-0.5,0.8-0.8c0.1-0.4,0.2-0.7,0.4-1.1
			c0.1-0.3,0.1-0.8-0.1-1.1L40,39c-0.2-0.3-0.2-0.8,0-1.1c0.2-0.3,0.5-0.6,0.8-0.9c0.3-0.3,0.5-0.5,0.8-0.8c0.3-0.2,0.8-0.3,1.1-0.1
			l1.4,0.7c0.3,0.2,0.8,0.1,1.1,0c0.3-0.2,0.7-0.3,1-0.5c0.3-0.1,0.7-0.5,0.8-0.8l0.4-1.5c0.1-0.3,0.4-0.7,0.8-0.7
			c0.4,0,0.7-0.1,1.1-0.1c0.4,0,0.8,0,1.2,0c0.4,0,0.7,0.3,0.8,0.7l0.5,1.5c0.1,0.3,0.3,0.6,0.4,0.7c0.1,0,0.1,0,0.2,0
			c0.4,0.1,0.8,0.3,1.3,0.5c0.3,0.1,0.8,0.1,1.1-0.1l1.3-0.8c0.3-0.2,0.8-0.2,1.1,0c0.3,0.2,0.6,0.5,0.9,0.8
			c0.3,0.3,0.5,0.5,0.8,0.8c0,0,0.1,0.1,0.1,0.1c0,0,0,0.1,0,0.1c0,0,0,0,0,0c0,0,0,0.1,0,0.1c0,0,0,0,0,0c0.1,0.2,0.1,0.5,0,0.7
			l-0.7,1.4c-0.2,0.3-0.1,0.8,0,1.1c0.2,0.3,0.3,0.6,0.4,0.9c0.1,0.3,0.5,0.7,0.8,0.8l1.5,0.4c0.3,0.1,0.7,0.4,0.7,0.8
			c0.1,0.4,0.1,0.8,0.1,1.2C61.9,45.2,61.9,45.6,61.9,46z M77.3,38.8c-0.1,0.4-0.3,0.7-0.5,1.1c-0.2,0.3-0.4,0.6-0.6,1
			c-0.2,0.3-0.7,0.5-1,0.4L74.1,41c-0.3-0.1-0.8,0.1-1.1,0.3c-0.2,0.2-0.5,0.3-0.8,0.5c-0.3,0.2-0.6,0.6-0.7,0.9l-0.3,1.1
			c-0.1,0.3-0.4,0.7-0.8,0.7c-0.4,0.1-0.8,0.1-1.2,0.1c-0.4,0-0.7,0-1.1,0c-0.4,0-0.7-0.3-0.8-0.7l-0.4-1.1
			c-0.1-0.3-0.5-0.7-0.8-0.8c-0.3-0.1-0.5-0.3-0.8-0.4c-0.3-0.2-0.8-0.3-1.1-0.2l-1.1,0.3c-0.2,0.1-0.4,0-0.6,0c0,0-0.1,0-0.1-0.1
			c0,0,0,0,0,0c0,0-0.1,0-0.1-0.1c0,0,0,0,0,0c0,0,0,0-0.1,0c0,0-0.1-0.1-0.1-0.1c-0.2-0.3-0.4-0.6-0.6-0.9c-0.2-0.3-0.4-0.7-0.6-1
			c0,0,0-0.1-0.1-0.2c0,0,0,0,0,0c0,0,0-0.1,0-0.1c0,0,0,0,0,0c0-0.1,0-0.2,0.1-0.4v0c0-0.1,0.1-0.2,0.2-0.3l0.8-0.9
			c0.2-0.3,0.4-0.7,0.3-1c0-0.2,0-0.3,0-0.5c0-0.2,0-0.4,0-0.5c0-0.3-0.2-0.7-0.4-1l-0.9-0.8c-0.3-0.2-0.4-0.7-0.2-1.1
			c0.1-0.3,0.3-0.7,0.5-1c0.2-0.4,0.4-0.7,0.6-1c0.2-0.3,0.7-0.5,1-0.4l1.2,0.2c0.3,0.1,0.8-0.1,1.1-0.3c0.2-0.1,0.4-0.3,0.6-0.4
			c0.3-0.2,0.6-0.6,0.7-0.9l0.3-1.2c0.1-0.3,0.4-0.7,0.8-0.7c0.4,0,0.7-0.1,1.1-0.1c0.4,0,0.8,0,1.2,0c0.4,0,0.7,0.3,0.8,0.7
			l0.4,1.2c0.1,0.3,0.5,0.7,0.8,0.8c0.2,0.1,0.4,0.2,0.7,0.3c0.3,0.2,0.8,0.3,1.2,0.2l1.2-0.3c0.3-0.1,0.8,0,1,0.3
			c0.2,0.3,0.5,0.6,0.7,1c0.2,0.3,0.4,0.6,0.5,1c0,0,0,0.1,0,0.1c0,0,0,0,0,0c0,0,0,0,0,0.1c0,0,0,0,0,0.1c0,0,0,0,0,0
			c0,0.3-0.1,0.5-0.2,0.7l-0.8,0.9c-0.2,0.3-0.4,0.7-0.3,1c0,0.2,0,0.4,0,0.6c0,0.2,0,0.3,0,0.5c0,0.3,0.2,0.7,0.4,1l0.8,0.8
			C77.4,38,77.5,38.5,77.3,38.8z"/>
		<path class="st1" d="M55.7,17.3c0-0.3-0.3-0.6-0.6-0.6H53c-0.3,0-0.6,0.3-0.6,0.6v0.6c1.1-0.2,2.2-0.3,3.4-0.4V17.3z"/>
		<path class="st1" d="M50.1,18.3c-0.2-0.2-0.6-0.2-0.9,0l-0.5,0.5c0.5-0.1,0.9-0.2,1.4-0.4L50.1,18.3z"/>
	</g>
</g>
</svg>
