<?xml version="1.0" encoding="utf-8"?>
<!-- Generator: Adobe Illustrator 21.1.0, SVG Export Plug-In . SVG Version: 6.00 Build 0)  -->
<svg version="1.1" id="Layer_1" xmlns="http://www.w3.org/2000/svg" xmlns:xlink="http://www.w3.org/1999/xlink" x="0px" y="0px"
	 viewBox="0 0 105 105" style="enable-background:new 0 0 105 105;" xml:space="preserve">
<style type="text/css">
	.st0{opacity:0.5;}
	.st1{fill:#FFFFFF;}
	.st2{opacity:0.75;fill:#FFFFFF;enable-background:new    ;}
	.st3{opacity:0.25;fill:#FFFFFF;enable-background:new    ;}
</style>
<g>
	<g class="st0">
		<g>
			<path class="st1" d="M74.7,21h-61c-1,0-1.8,0.8-1.8,1.8v36.6c0,1,0.8,1.8,1.8,1.8h61c1,0,1.8-0.8,1.8-1.8V22.8
				C76.5,21.8,75.7,21,74.7,21z M72.4,58.3H16.1V23.8h56.3V58.3z"/>
			<path class="st1" d="M81.1,66.2c-0.9,1.2-2.9,1.2-3.8,1.2H11.2c-1,0-2.3,0.2-3.8-1.2l-2.1-2.4c-0.5-0.6-0.5-1.2,1.8-1.2h74.4
				c2.3,0,2.3,0.7,1.8,1.2L81.1,66.2z"/>
		</g>
	</g>
	<path class="st1" d="M91.6,49.4c0,4.5-3.6,8.1-8.1,8.1c-4.5,0-8.1-3.6-8.1-8.1c0-4.5,3.6-8.1,8.1-8.1C88,41.3,91.6,44.9,91.6,49.4"
		/>
	<path class="st1" d="M97.8,84H69.1c1.3-14,7.2-24.6,14.4-24.6C90.6,59.4,96.5,70,97.8,84"/>
	<path class="st2" d="M94.7,58.3l-1.9-1.6c1.8-2.1,2.8-4.9,2.8-7.7c0-6.6-5.3-11.9-11.9-11.9c-6.6,0-11.9,5.3-11.9,11.9
		c0,2.5,0.8,4.9,2.2,6.9l-2,1.4c-1.8-2.5-2.7-5.4-2.7-8.4c0-7.9,6.5-14.4,14.4-14.4c7.9,0,14.4,6.5,14.4,14.4
		C98.1,52.4,96.9,55.7,94.7,58.3"/>
	<path class="st2" d="M94.2,54.4c-1.4,0.9-3.1,1.4-4.8,1.4c-2,0-3.9-0.8-5.4-2.1l1-1.1c1.2,1.1,2.8,1.7,4.5,1.8
		c1.6,0,3.1-0.4,4.2-1.3L94.2,54.4z"/>
	<path class="st3" d="M84.1,52.2c-0.5-0.1-0.9,0.2-1,0.6L82.8,54c-0.1,0.5,0.2,0.9,0.6,1l4.5,1.1c0.5,0.1,0.9-0.2,1.1-0.6l0.3-1.1
		c0.1-0.5-0.2-0.9-0.6-1.1L84.1,52.2z"/>
	<path class="st2" d="M72,50.8c-0.4-0.6-1-0.9-1.7-0.9c-0.4,0-0.7,0.1-1.1,0.3L67.9,51c-0.5,0.3-0.8,0.7-0.9,1.3
		c-0.1,0.5,0,1.1,0.3,1.5l3.5,5.6c0.4,0.6,1,0.9,1.7,0.9c0.4,0,0.8-0.1,1.1-0.3l1.4-0.9c0.5-0.3,0.8-0.7,0.9-1.2
		c0.1-0.5,0-1.1-0.3-1.5L72,50.8z"/>
	<path class="st2" d="M99.9,52.3c-0.1-0.5-0.4-1-0.9-1.3l-1.4-0.9c-0.9-0.6-2.2-0.3-2.8,0.6l-3.5,5.6c-0.3,0.5-0.4,1-0.3,1.5
		c0.1,0.5,0.4,1,0.9,1.3l1.4,0.9c0.3,0.2,0.7,0.3,1.1,0.3c0.7,0,1.3-0.4,1.7-0.9l3.5-5.6C100,53.3,100.1,52.8,99.9,52.3"/>
	<rect x="20.7" y="28.2" class="st2" width="11.8" height="6.6"/>
	<rect x="33.1" y="28.2" class="st2" width="11.8" height="6.6"/>
	<rect x="20.7" y="36.8" class="st2" width="11.8" height="6.6"/>
	<rect x="33.1" y="36.8" class="st2" width="11.8" height="6.6"/>
	<rect x="44.2" y="36.8" class="st2" width="11.8" height="6.6"/>
	<rect x="20.7" y="46.1" class="st2" width="11.8" height="6.6"/>
</g>
</svg>
