<?xml version="1.0" encoding="utf-8"?>
<!-- Generator: Adobe Illustrator 21.1.0, SVG Export Plug-In . SVG Version: 6.00 Build 0)  -->
<svg version="1.1" id="Layer_1" xmlns="http://www.w3.org/2000/svg" xmlns:xlink="http://www.w3.org/1999/xlink" x="0px" y="0px"
	 viewBox="0 0 200 200" style="enable-background:new 0 0 200 200;" xml:space="preserve">
<style type="text/css">
	.st0{fill:#065385;}
</style>
<g>
	<g>
		<path class="st0" d="M124,88.4h-15.4c-1.9,0-3.4-1.5-3.4-3.4V69.9c0-0.9-0.8-1.7-1.7-1.7H79.6c-0.9,0-1.7,0.8-1.7,1.7v57.8
			c0,0.9,0.8,1.7,1.7,1.7H124c0.9,0,1.7-0.8,1.7-1.7V90.1C125.7,89.2,124.9,88.4,124,88.4z"/>
		<path class="st0" d="M101.9,23.8c-41.6,0-75,33.4-75,75s33.4,75,75,75s75-33.4,75-75S143.5,23.8,101.9,23.8z M136.1,143.2H67.9
			c-1.9,0-3.4-1.5-3.4-3.4v-82c0-1.9,1.5-3.4,3.4-3.4h43c1,0,1.7,0.3,2.4,1l25.2,25.3c0.7,0.7,1,1.4,1,2.4v56.7
			C139.5,141.7,137.9,143.2,136.1,143.2z"/>
	</g>
</g>
</svg>
