<?xml version="1.0" encoding="utf-8"?>
<!-- Generator: Adobe Illustrator 21.1.0, SVG Export Plug-In . SVG Version: 6.00 Build 0)  -->
<svg version="1.1" id="Layer_1" xmlns="http://www.w3.org/2000/svg" xmlns:xlink="http://www.w3.org/1999/xlink" x="0px" y="0px"
	 viewBox="0 0 200 200" style="enable-background:new 0 0 200 200;" xml:space="preserve">
<style type="text/css">
	.st0{fill:#065385;}
</style>
<g>
	<g>
		<g>
			<g>
				<circle class="st0" cx="122.6" cy="91.5" r="4.4"/>
				<circle class="st0" cx="129.7" cy="84.4" r="4.4"/>
				<polygon class="st0" points="74,83 67,83 67,89 61,89 61,95.5 67,95.5 67,101.5 74,101.5 74,95.5 80,95.5 80,89 74,89 				"/>
				<path class="st0" d="M101.5,24.1c-41.4,0-75,33.6-75,75s33.6,75,75,75s75-33.6,75-75S142.9,24.1,101.5,24.1z M140,132h-6.4
					l-14.4-23h-15.9h-3.7H83.8l-14.4,23H63c-5.2,0-9.5-4.2-9.5-9.5l2.1-33.2c0-0.1,0-0.2,0-0.3c0-0.1,0-0.2,0-0.3
					c0-11.2,9.1-20.3,20.3-20.3c4.6,0,7.9,1.6,11.3,4.2c4.4-1.3,6.5-2.4,12.5-2.7h3.7c5.9,0.3,8.1,1.4,12.5,2.7
					c3.4-2.6,6.6-4.2,11.3-4.2c11.2,0,20.3,9.1,20.3,20.3c0,0.1,0,0.2,0,0.3c0,0.1,0,0.2,0,0.3l2.1,33.2
					C149.5,127.8,145.2,132,140,132z"/>
				<circle class="st0" cx="136.8" cy="91.5" r="4.4"/>
				<circle class="st0" cx="129.7" cy="98.6" r="4.4"/>
			</g>
		</g>
	</g>
</g>
</svg>
