<?xml version="1.0" encoding="utf-8"?>
<!-- Generator: Adobe Illustrator 21.1.0, SVG Export Plug-In . SVG Version: 6.00 Build 0)  -->
<svg version="1.1" id="Layer_1" xmlns="http://www.w3.org/2000/svg" xmlns:xlink="http://www.w3.org/1999/xlink" x="0px" y="0px"
	 viewBox="0 0 200 200" style="enable-background:new 0 0 200 200;" xml:space="preserve">
<style type="text/css">
	.st0{fill:#065385;}
</style>
<g>
	<g>
		<path class="st0" d="M116.6,119.7c-2.4-1-4.8-2.4-7.2-3.4c-6.5-3.4-13.6-6.8-17.4-6.8c-6.5,0-14.3,3.8-19.8,6.8
			c-0.7,0.3-0.7,1-0.7,1.4v3.8c0,0.9,0.8,1.7,1.7,1.7h42.6C117.6,122.8,118.3,120.4,116.6,119.7z"/>
		<path class="st0" d="M131.1,75.1H73c-0.9,0-1.7,0.8-1.7,1.7v21.5c0,1.4,1.4,2,2.4,1.7c5.5-2.4,12-4.4,18.1-4.4
			c7.2,0,15.4,4.1,23.9,8.5c5.1,2.7,10.2,5.1,15,6.8c1,0.3,2.4-0.3,2.4-1.7V76.8C132.8,75.7,132.1,75.1,131.1,75.1z M119.2,95.4
			c-3.8,0-6.8-3.1-6.8-6.8s3.1-6.8,6.8-6.8s6.8,3.1,6.8,6.8S123,95.4,119.2,95.4z"/>
		<path class="st0" d="M102.2,23.8c-41.6,0-75,33.4-75,75s33.4,75,75,75s75-33.4,75-75S143.8,23.8,102.2,23.8z M143.2,136.3h-82
			c-1.9,0-3.4-1.5-3.4-3.4V64.7c0-1.9,1.5-3.4,3.4-3.4h82c1.9,0,3.4,1.5,3.4,3.4v68.2C146.6,134.8,145.1,136.3,143.2,136.3z"/>
	</g>
</g>
</svg>
