<?xml version="1.0" encoding="utf-8"?>
<!-- Generator: Adobe Illustrator 17.0.1, SVG Export Plug-In . SVG Version: 6.00 Build 0)  -->
<!DOCTYPE svg PUBLIC "-//W3C//DTD SVG 1.1//EN" "http://www.w3.org/Graphics/SVG/1.1/DTD/svg11.dtd">
<svg version="1.1" id="Layer_1" xmlns="http://www.w3.org/2000/svg" xmlns:xlink="http://www.w3.org/1999/xlink" x="0px" y="0px"
	 width="229.333px" height="160.667px" viewBox="0 0 229.333 160.667" enable-background="new 0 0 229.333 160.667"
	 xml:space="preserve">
<path opacity="0.5" fill="#FFFFFF" d="M155.77,22.69H59.342c-1.803,0-3.263,1.466-3.263,3.274v60.135c0,1.81,1.46,3.277,3.263,3.277
	h96.428c1.809,0,3.274-1.467,3.274-3.277V25.964C159.044,24.155,157.579,22.69,155.77,22.69z M60.526,40.874
	c0-0.641,0.517-1.154,1.153-1.154c0.638,0,1.153,0.514,1.153,1.154v6.735c0,0.641-0.515,1.154-1.153,1.154
	c-0.636,0-1.153-0.514-1.153-1.154V40.874z M62.832,71.193c0,0.635-0.515,1.151-1.153,1.151c-0.636,0-1.153-0.516-1.153-1.151V64.45
	c0-0.636,0.517-1.156,1.153-1.156c0.638,0,1.153,0.52,1.153,1.156V71.193z M61.488,58.775c-1.598,0-2.888-1.296-2.888-2.892
	c0-1.591,1.29-2.884,2.888-2.884c1.595,0,2.886,1.293,2.886,2.884C64.374,57.479,63.082,58.775,61.488,58.775z M151.12,81.694H66.77
	V30.371h84.351V81.694z"/>
<rect x="71.305" y="35.419" opacity="0.4" fill="#FFFFFF" width="74.593" height="39.695"/>
<g>
	<path opacity="0.5" fill="#FFFFFF" d="M117.991,35.42h-8.944c6.319,0.971,12.614,5.062,13.634,9.028
		c1.805,7.003-4.121,12.421-6.047,10.494c-0.167-0.166-0.382-0.352-0.619-0.546l-9.526,5.465c-0.257,0.145-0.546,0.221-0.835,0.221
		c-0.29,0-0.58-0.076-0.841-0.223c-0.515-0.3-0.836-0.853-0.836-1.455V47.021c-0.734-0.411-1.466-0.819-2.186-1.22
		c-6.048-3.371-4.947-5.649-4.947-5.649c1.585-2.774,4.111-4.224,6.976-4.732h-8.917c-3.474,2.701-7.648,7.716-6.289,12.428
		c0.098,2.379,1.089,2.934,0.636,4.963c-0.437,2.028-3.823,4.426-3.924,5.701c-0.101,1.292,2.213,1.929,2.717,2.332
		c0.487,0.385-0.872,1.83-0.872,2.216c0,0.401,1.278,0.419,1.073,0.7c-0.2,0.303-0.737,0.956-0.437,1.444
		c0.287,0.503,1.075,0.118,0.872,1.293c-0.197,1.189-0.687,4.393,3.153,4.877c3.842,0.487,5.42,0.054,6.005,2.516
		c0.085,0.354,0.115,0.773,0.099,1.226h17.243c-0.051-2.767,0.52-5.921,2.633-8.536C122.973,60.157,131.31,42.75,117.991,35.42z"/>
	<path opacity="0.5" fill="#FFFFFF" d="M103.818,35.42h5.228C107.266,35.146,105.486,35.125,103.818,35.42z"/>
	<path opacity="0.5" fill="#FFFFFF" d="M117.508,52.639c0.025-0.577-0.248-1.127-0.72-1.452l-10.179-7.036
		c-0.288-0.198-0.619-0.297-0.956-0.297c-0.265,0-0.535,0.061-0.776,0.191c-0.554,0.29-0.901,0.863-0.901,1.485v1.49
		c4.896,2.741,9.865,5.598,12.039,7.375l0.653-0.374C117.17,53.736,117.485,53.213,117.508,52.639z"/>
</g>
<path fill="#FFFFFF" d="M142.083,94.992c0,0.073,0.02,0.157,0.02,0.226l0.104,8.406c0.003,0.192-0.016,0.418-0.01,0.607
	c-0.021,0.924-0.116,2.007-0.277,3.189c-0.078,0.629-0.174,1.274-0.289,1.954c-0.745,4.396-2.11,9.58-3.567,13.15
	c-0.252,0.65-0.523,1.225-0.796,1.754c-0.354,0.717-0.73,1.333-1.091,1.751c-0.374,0.455-0.757,0.706-1.106,0.711l-30.057,0.366
	c-0.279-0.051-0.593-0.294-0.909-0.688c-0.338-0.411-0.697-1-1.069-1.727c-0.247-0.501-0.499-1.082-0.765-1.68
	c-2.091-4.695-1.868-8.778-2.83-15.588c-0.093-0.662-0.477-7.408-0.477-7.408l-1.307-9.417c0-0.139,1.422-6.24,2.043-7.014
	c0.613-0.774,1.379-0.957,2.363-1.075c0.127,0,0.245-0.02,0.365-0.02c1.395-0.018,2.732,0.688,3.001,1.687
	c0.169,0.629-1.557,6.037-1.557,6.037c0.217,0.901,1.555,9.048,1.646,8.767c0.144,0.31,1.413-11.691,1.403-12.297l-0.416-34.149
	c-0.022-2.054,1.629-3.747,3.682-3.771c2.042-0.023,3.729,1.624,3.755,3.681l0.414,34.147c0.008,0.608,0.326,1.106,0.798,1.419
	c0.124,0.066,0.232,0.13,0.353,0.187c0.191,0.062,0.385,0.115,0.609,0.112c0.369-0.006,0.679-0.13,0.951-0.325
	c0.243-0.179,0.45-0.388,0.585-0.668c0.101-0.225,0.187-0.489,0.183-0.766l-0.141-11.592c-0.02-1.847,1.454-3.361,3.282-3.38
	c1.848-0.024,3.364,1.453,3.384,3.297l0.144,13.896c0.008,0.609,0.323,1.112,0.796,1.418c0.281,0.188,0.599,0.37,0.962,0.366
	c0.348-0.003,0.66-0.134,0.937-0.325c0.467-0.321,0.789-0.831,0.781-1.441l-0.082-9.066c-0.022-1.827,1.44-3.343,3.284-3.365
	c1.827-0.021,3.343,1.457,3.367,3.286l0.084,11.308c0.006,0.679,0.414,1.245,0.97,1.52c0.251,0.118,0.509,0.204,0.786,0.2
	c0.039,0,0.076-0.02,0.112-0.02c0.777-0.043,1.381-0.607,1.547-1.341c0.031-0.139,0.065-0.262,0.065-0.401l-0.056-9.238
	c-0.014-1.08,0.845-1.956,1.924-1.975c1.063-0.013,1.941,0.848,1.955,1.927l0.068,5.569l-0.017-0.016L142.083,94.992z"/>
<path opacity="0.5" fill="#FFFFFF" d="M141.189,138.731c0.025,1.832-1.444,3.332-3.271,3.357l-35.011,0.423
	c-1.834,0.023-3.337-1.445-3.356-3.274l-0.109-9.023c-0.025-1.83,1.44-3.333,3.273-3.353l35.012-0.426
	c1.831-0.023,3.333,1.444,3.355,3.274L141.189,138.731z"/>
</svg>
