<?xml version="1.0" encoding="utf-8"?>
<!-- Generator: Adobe Illustrator 21.1.0, SVG Export Plug-In . SVG Version: 6.00 Build 0)  -->
<svg version="1.1" id="Layer_1" xmlns="http://www.w3.org/2000/svg" xmlns:xlink="http://www.w3.org/1999/xlink" x="0px" y="0px"
	 viewBox="0 0 105 105" style="enable-background:new 0 0 105 105;" xml:space="preserve">
<style type="text/css">
	.st0{opacity:0.5;fill:#FFFFFF;enable-background:new    ;}
	.st1{opacity:0.4;fill:#FFFFFF;enable-background:new    ;}
	.st2{fill:#FFFFFF;}
</style>
<g>
	<path class="st0" d="M92.7,2.5H12.3c-1.5,0-2.7,1.2-2.7,2.7v50.2c0,1.5,1.2,2.7,2.7,2.7h80.5c1.5,0,2.7-1.2,2.7-2.7V5.2
		C95.5,3.7,94.2,2.5,92.7,2.5z M13.2,17.7c0-0.5,0.4-1,1-1c0.5,0,1,0.4,1,1v5.6c0,0.5-0.4,1-1,1c-0.5,0-1-0.4-1-1V17.7z M15.2,43
		c0,0.5-0.4,1-1,1c-0.5,0-1-0.4-1-1v-5.6c0-0.5,0.4-1,1-1c0.5,0,1,0.4,1,1V43z M14,32.6c-1.3,0-2.4-1.1-2.4-2.4
		c0-1.3,1.1-2.4,2.4-2.4c1.3,0,2.4,1.1,2.4,2.4C16.5,31.5,15.4,32.6,14,32.6z M88.9,51.7H18.5V8.9h70.4L88.9,51.7L88.9,51.7z"/>
	<rect x="22.2" y="13.1" class="st1" width="62.3" height="33.1"/>
	<g>
		<path class="st0" d="M61.2,13.1h-7.5c5.3,0.8,10.5,4.2,11.4,7.5c1.5,5.8-3.4,10.4-5,8.8c-0.1-0.1-0.3-0.3-0.5-0.5l-8,4.6
			c-0.2,0.1-0.5,0.2-0.7,0.2c-0.2,0-0.5-0.1-0.7-0.2c-0.4-0.3-0.7-0.7-0.7-1.2v-9.5c-0.6-0.3-1.2-0.7-1.8-1c-5-2.8-4.1-4.7-4.1-4.7
			c1.3-2.3,3.4-3.5,5.8-3.9h-7.4c-2.9,2.3-6.4,6.4-5.2,10.4c0.1,2,0.9,2.4,0.5,4.1c-0.4,1.7-3.2,3.7-3.3,4.8
			c-0.1,1.1,1.8,1.6,2.3,1.9c0.4,0.3-0.7,1.5-0.7,1.8c0,0.3,1.1,0.3,0.9,0.6C36.2,37,35.8,37.6,36,38c0.2,0.4,0.9,0.1,0.7,1.1
			c-0.2,1-0.6,3.7,2.6,4.1c3.2,0.4,4.5,0,5,2.1c0.1,0.3,0.1,0.6,0.1,1h14.4c0-2.3,0.4-4.9,2.2-7.1C65.4,33.8,72.3,19.2,61.2,13.1z"
			/>
		<path class="st0" d="M49.4,13.1h4.4C52.3,12.9,50.8,12.9,49.4,13.1z"/>
		<path class="st0" d="M60.8,27.5c0-0.5-0.2-0.9-0.6-1.2l-8.5-5.9c-0.2-0.2-0.5-0.2-0.8-0.2c-0.2,0-0.4,0.1-0.6,0.2
			c-0.5,0.2-0.8,0.7-0.8,1.2v1.2c4.1,2.3,8.2,4.7,10,6.2l0.5-0.3C60.5,28.4,60.8,28,60.8,27.5z"/>
	</g>
	<path class="st2" d="M81.3,62.8c0,0.1,0,0.1,0,0.2l0.1,7c0,0.2,0,0.3,0,0.5c0,0.8-0.1,1.7-0.2,2.7c-0.1,0.5-0.1,1.1-0.2,1.6
		c-0.6,3.7-1.8,8-3,11c-0.2,0.5-0.4,1-0.7,1.5c-0.3,0.6-0.6,1.1-0.9,1.5c-0.3,0.4-0.6,0.6-0.9,0.6l-25.1,0.3c-0.2,0-0.5-0.2-0.8-0.6
		c-0.3-0.3-0.6-0.8-0.9-1.4c-0.2-0.4-0.4-0.9-0.6-1.4c-1.7-3.9-1.6-7.3-2.4-13c-0.1-0.6-0.4-6.2-0.4-6.2l-1.1-7.9
		c0-0.1,1.2-5.2,1.7-5.9c0.5-0.6,1.2-0.8,2-0.9c0.1,0,0.2,0,0.3,0c1.2,0,2.3,0.6,2.5,1.4c0.1,0.5-1.3,5-1.3,5
		c0.2,0.8,1.3,7.6,1.4,7.3c0.1,0.3,1.2-9.8,1.2-10.3l-0.3-28.5c0-1.7,1.4-3.1,3.1-3.1c1.7,0,3.1,1.4,3.1,3.1l0.3,28.5
		c0,0.5,0.3,0.9,0.7,1.2c0.1,0.1,0.2,0.1,0.3,0.2c0.2,0.1,0.3,0.1,0.5,0.1c0.3,0,0.6-0.1,0.8-0.3c0.2-0.1,0.4-0.3,0.5-0.6
		c0.1-0.2,0.2-0.4,0.2-0.6L61,46.1c0-1.5,1.2-2.8,2.7-2.8c1.5,0,2.8,1.2,2.8,2.8l0.1,11.6c0,0.5,0.3,0.9,0.7,1.2
		c0.2,0.2,0.5,0.3,0.8,0.3c0.3,0,0.6-0.1,0.8-0.3c0.4-0.3,0.7-0.7,0.7-1.2l-0.1-7.6c0-1.5,1.2-2.8,2.7-2.8c1.5,0,2.8,1.2,2.8,2.7
		l0.1,9.4c0,0.6,0.3,1,0.8,1.3c0.2,0.1,0.4,0.2,0.7,0.2c0,0,0.1,0,0.1,0c0.6,0,1.2-0.5,1.3-1.1c0-0.1,0.1-0.2,0.1-0.3l0-7.7
		c0-0.9,0.7-1.6,1.6-1.6c0.9,0,1.6,0.7,1.6,1.6l0.1,4.6l0,0L81.3,62.8z"/>
	<path class="st0" d="M80.6,99.3c0,1.5-1.2,2.8-2.7,2.8l-29.2,0.4c-1.5,0-2.8-1.2-2.8-2.7l-0.1-7.5c0-1.5,1.2-2.8,2.7-2.8l29.2-0.4
		c1.5,0,2.8,1.2,2.8,2.7L80.6,99.3z"/>
</g>
</svg>
