<?xml version="1.0" encoding="utf-8"?>
<!-- Generator: Adobe Illustrator 21.1.0, SVG Export Plug-In . SVG Version: 6.00 Build 0)  -->
<svg version="1.1" id="Layer_1" xmlns="http://www.w3.org/2000/svg" xmlns:xlink="http://www.w3.org/1999/xlink" x="0px" y="0px"
	 viewBox="0 0 200 200" style="enable-background:new 0 0 200 200;" xml:space="preserve">
<style type="text/css">
	.st0{fill:none;}
	.st1{fill:#065385;}
</style>
<g>
</g>
<g>
</g>
<g>
</g>
<g>
</g>
<g>
</g>
<g>
</g>
<g>
</g>
<g>
</g>
<g>
</g>
<g>
</g>
<g>
</g>
<g>
</g>
<g>
</g>
<g>
</g>
<g>
</g>
<g>
</g>
<g>
	<path class="st0" d="M95,121.5l-6,6c-4.7,4.7-12.2,4.7-16.9,0c-4.7-4.7-4.7-12.2,0-16.9L89,93.8c4.7-4.7,12.2-4.7,16.9,0
		c1.5,1.5,2.4,3.2,3,5.1c0.4-0.3,0.9-0.5,1.3-0.8l7.8-7.8c-1-1.7-2.2-3.4-3.6-4.8c-9.3-9.3-24.5-9.3-33.8,0l-16.9,16.9
		c-9.3,9.3-9.3,24.5,0,33.8c9.3,9.3,24.5,9.3,33.8,0l12.8-12.8C105.1,124,99.9,123.4,95,121.5z"/>
	<path class="st0" d="M105.9,60L93.1,72.8c5.1-0.7,10.4-0.2,15.2,1.7l6-6c4.7-4.7,12.2-4.7,16.9,0c4.7,4.7,4.7,12.2,0,16.9
		l-16.9,16.9c-4.7,4.7-12.2,4.7-16.9,0c-1.5-1.5-2.4-3.2-2.9-5.1c-0.4,0.3-0.9,0.5-1.3,0.8l-7.9,7.8c1,1.7,2.2,3.4,3.6,4.8
		c9.3,9.3,24.5,9.3,33.8,0l16.9-16.9c9.3-9.3,9.3-24.5,0-33.8C130.3,50.7,115.2,50.7,105.9,60z"/>
	<path class="st1" d="M101.8,23.8c-41.6,0.1-74.9,33.5-74.9,75.1c0.1,41.6,33.5,74.9,75.1,74.9c41.6-0.1,74.9-33.5,74.9-75.1
		C176.8,57.1,143.4,23.7,101.8,23.8z M97.4,136c-9.3,9.3-24.5,9.3-33.8,0c-9.3-9.3-9.3-24.5,0-33.8l16.9-16.9
		c9.3-9.3,24.5-9.3,33.8,0c1.5,1.5,2.6,3.1,3.6,4.8l-7.8,7.8c-0.4,0.4-0.8,0.6-1.3,0.8c-0.5-1.9-1.5-3.6-3-5.1
		c-4.7-4.7-12.2-4.7-16.9,0l-16.9,16.9c-4.7,4.7-4.7,12.2,0,16.9c4.7,4.7,12.2,4.7,16.9,0l6-6c4.9,1.9,10.1,2.4,15.2,1.7L97.4,136z
		 M139.7,93.8l-16.9,16.9c-9.3,9.3-24.5,9.3-33.8,0c-1.5-1.5-2.6-3.1-3.6-4.8l7.9-7.8c0.4-0.4,0.8-0.6,1.3-0.8
		c0.5,1.9,1.5,3.6,2.9,5.1c4.7,4.7,12.2,4.7,16.9,0l16.9-16.9c4.7-4.7,4.7-12.2,0-16.9c-4.7-4.7-12.2-4.7-16.9,0l-6,6
		c-4.9-1.9-10.1-2.4-15.2-1.7L105.9,60c9.3-9.3,24.5-9.3,33.8,0C149,69.3,149,84.4,139.7,93.8z"/>
</g>
</svg>
