<?xml version="1.0" encoding="utf-8"?>
<!-- Generator: Adobe Illustrator 17.0.1, SVG Export Plug-In . SVG Version: 6.00 Build 0)  -->
<!DOCTYPE svg PUBLIC "-//W3C//DTD SVG 1.1//EN" "http://www.w3.org/Graphics/SVG/1.1/DTD/svg11.dtd">
<svg version="1.1" id="Layer_1" xmlns="http://www.w3.org/2000/svg" xmlns:xlink="http://www.w3.org/1999/xlink" x="0px" y="0px"
	 width="229.333px" height="160.667px" viewBox="0 0 229.333 160.667" enable-background="new 0 0 229.333 160.667"
	 xml:space="preserve">
<path opacity="0.5" fill="#FFFFFF" d="M95.328,44.996h-3.682c-0.301-1.045-0.714-2.044-1.228-2.978l2.595-2.598
	c0.573-0.57,0.573-1.492,0-2.061l-3.691-3.693c-0.567-0.568-1.487-0.568-2.057,0l-2.598,2.598c-0.936-0.515-1.937-0.927-2.98-1.228
	v-3.681c0-0.805-0.659-1.457-1.459-1.457h-5.222c-0.803,0-1.459,0.652-1.459,1.457v3.681c-1.044,0.301-2.044,0.713-2.977,1.228
	l-2.602-2.598c-0.572-0.568-1.487-0.568-2.059,0l-3.691,3.693c-0.57,0.569-0.57,1.491,0,2.061l2.598,2.6
	c-0.514,0.932-0.924,1.933-1.225,2.976h-3.682c-0.804,0-1.463,0.656-1.463,1.46v5.221c0,0.802,0.659,1.455,1.463,1.455h3.682
	c0.301,1.046,0.711,2.047,1.228,2.981l-2.601,2.599c-0.57,0.569-0.57,1.49,0,2.06l3.691,3.695c0.572,0.567,1.487,0.567,2.059,0
	l2.602-2.601c0.933,0.514,1.933,0.925,2.977,1.227v3.682c0,0.806,0.656,1.456,1.459,1.456h5.222c0.8,0,1.459-0.65,1.459-1.456
	v-3.682c1.043-0.302,2.044-0.713,2.977-1.227l2.601,2.601c0.57,0.567,1.49,0.567,2.057,0l3.691-3.695c0.573-0.57,0.573-1.491,0-2.06
	l-2.598-2.599c0.517-0.934,0.93-1.935,1.231-2.981h3.682c0.804,0,1.456-0.653,1.456-1.455v-5.221
	C96.784,45.652,96.132,44.996,95.328,44.996 M77.617,57.853c-4.849,0-8.784-3.944-8.784-8.79c0-4.845,3.935-8.786,8.784-8.786
	c4.846,0,8.786,3.941,8.786,8.786C86.403,53.909,82.463,57.853,77.617,57.853"/>
<path fill="#FFFFFF" d="M121.279,61.14c-0.338-0.096-0.691-0.138-1.049-0.124c-1.851,0.074-3.299,1.637-3.226,3.488
	c0.057,1.459,1.037,2.707,2.439,3.103c0.339,0.098,0.692,0.139,1.05,0.125c0.897-0.036,1.726-0.418,2.337-1.077
	c0.607-0.658,0.926-1.516,0.889-2.412C123.662,62.784,122.681,61.536,121.279,61.14"/>
<path fill="#FFFFFF" d="M101.797,69.266c-0.521-0.147-1.063-0.212-1.613-0.192c-1.379,0.055-2.657,0.643-3.593,1.657
	c-0.939,1.014-1.425,2.333-1.372,3.713c0.088,2.243,1.597,4.161,3.756,4.772c0.521,0.148,1.063,0.214,1.612,0.19
	c2.849-0.11,5.075-2.518,4.965-5.366C105.465,71.796,103.955,69.879,101.797,69.266"/>
<g opacity="0.9">
	<path fill="#FFFFFF" d="M104.909,56.576c2.071,0,3.753-1.684,3.753-3.756c0-2.071-1.682-3.756-3.753-3.756
		s-3.756,1.685-3.756,3.756C101.153,54.892,102.838,56.576,104.909,56.576z"/>
	<path fill="#FFFFFF" d="M103.169,46.823v-0.941c-0.764,0.132-1.525,0.284-2.281,0.459l1.008,1.009
		C102.293,47.129,102.725,46.954,103.169,46.823z"/>
	<path opacity="0.9" fill="#FFFFFF" d="M141.177,74.854c-0.182-14.797-8.007-29.64-30.029-29.64c-1.477,0-2.985,0.069-4.5,0.209
		v1.401c0.445,0.131,0.874,0.306,1.271,0.527l1.113-1.112c0.243-0.242,0.635-0.242,0.879,0l1.577,1.579
		c0.245,0.243,0.245,0.637,0,0.882l-1.111,1.109c0.224,0.4,0.4,0.826,0.527,1.274h1.576c0.342,0,0.619,0.28,0.619,0.622v2.232
		c0,0.345-0.277,0.622-0.619,0.622h-1.576c-0.127,0.448-0.303,0.876-0.527,1.276l1.111,1.11c0.245,0.244,0.245,0.637,0,0.881
		l-1.577,1.579c-0.244,0.242-0.636,0.242-0.879,0l-1.113-1.112c-0.397,0.22-0.826,0.396-1.271,0.525v1.574
		c0,0.343-0.282,0.622-0.624,0.622h-2.232c-0.344,0-0.624-0.279-0.624-0.622v-1.574c-0.444-0.129-0.876-0.305-1.273-0.525
		l-1.111,1.112c-0.245,0.242-0.637,0.242-0.882,0l-1.576-1.579c-0.245-0.244-0.245-0.637,0-0.881l1.111-1.11
		c-0.222-0.4-0.395-0.828-0.527-1.276H97.34c-0.345,0-0.624-0.277-0.624-0.622v-2.232c0-0.342,0.279-0.622,0.624-0.622h1.571
		c0.132-0.446,0.305-0.874,0.527-1.273l-1.111-1.11c-0.245-0.245-0.245-0.639,0-0.882l1.108-1.11
		c-8.956,2.443-16.912,8.188-18.978,19.411c-3.521,19.135,8.992,33.014,8.992,33.014s0.568,10.736-0.186,18.284l33.711,16.099
		l3.27-18.868c0,0,6.92,1.67,13.412,0.505c5.216-0.939,1.006-8.554,1.006-8.554l1.515-4.361l-2.362-2.353l2.26-2.092v-5.284
		c0,0,2.29,0.384,5.112-0.502C151.291,90.716,141.217,78.061,141.177,74.854z M113.056,74.955c-0.024,0.367-0.343,0.76-0.692,0.878
		l-1.582,0.536c-0.348,0.12-0.699,0.507-0.808,0.857c-0.106,0.34-0.229,0.668-0.367,0.991c-0.146,0.338-0.134,0.859,0.055,1.175
		l0.858,1.444c0.188,0.316,0.177,0.822-0.045,1.115c-0.229,0.303-0.474,0.598-0.738,0.882c-0.281,0.306-0.576,0.59-0.881,0.857
		c-0.278,0.239-0.781,0.291-1.111,0.128l-1.493-0.736c-0.329-0.162-0.85-0.136-1.175,0.035c-0.309,0.165-0.63,0.315-0.957,0.446
		c-0.342,0.137-0.699,0.516-0.79,0.873l-0.407,1.596c-0.09,0.355-0.455,0.707-0.819,0.761c-0.402,0.06-0.809,0.099-1.223,0.113
		c-0.388,0.018-0.77,0.011-1.149-0.012c-0.368-0.02-0.76-0.342-0.877-0.69l-0.529-1.555c-0.119-0.348-0.32-0.652-0.449-0.682
		c-0.077-0.02-0.155-0.039-0.232-0.059c-0.417-0.121-0.825-0.266-1.212-0.435c-0.339-0.146-0.862-0.132-1.177,0.055l-1.399,0.834
		c-0.316,0.186-0.822,0.173-1.115-0.047c-0.302-0.229-0.598-0.475-0.883-0.737c-0.231-0.216-0.448-0.439-0.658-0.669
		c-0.066-0.072-0.133-0.142-0.197-0.213c-0.029-0.034-0.055-0.071-0.08-0.114c-0.018-0.028-0.034-0.062-0.047-0.097
		c-0.006-0.009-0.01-0.018-0.015-0.029c-0.111-0.274-0.109-0.622,0.013-0.872l0.701-1.42c0.161-0.329,0.134-0.848-0.04-1.173
		c-0.181-0.338-0.344-0.688-0.484-1.047c-0.137-0.341-0.514-0.7-0.87-0.792l-1.541-0.392c-0.357-0.09-0.706-0.456-0.756-0.821
		c-0.052-0.376-0.087-0.759-0.102-1.144c-0.016-0.414-0.009-0.827,0.018-1.23c0.024-0.366,0.347-0.757,0.695-0.876l1.471-0.499
		c0.35-0.119,0.697-0.507,0.802-0.859c0.114-0.377,0.252-0.749,0.41-1.111c0.147-0.337,0.135-0.855-0.054-1.171l-0.791-1.333
		c-0.187-0.316-0.179-0.822,0.041-1.117c0.243-0.326,0.503-0.642,0.784-0.946c0.264-0.285,0.539-0.553,0.821-0.805
		c0.277-0.242,0.779-0.295,1.11-0.133l1.405,0.694c0.329,0.163,0.849,0.136,1.174-0.038c0.35-0.186,0.708-0.349,1.074-0.493
		c0.344-0.134,0.703-0.51,0.794-0.865l0.39-1.532c0.09-0.355,0.457-0.705,0.821-0.757c0.376-0.051,0.758-0.087,1.145-0.101
		c0.414-0.016,0.823-0.009,1.228,0.018c0.366,0.024,0.758,0.346,0.876,0.696l0.515,1.51c0.118,0.351,0.304,0.655,0.414,0.68
		c0.067,0.014,0.135,0.031,0.2,0.049c0.448,0.128,0.88,0.286,1.296,0.471c0.337,0.149,0.857,0.137,1.173-0.053l1.382-0.821
		c0.317-0.187,0.823-0.177,1.117,0.042c0.326,0.242,0.642,0.503,0.946,0.785c0.284,0.263,0.553,0.538,0.804,0.82
		c0.03,0.034,0.056,0.071,0.079,0.108c0.018,0.026,0.029,0.058,0.043,0.086c0.006,0.012,0.012,0.023,0.017,0.035
		c0.017,0.04,0.032,0.082,0.042,0.125c0,0.001,0.002,0.002,0.002,0.003c0.07,0.25,0.056,0.539-0.051,0.752l-0.727,1.477
		c-0.162,0.331-0.138,0.851,0.034,1.176c0.165,0.32,0.314,0.647,0.448,0.983c0.133,0.342,0.508,0.702,0.866,0.791l1.594,0.407
		c0.357,0.091,0.709,0.455,0.761,0.821c0.06,0.4,0.099,0.807,0.115,1.221C113.082,74.194,113.077,74.578,113.056,74.955z
		 M129.043,67.551c-0.149,0.378-0.319,0.75-0.513,1.116c-0.179,0.344-0.376,0.673-0.585,0.99c-0.203,0.308-0.674,0.487-1.036,0.416
		l-1.168-0.234c-0.36-0.072-0.874,0.072-1.172,0.288c-0.253,0.184-0.517,0.351-0.79,0.501c-0.324,0.175-0.672,0.577-0.764,0.936
		l-0.288,1.134c-0.092,0.356-0.457,0.707-0.822,0.761c-0.4,0.06-0.808,0.097-1.221,0.115c-0.388,0.014-0.772,0.01-1.15-0.013
		c-0.367-0.023-0.761-0.343-0.878-0.69l-0.381-1.123c-0.119-0.349-0.499-0.724-0.834-0.875c-0.289-0.128-0.567-0.275-0.83-0.439
		c-0.313-0.194-0.838-0.295-1.19-0.196l-1.148,0.323c-0.199,0.057-0.436,0.035-0.648-0.044c-0.041-0.016-0.08-0.032-0.119-0.052
		c-0.004-0.003-0.008-0.005-0.011-0.006c-0.034-0.018-0.068-0.036-0.097-0.056c-0.015-0.01-0.026-0.02-0.039-0.03
		c-0.022-0.016-0.043-0.032-0.063-0.05c-0.032-0.03-0.064-0.06-0.09-0.094c-0.231-0.298-0.454-0.613-0.662-0.942
		c-0.219-0.348-0.418-0.707-0.597-1.071c-0.023-0.05-0.04-0.104-0.054-0.16c-0.003-0.013-0.005-0.03-0.008-0.045
		c-0.011-0.043-0.015-0.088-0.017-0.135c0-0.014-0.001-0.026-0.003-0.039c-0.001-0.127,0.018-0.252,0.055-0.371v-0.002
		c0.042-0.133,0.106-0.258,0.19-0.355l0.81-0.921c0.241-0.277,0.394-0.731,0.36-1.015c-0.019-0.173-0.035-0.346-0.041-0.52
		c-0.007-0.192-0.007-0.382,0.001-0.569c0.013-0.315-0.167-0.775-0.43-1.033l-0.897-0.874c-0.263-0.258-0.385-0.746-0.244-1.089
		c0.14-0.351,0.303-0.701,0.483-1.042c0.193-0.368,0.404-0.719,0.63-1.055c0.206-0.304,0.679-0.484,1.04-0.413l1.258,0.251
		c0.361,0.073,0.879-0.066,1.181-0.279c0.209-0.147,0.427-0.285,0.651-0.41c0.32-0.178,0.671-0.585,0.761-0.939l0.322-1.265
		c0.09-0.357,0.456-0.705,0.821-0.757c0.375-0.051,0.758-0.086,1.145-0.101c0.413-0.016,0.823-0.009,1.228,0.018
		c0.366,0.025,0.757,0.348,0.875,0.696l0.416,1.221c0.119,0.348,0.499,0.724,0.834,0.876c0.235,0.106,0.461,0.227,0.68,0.355
		c0.318,0.188,0.845,0.286,1.198,0.185l1.231-0.345c0.354-0.101,0.842,0.041,1.068,0.329c0.251,0.318,0.491,0.652,0.711,1.002
		c0.207,0.327,0.394,0.663,0.564,1.002c0.019,0.036,0.033,0.077,0.046,0.118c0.004,0.016,0.008,0.033,0.011,0.05
		c0.006,0.025,0.012,0.047,0.015,0.071c0.004,0.025,0.007,0.048,0.009,0.072c0.002,0.015,0.002,0.032,0.002,0.047
		c0.01,0.27-0.076,0.56-0.242,0.748l-0.82,0.936c-0.243,0.275-0.387,0.752-0.349,1.066c0.022,0.188,0.037,0.38,0.044,0.571
		c0.008,0.175,0.005,0.35-0.001,0.523c-0.015,0.289,0.171,0.729,0.434,0.985l0.88,0.856
		C129.058,66.716,129.179,67.21,129.043,67.551z"/>
	<path fill="#FFFFFF" d="M106.649,45.251c0-0.345-0.282-0.624-0.624-0.624h-2.232c-0.344,0-0.624,0.279-0.624,0.624v0.631
		c1.158-0.2,2.321-0.352,3.48-0.459V45.251z"/>
	<path fill="#FFFFFF" d="M100.785,46.238c-0.245-0.242-0.637-0.242-0.882,0l-0.468,0.469c0.482-0.131,0.967-0.253,1.454-0.366
		L100.785,46.238z"/>
</g>
</svg>
