<?xml version="1.0" encoding="utf-8"?>
<!-- Generator: Adobe Illustrator 21.1.0, SVG Export Plug-In . SVG Version: 6.00 Build 0)  -->
<svg version="1.1" id="Layer_1" xmlns="http://www.w3.org/2000/svg" xmlns:xlink="http://www.w3.org/1999/xlink" x="0px" y="0px"
	 viewBox="0 0 600 200" style="enable-background:new 0 0 600 200;" xml:space="preserve">
<style type="text/css">
	.st0{fill:#29ABE2;}
	.st1{fill:#6ECEF5;}
	.st2{fill:#2486C1;}
	.st3{fill:#0033A0;}
	.st4{fill:#FFFFFF;}
</style>
<g>
	<g>
		<polygon class="st0" points="183.1,37.8 269.8,162.9 319.8,100.3 		"/>
		<polygon class="st1" points="183.1,37.8 270.1,37.8 319.8,100.3 		"/>
		<polygon class="st2" points="226.4,100.3 183.1,162.9 269.8,162.9 		"/>
		<polygon class="st3" points="217.3,113.5 269.8,162.9 226.4,100.3 		"/>
		<g>
			<path class="st4" d="M332.6,158.8c0.3,0.6-0.3,2.2-1,2.6c-2.4-0.2-5.5-0.3-9-0.3c-3.7,0-6.9,0.1-9.3,0.3
				c-0.7-0.4-0.2-2.2,0.6-2.6l2.6-0.3c1.8-0.2,3.1-1,3.6-1.7c0.4-0.5,1.2-2,2.6-6.4l4.4-13.9c0.8-2.4,0.7-2.7-1-2.7h-11.6
				c-2.4,0-2.7,0.1-5,3.2l-9.4,11.8c-4.3,5.7-5.6,7.2-5.7,7.8c-0.2,0.6,0,1.2,1.4,1.6l3.3,0.6c0.5,0.6-0.2,2.2-0.9,2.6
				c-2.4-0.2-4.9-0.3-8.1-0.3c-3.1,0-6.1,0.1-9,0.3c-0.2-0.6,0.2-2,0.9-2.6l2.3-0.3c2.5-0.3,4.7-1.9,7-4.3
				c3.3-3.7,10.2-12,19.5-23.3l21-25.7c5.1-6.2,6.9-8.9,7.7-10.7c2.9-0.5,6.6-3.4,6.8-3.4c0.4,0,0.9,0.4,0.7,0.8
				c-0.5,1.8-2.1,6.2-4.9,15.2l-12.1,39.1c-3.6,11.5-3.5,11.6,0.7,12.2L332.6,158.8z M327.6,129.8c1.4,0,1.6-0.2,2.2-2.1l7.4-22.7
				c0.5-1.4,0.7-2.7,0.6-2.7c-0.2,0-0.9,0.6-4.4,5.1l-16.7,20.8c-1,1.2-0.8,1.6,1,1.6L327.6,129.8L327.6,129.8z"/>
			<path class="st4" d="M371.3,125c-1.1,4.1-4.4,4.9-5.2,4.9c-0.8,0-1.3-0.6-1.1-1.9c0.5-2.6,1.4-5.7-1.3-5.7
				c-1.8,0-4.8,2.2-8.6,6.9c-4,5.1-8.7,13.5-11.1,21.4c-1.5,5.2-0.3,6.7,1.7,6.7c2.7,0,6.3-2.7,10.4-6.3c0.8-0.1,1.1,0.7,0.6,1.8
				c-4.5,5.3-10.8,9.7-15.9,9.7c-3.1,0-5.2-3-3.1-11c1.8-6.7,8.1-18.5,17.4-26.7c4.4-3.9,8.4-6,12.1-6
				C371,118.9,372.2,121.8,371.3,125z"/>
			<path class="st4" d="M396.6,125c-1.1,4.1-4.4,4.9-5.2,4.9c-0.8,0-1.3-0.6-1.1-1.9c0.5-2.6,1.4-5.7-1.3-5.7
				c-1.8,0-4.8,2.2-8.6,6.9c-4,5.1-8.7,13.5-11.1,21.4c-1.5,5.2-0.3,6.7,1.7,6.7c2.7,0,6.3-2.7,10.4-6.3c0.8-0.1,1.1,0.7,0.6,1.8
				c-4.5,5.3-10.8,9.7-15.9,9.7c-3.1,0-5.2-3-3.1-11c1.8-6.7,8.1-18.5,17.4-26.7c4.4-3.9,8.4-6,12.1-6
				C396.3,118.9,397.4,121.8,396.6,125z"/>
			<path class="st4" d="M421.8,125.1c-2.1,7.9-11.4,13-24.1,17.2c-1,1.8-2.5,5.1-3.6,9.2c-0.9,3.5,0.1,5.9,2.3,5.9
				c2.9,0,5.5-2.1,10-6c0.7,0,1,0.8,0.6,1.8c-7,7.8-12,9.4-15.4,9.4c-4.8,0-5-5.8-3.6-10.9c1.7-6.5,8.3-19.1,19.4-27.8
				c5.3-4.1,8.6-5,11-5C421.6,118.9,422.5,122.4,421.8,125.1z M408.5,127.1c-4.3,4.3-7.4,9.1-9.2,12.1c5.9-2.1,8.9-4,12.8-7.7
				c3.3-3,4.8-6.1,5-7c0.3-1,0.2-2.4-1.2-2.4C414.8,122.1,412.4,123,408.5,127.1z"/>
		</g>
		<g>
			<path class="st4" d="M419.2,154.4c-1.3,2.4-1.5,3.4-0.6,3.4c1.8,0,6.9-5.1,12-10.5c0.8-0.1,1.2,0.4,0.9,1.4
				c-3.5,5.2-10.8,13.8-17.5,13.8c-2.4,0-2.7-1.4-2.3-3.1c0.4-1.7,1.3-3.5,4.1-8.8l25.9-49c3.9-7.2,3.3-8.3,2.3-9l-1.2-0.8
				c-0.3-0.4,0-1.3,0.4-1.7c1.6-0.7,7.2-2.7,11-3.1l0.2,0.6c-2,3.7-3.6,6.6-9.5,17.8L419.2,154.4z"/>
		</g>
		<g>
			<path class="st4" d="M468.2,125.1c-2.1,7.9-11.5,13-24.1,17.2c-1,1.8-2.5,5.1-3.6,9.2c-0.9,3.5,0.1,5.9,2.3,5.9
				c2.9,0,5.5-2.1,10-6c0.7,0,1,0.8,0.6,1.8c-7,7.8-12,9.4-15.4,9.4c-4.8,0-5-5.8-3.6-10.9c1.7-6.5,8.3-19.1,19.4-27.8
				c5.3-4.1,8.6-5,11-5C468,118.9,468.9,122.4,468.2,125.1z M454.9,127.1c-4.3,4.3-7.4,9.1-9.2,12.1c5.9-2.1,8.9-4,12.8-7.7
				c3.3-3,4.8-6.1,5-7c0.3-1,0.2-2.4-1.2-2.4C461.2,122.1,458.9,123,454.9,127.1z"/>
			<path class="st4" d="M479.9,128.7l-6.9,13h0.4c4-5.8,10.1-14.1,13.1-17.5c2.7-3.1,5.3-5.4,7.3-5.4c2.8,0,2.3,3.5,1.9,5.1
				c-0.4,1.6-1.9,4.6-3.4,6.2c-1.4,1.6-2.7,1.7-2.4-0.5c0.3-2.7,0.2-4-0.6-4c-0.7,0-1.9,1-3.6,3.1c-7.1,8.1-14.9,20.7-22.4,32.6
				c-0.5,0.8-1.1,1.2-1.7,1.2c-0.9,0-3.1-0.4-1.9-2.7c2.2-4.1,12.1-22.5,17-32.6c0.5-1.1,0.7-2.2-0.1-2.2c-2.1,0-5,2.9-7.1,5.4
				c-0.9,0.2-1.3-0.4-0.8-1.7c4.1-5.6,8.3-9.9,12.1-9.9C484.7,118.9,481.3,125.9,479.9,128.7z"/>
			<path class="st4" d="M523.9,116.5c1.6-0.8,3.4,0.2,3.5,1.6c-2.2,3.8-15.4,26.7-20.4,36.1c-1,1.8-0.7,2.4-0.1,2.4
				c1.4,0,4.2-1.8,10.1-6.9c0.6,0,1,0.5,0.8,1.3c-4.9,5.8-12.2,11.6-16.6,11.6c-1.8,0-1.8-2-1.6-2.8c0.2-0.7,0.6-1.7,1.9-4l5.1-9.3
				l-0.2-0.1c-8.1,9.1-18.3,16.2-22,16.2c-2.2,0-2.8-2.9-2-5.8c0.6-2.4,4.6-10.7,12.5-20.1c5.7-6.8,10.3-11,14.2-13.4
				c3.7-2.3,5.9-3,8-3c0.9,0,1.4,0.3,1.8,0.6c0.3,0.2,0.9,1.1,1,2.2L523.9,116.5z M506.7,128.3c-6.7,5.9-15.3,19.5-17.2,26.8
				c-0.3,1.2,0,2,0.7,2c0.8,0,3.6-1.3,9.6-6.7c8.1-7.3,13.8-16.2,16.8-22.4c0-2-0.9-3.7-3-3.7C511.6,124.3,510,125.4,506.7,128.3z"
				/>
			<path class="st4" d="M541.8,124.4l-15,28.2c-1,2-0.8,2.6-0.1,2.6c1.2,0,8-5.4,11.7-9.3c0.8,0,1.1,0.6,0.6,1.9
				c-6.8,8.6-16,14.9-19.4,14.9c-1.1,0-1.8-1.6-1.4-2.8c0.4-1.3,1.1-2.8,2.7-5.9l15.7-29.5h-6.3c0.1-1,0.7-2.5,1.7-2.9l6.8-1.4
				l7.2-10.2c1-0.6,2.5-0.4,2.9,0.6l-5,10.1h8.8c0.3,1-0.8,3.1-2,3.8L541.8,124.4L541.8,124.4z"/>
			<path class="st4" d="M574.1,125.1c-2.1,7.9-11.5,13-24.1,17.2c-1,1.8-2.5,5.1-3.6,9.2c-0.9,3.5,0.1,5.9,2.3,5.9
				c2.9,0,5.5-2.1,10-6c0.7,0,1,0.8,0.6,1.8c-7,7.8-12,9.4-15.4,9.4c-4.8,0-5-5.8-3.6-10.9c1.7-6.5,8.3-19.1,19.4-27.8
				c5.3-4.1,8.6-5,11-5C573.9,118.9,574.8,122.4,574.1,125.1z M560.7,127.1c-4.3,4.3-7.4,9.1-9.2,12.1c5.9-2.1,8.9-4,12.8-7.7
				c3.3-3,4.8-6.1,5-7c0.3-1,0.2-2.4-1.2-2.4C567.1,122.1,564.7,123,560.7,127.1z"/>
		</g>
		<g>
			<path class="st4" d="M258.9,109.9h-3.3c0-3-0.2-7.2-0.5-12.8c-0.4-5.6-0.6-9-0.6-10.1h-0.2c-1.2,4.3-2.6,9-4.4,14
				c-1.8,5-2.7,8-2.7,8.9h-2.4c0-0.9-0.8-3.9-2.5-9c-1.7-5.1-2.7-8.5-3.2-10.2c-0.4-1.7-0.7-2.9-0.9-3.7h-0.2c0,1.8-0.3,5.5-0.7,11
				c-0.4,5.5-0.6,9.5-0.6,11.9h-3c0-0.1,0.4-3.8,1.2-11c0.8-7.2,1.2-12.2,1.2-15h4.6c0,1.5,0.9,5.1,2.8,10.9
				c1.9,5.8,2.8,9.4,2.8,10.6h0.2c0-1.2,1.1-4.8,3.2-10.6c2.1-5.9,3.2-9.5,3.2-10.9h4.5c0,2.8,0.3,7.8,0.8,14.9
				C258.7,106,258.9,109.7,258.9,109.9z"/>
			<path class="st4" d="M283.2,96c0,3.8-1.1,7.1-3.2,9.9c-2.1,2.8-5,4.3-8.8,4.3c-1.2,0-3.2-0.1-6.1-0.3c0.2-4.1,0.3-8.6,0.3-13.6
				c0-4.7-0.1-8.8-0.3-12.3h1.9c0.5,0,1.2,0,2.1-0.1c1,0,1.6-0.1,1.9-0.1c4.1,0,7.2,1.2,9.1,3.5C282.2,89.6,283.2,92.5,283.2,96z
				 M280.1,96.9c0-2.9-0.8-5.4-2.5-7.4c-1.7-2-4.2-3-7.7-3c-0.5,0-1.2,0.1-2,0.2c0.1,3.1,0.1,6.3,0.1,9.5c0,3.6,0.1,7.2,0.2,10.9
				c0.9,0.2,1.8,0.3,2.7,0.3c3.1,0,5.4-1,6.9-3.1C279.4,102.3,280.1,99.8,280.1,96.9z"/>
			<path class="st4" d="M304,106.7l-0.2,3c-1.4,0.5-3,0.7-4.7,0.7c-4,0-7-1.3-9.1-3.8c-2-2.5-3-5.6-3-9.2c0-3.8,1.1-7,3.4-9.8
				c2.3-2.7,5.3-4.1,9.1-4.1c1.1,0,2.2,0.2,3.3,0.5l-0.5,3.2c-1.3-0.5-2.5-0.7-3.6-0.7c-2.8,0-5,1-6.4,3c-1.5,2-2.2,4.4-2.2,7.3
				c0,2.9,0.8,5.4,2.5,7.5c1.7,2.1,4,3.1,7,3.1C300.7,107.6,302.2,107.3,304,106.7z"/>
		</g>
	</g>
	<g>
		<g>
			<path class="st4" d="M34.9,132.9l-6-11.5v9.2c0,0.8,0.1,1.4,0.3,1.6c0.3,0.3,0.7,0.4,1.3,0.4h0.5v0.4h-5.4v-0.4h0.5
				c0.7,0,1.1-0.2,1.4-0.5c0.2-0.2,0.3-0.7,0.3-1.5v-8.9c0-0.6-0.1-1-0.2-1.3c-0.1-0.2-0.3-0.4-0.6-0.5c-0.3-0.1-0.7-0.2-1.4-0.2
				v-0.4h4.4l5.6,10.7l5.5-10.7h4.4v0.4H45c-0.7,0-1.1,0.2-1.4,0.5c-0.2,0.2-0.2,0.7-0.2,1.5v8.9c0,0.8,0.1,1.4,0.3,1.6
				c0.3,0.3,0.7,0.4,1.3,0.4h0.5v0.4H39v-0.4h0.5c0.7,0,1.1-0.2,1.4-0.5c0.2-0.2,0.2-0.7,0.2-1.5v-9.2l-6,11.5L34.9,132.9
				L34.9,132.9z"/>
			<path class="st4" d="M50.4,123.4v7.4c0,0.6,0,1,0.1,1.2c0.1,0.2,0.2,0.3,0.4,0.4c0.2,0.1,0.5,0.1,1,0.1v0.4h-5.1v-0.4
				c0.5,0,0.9,0,1-0.1c0.2-0.1,0.3-0.2,0.4-0.4c0.1-0.2,0.2-0.6,0.2-1.2v-3.6c0-1,0-1.7-0.1-1.9c-0.1-0.2-0.1-0.4-0.3-0.5
				s-0.3-0.1-0.5-0.1c-0.2,0-0.5,0.1-0.8,0.2l-0.2-0.4l3.1-1.1L50.4,123.4L50.4,123.4z M49.4,118.6c0.3,0,0.6,0.1,0.8,0.3
				c0.2,0.2,0.3,0.4,0.3,0.7s-0.1,0.5-0.3,0.7c-0.2,0.2-0.5,0.3-0.8,0.3c-0.3,0-0.6-0.1-0.8-0.3c-0.2-0.2-0.3-0.4-0.3-0.7
				s0.1-0.5,0.3-0.7C48.8,118.7,49.1,118.6,49.4,118.6z"/>
			<path class="st4" d="M59.2,131.6c-1.1,0.7-1.7,1.2-2,1.3c-0.4,0.2-0.8,0.3-1.3,0.3c-0.7,0-1.3-0.2-1.8-0.7s-0.7-1-0.7-1.7
				c0-0.5,0.1-0.8,0.3-1.2c0.3-0.5,0.9-0.9,1.6-1.3s2.1-0.9,3.8-1.5v-0.4c0-0.9-0.2-1.6-0.5-1.9c-0.3-0.3-0.8-0.5-1.4-0.5
				c-0.5,0-0.9,0.1-1.1,0.3c-0.3,0.2-0.4,0.5-0.4,0.8l0,0.6c0,0.3-0.1,0.5-0.3,0.7c-0.2,0.2-0.4,0.3-0.7,0.3c-0.3,0-0.5-0.1-0.7-0.3
				c-0.2-0.2-0.3-0.4-0.3-0.7c0-0.6,0.3-1.1,1-1.6c0.7-0.5,1.6-0.7,2.8-0.7c0.9,0,1.7,0.1,2.3,0.4c0.4,0.2,0.8,0.5,1,1
				c0.1,0.3,0.2,0.9,0.2,1.8v3.1c0,0.9,0,1.4,0.1,1.6c0,0.2,0.1,0.3,0.2,0.4c0.1,0.1,0.2,0.1,0.3,0.1c0.1,0,0.2,0,0.3-0.1
				c0.2-0.1,0.5-0.3,0.9-0.7v0.6c-0.8,1-1.7,1.5-2.4,1.5c-0.4,0-0.7-0.1-0.9-0.3C59.3,132.6,59.2,132.2,59.2,131.6z M59.2,131v-3.5
				c-1.1,0.4-1.9,0.7-2.2,0.9c-0.6,0.3-1,0.6-1.3,0.9c-0.3,0.3-0.4,0.7-0.4,1.1c0,0.5,0.2,0.9,0.5,1.2c0.3,0.3,0.7,0.5,1.1,0.5
				C57.5,132,58.2,131.6,59.2,131z"/>
			<path class="st4" d="M66.7,125.4c0.8-0.7,1.2-1.1,1.3-1.2c0.3-0.3,0.7-0.5,1.1-0.6c0.4-0.1,0.8-0.2,1.2-0.2
				c0.7,0,1.2,0.2,1.7,0.5c0.5,0.3,0.8,0.8,0.9,1.5c0.8-0.8,1.4-1.3,2-1.6c0.5-0.3,1.1-0.4,1.7-0.4c0.6,0,1,0.1,1.5,0.4
				c0.4,0.3,0.8,0.7,1,1.2c0.2,0.4,0.3,1,0.3,1.8v4c0,0.6,0,1,0.1,1.2c0.1,0.1,0.2,0.3,0.4,0.4c0.2,0.1,0.5,0.2,1,0.2v0.4h-5.1v-0.4
				H76c0.4,0,0.8-0.1,1-0.2c0.2-0.1,0.3-0.3,0.4-0.5c0-0.1,0-0.4,0-1v-4c0-0.8-0.1-1.3-0.3-1.6c-0.3-0.4-0.8-0.6-1.4-0.6
				c-0.4,0-0.8,0.1-1.2,0.3c-0.4,0.2-0.9,0.5-1.5,1l0,0.1l0,0.4v4.4c0,0.6,0,1,0.1,1.2c0.1,0.2,0.2,0.3,0.4,0.4
				c0.2,0.1,0.6,0.2,1.1,0.2v0.4h-5.3v-0.4c0.6,0,1-0.1,1.2-0.2c0.2-0.1,0.4-0.3,0.4-0.5c0-0.1,0.1-0.4,0.1-1v-4
				c0-0.8-0.1-1.3-0.4-1.6c-0.3-0.4-0.8-0.6-1.4-0.6c-0.4,0-0.8,0.1-1.2,0.3c-0.6,0.3-1.1,0.6-1.5,1v5c0,0.6,0,1,0.1,1.2
				c0.1,0.2,0.2,0.3,0.4,0.4c0.2,0.1,0.6,0.1,1.1,0.1v0.4h-5.2v-0.4c0.5,0,0.8,0,1-0.1c0.2-0.1,0.3-0.2,0.4-0.4
				c0.1-0.2,0.1-0.6,0.1-1.2v-3.5c0-1,0-1.7-0.1-2c-0.1-0.2-0.1-0.4-0.2-0.5c-0.1-0.1-0.3-0.1-0.5-0.1c-0.2,0-0.5,0.1-0.8,0.2
				l-0.2-0.4l3.1-1.1h0.5L66.7,125.4L66.7,125.4z"/>
			<path class="st4" d="M85.3,123.4v7.4c0,0.6,0,1,0.1,1.2s0.2,0.3,0.4,0.4c0.2,0.1,0.5,0.1,1,0.1v0.4h-5.1v-0.4c0.5,0,0.9,0,1-0.1
				c0.2-0.1,0.3-0.2,0.4-0.4c0.1-0.2,0.2-0.6,0.2-1.2v-3.6c0-1,0-1.7-0.1-1.9c-0.1-0.2-0.1-0.4-0.3-0.5c-0.1-0.1-0.3-0.1-0.5-0.1
				c-0.2,0-0.5,0.1-0.8,0.2l-0.2-0.4l3.1-1.1L85.3,123.4L85.3,123.4z M84.4,118.6c0.3,0,0.6,0.1,0.8,0.3c0.2,0.2,0.3,0.4,0.3,0.7
				s-0.1,0.5-0.3,0.7c-0.2,0.2-0.5,0.3-0.8,0.3c-0.3,0-0.6-0.1-0.8-0.3c-0.2-0.2-0.3-0.4-0.3-0.7s0.1-0.5,0.3-0.7
				C83.8,118.7,84.1,118.6,84.4,118.6z"/>
			<path class="st4" d="M93.7,132.9v-0.4h0.6c0.7,0,1.1-0.2,1.4-0.6c0.2-0.2,0.2-0.7,0.2-1.5v-8.8c0-0.9-0.1-1.4-0.3-1.6
				c-0.3-0.3-0.7-0.4-1.3-0.4h-0.6v-0.4h6.3c2.3,0,4.1,0.2,5.3,0.7c1.2,0.5,2.2,1.2,2.9,2.3c0.7,1.1,1.1,2.3,1.1,3.8
				c0,1.9-0.7,3.5-2,4.8c-1.5,1.4-3.7,2.1-6.7,2.1L93.7,132.9L93.7,132.9z M98.1,132c1,0.2,1.8,0.3,2.4,0.3c1.8,0,3.2-0.5,4.4-1.6
				c1.2-1.1,1.7-2.6,1.7-4.5c0-1.9-0.6-3.4-1.7-4.5c-1.2-1.1-2.7-1.6-4.5-1.6c-0.7,0-1.5,0.1-2.3,0.3L98.1,132L98.1,132z"/>
			<path class="st4" d="M116.8,131.6c-1.1,0.7-1.7,1.2-2,1.3c-0.4,0.2-0.8,0.3-1.3,0.3c-0.7,0-1.3-0.2-1.8-0.7
				c-0.5-0.4-0.7-1-0.7-1.7c0-0.5,0.1-0.8,0.3-1.2c0.3-0.5,0.9-0.9,1.6-1.3s2.1-0.9,3.8-1.5v-0.4c0-0.9-0.2-1.6-0.5-1.9
				c-0.3-0.3-0.8-0.5-1.4-0.5c-0.5,0-0.9,0.1-1.1,0.3c-0.3,0.2-0.4,0.5-0.4,0.8l0,0.6c0,0.3-0.1,0.5-0.3,0.7
				c-0.2,0.2-0.4,0.3-0.7,0.3c-0.3,0-0.5-0.1-0.7-0.3c-0.2-0.2-0.3-0.4-0.3-0.7c0-0.6,0.3-1.1,1-1.6c0.7-0.5,1.6-0.7,2.8-0.7
				c0.9,0,1.7,0.1,2.3,0.4c0.4,0.2,0.8,0.5,1,1c0.1,0.3,0.2,0.9,0.2,1.8v3.1c0,0.9,0,1.4,0.1,1.6c0,0.2,0.1,0.3,0.2,0.4
				c0.1,0.1,0.2,0.1,0.3,0.1c0.1,0,0.2,0,0.3-0.1c0.2-0.1,0.5-0.3,0.9-0.7v0.6c-0.8,1-1.7,1.5-2.4,1.5c-0.4,0-0.7-0.1-0.9-0.3
				C116.9,132.6,116.8,132.2,116.8,131.6z M116.8,131v-3.5c-1.1,0.4-1.9,0.7-2.2,0.9c-0.6,0.3-1,0.6-1.3,0.9
				c-0.3,0.3-0.4,0.7-0.4,1.1c0,0.5,0.2,0.9,0.5,1.2c0.3,0.3,0.7,0.5,1.1,0.5C115.1,132,115.8,131.6,116.8,131z"/>
			<path class="st4" d="M128.6,131.9c-0.5,0.5-1,0.8-1.5,1c-0.5,0.2-1,0.3-1.6,0.3c-1.1,0-2.1-0.4-3-1.3c-0.9-0.8-1.3-1.9-1.3-3.3
				c0-1.3,0.5-2.5,1.4-3.6c0.9-1.1,2.2-1.7,3.6-1.7c0.9,0,1.7,0.3,2.3,0.8v-1.7c0-1.1,0-1.7-0.1-1.9c-0.1-0.2-0.1-0.4-0.3-0.5
				c-0.1-0.1-0.3-0.1-0.5-0.1c-0.2,0-0.5,0.1-0.8,0.2l-0.1-0.4l3.1-1.1h0.5v10.7c0,1.1,0,1.7,0.1,2c0.1,0.2,0.1,0.4,0.3,0.5
				c0.1,0.1,0.3,0.1,0.4,0.1c0.2,0,0.5-0.1,0.8-0.2l0.1,0.4l-3.1,1.1h-0.5L128.6,131.9L128.6,131.9z M128.6,131.2v-4.8
				c0-0.5-0.2-0.9-0.4-1.3c-0.2-0.4-0.5-0.7-0.9-0.9c-0.4-0.2-0.7-0.3-1.1-0.3c-0.7,0-1.3,0.3-1.8,0.8c-0.7,0.7-1,1.7-1,3.1
				c0,1.4,0.3,2.4,1,3.1c0.7,0.7,1.4,1.1,2.2,1.1C127.3,132.1,127.9,131.8,128.6,131.2z"/>
			<path class="st4" d="M134.6,127.2c0,1.4,0.4,2.5,1.1,3.2c0.8,0.8,1.6,1.2,2.7,1.2c0.7,0,1.3-0.2,1.8-0.5c0.5-0.3,0.9-0.9,1.3-1.7
				l0.4,0.2c-0.2,0.9-0.6,1.8-1.4,2.5c-0.8,0.8-1.7,1.1-2.9,1.1c-1.3,0-2.3-0.4-3.2-1.3c-0.9-0.9-1.3-2-1.3-3.5
				c0-1.6,0.5-2.8,1.4-3.7c0.9-0.9,2.1-1.3,3.4-1.3c1.2,0,2.1,0.3,2.9,1c0.8,0.7,1.1,1.6,1.1,2.7L134.6,127.2L134.6,127.2z
				 M134.6,126.6h4.8c0-0.6-0.1-1-0.2-1.3c-0.2-0.4-0.5-0.7-0.8-0.9c-0.4-0.2-0.8-0.3-1.2-0.3c-0.6,0-1.2,0.2-1.7,0.7
				C135,125.2,134.7,125.8,134.6,126.6z"/>
			<path class="st4" d="M61.7,143.8l0.4,4.7h-0.4c-0.5-1.4-1.1-2.4-2-3c-0.9-0.6-1.9-0.9-3.1-0.9c-1,0-2,0.2-2.8,0.7
				c-0.8,0.5-1.5,1.2-2,2.2c-0.5,1-0.7,2.3-0.7,3.8c0,1.2,0.2,2.3,0.7,3.2c0.4,0.9,1.1,1.6,2,2.1c0.9,0.5,1.9,0.7,3.1,0.7
				c1,0,1.9-0.2,2.7-0.6c0.8-0.4,1.6-1.1,2.5-2.3l0.4,0.2c-0.8,1.2-1.7,2.1-2.7,2.7c-1,0.6-2.3,0.8-3.7,0.8c-2.6,0-4.5-0.8-5.9-2.5
				c-1-1.3-1.6-2.7-1.6-4.4c0-1.4,0.3-2.6,1-3.8c0.7-1.1,1.6-2,2.9-2.7c1.2-0.6,2.5-0.9,4-0.9c1.1,0,2.2,0.2,3.3,0.7
				c0.3,0.1,0.5,0.2,0.7,0.2c0.2,0,0.4-0.1,0.5-0.2c0.2-0.2,0.3-0.4,0.4-0.8L61.7,143.8L61.7,143.8z"/>
			<path class="st4" d="M69,148.2c1.6,0,2.8,0.5,3.8,1.6c0.8,0.9,1.2,2,1.2,3.1c0,0.8-0.2,1.7-0.7,2.5c-0.4,0.8-1.1,1.5-1.8,1.9
				c-0.8,0.4-1.7,0.6-2.6,0.6c-1.6,0-2.8-0.6-3.7-1.7c-0.8-0.9-1.2-2-1.2-3.2c0-0.8,0.2-1.7,0.7-2.5c0.5-0.8,1.1-1.5,1.9-1.9
				C67.3,148.4,68.2,148.2,69,148.2z M68.7,148.9c-0.4,0-0.8,0.1-1.2,0.3c-0.4,0.2-0.7,0.6-1,1.1c-0.3,0.5-0.4,1.2-0.4,2
				c0,1.3,0.3,2.5,0.9,3.5c0.6,1,1.4,1.5,2.4,1.5c0.7,0,1.3-0.3,1.8-0.8c0.5-0.5,0.7-1.5,0.7-2.8c0-1.6-0.4-2.9-1.2-3.9
				C70.2,149.2,69.5,148.9,68.7,148.9z"/>
			<path class="st4" d="M79.2,143.4v12.3c0,0.6,0,1,0.1,1.2c0.1,0.2,0.2,0.3,0.4,0.4c0.2,0.1,0.6,0.1,1.1,0.1v0.4h-5.1v-0.4
				c0.5,0,0.8,0,1-0.1c0.2-0.1,0.3-0.2,0.4-0.4c0.1-0.2,0.1-0.6,0.1-1.2v-8.4c0-1,0-1.7-0.1-1.9c-0.1-0.2-0.1-0.4-0.3-0.5
				c-0.1-0.1-0.3-0.1-0.5-0.1c-0.2,0-0.4,0.1-0.7,0.2l-0.2-0.4l3.1-1.1L79.2,143.4L79.2,143.4z"/>
			<path class="st4" d="M85.6,143.4v12.3c0,0.6,0,1,0.1,1.2c0.1,0.2,0.2,0.3,0.4,0.4c0.2,0.1,0.6,0.1,1.1,0.1v0.4h-5.1v-0.4
				c0.5,0,0.8,0,1-0.1c0.2-0.1,0.3-0.2,0.4-0.4c0.1-0.2,0.1-0.6,0.1-1.2v-8.4c0-1,0-1.7-0.1-1.9c-0.1-0.2-0.1-0.4-0.3-0.5
				c-0.1-0.1-0.3-0.1-0.5-0.1c-0.2,0-0.4,0.1-0.7,0.2l-0.2-0.4l3.1-1.1L85.6,143.4L85.6,143.4z"/>
			<path class="st4" d="M90.3,152c0,1.4,0.4,2.5,1.1,3.2c0.8,0.8,1.6,1.2,2.7,1.2c0.7,0,1.3-0.2,1.8-0.5c0.5-0.3,0.9-0.9,1.3-1.7
				l0.4,0.2c-0.2,0.9-0.6,1.8-1.4,2.5c-0.8,0.8-1.7,1.1-2.9,1.1c-1.3,0-2.3-0.4-3.2-1.3c-0.9-0.9-1.3-2-1.3-3.5
				c0-1.6,0.5-2.8,1.4-3.7c0.9-0.9,2.1-1.3,3.4-1.3c1.2,0,2.1,0.3,2.9,1c0.8,0.7,1.1,1.6,1.1,2.7L90.3,152L90.3,152z M90.3,151.4
				h4.8c0-0.6-0.1-1-0.2-1.3c-0.2-0.4-0.5-0.7-0.8-0.9c-0.4-0.2-0.8-0.3-1.2-0.3c-0.6,0-1.2,0.2-1.7,0.7
				C90.7,150,90.4,150.6,90.3,151.4z"/>
			<path class="st4" d="M101.7,154.4c-0.6-0.3-1.1-0.7-1.5-1.2c-0.3-0.5-0.5-1-0.5-1.6c0-0.9,0.4-1.7,1.2-2.4c0.8-0.7,1.8-1,3-1
				c1,0,1.9,0.2,2.6,0.6h2.2c0.3,0,0.5,0,0.6,0c0.1,0,0.1,0,0.1,0.1c0,0.1,0.1,0.2,0.1,0.3c0,0.2,0,0.3-0.1,0.4c0,0-0.1,0.1-0.1,0.1
				c-0.1,0-0.2,0-0.6,0h-1.4c0.4,0.5,0.6,1.1,0.6,1.9c0,0.9-0.4,1.6-1.1,2.2c-0.7,0.6-1.7,0.9-3,0.9c-0.5,0-1-0.1-1.6-0.2
				c-0.3,0.3-0.6,0.5-0.7,0.7c-0.1,0.2-0.2,0.4-0.2,0.5c0,0.1,0.1,0.2,0.2,0.3c0.1,0.1,0.4,0.2,0.7,0.2c0.2,0,0.7,0.1,1.6,0.1
				c1.6,0,2.6,0.1,3,0.1c0.7,0.1,1.3,0.3,1.7,0.7c0.4,0.4,0.6,0.8,0.6,1.4c0,0.8-0.4,1.5-1.2,2.1c-1.2,1-2.7,1.5-4.6,1.5
				c-1.5,0-2.7-0.3-3.7-0.9c-0.6-0.3-0.9-0.7-0.9-1.1c0-0.2,0-0.3,0.1-0.5c0.1-0.2,0.4-0.6,0.8-1c0.1-0.1,0.4-0.4,1.2-1.1
				c-0.4-0.2-0.7-0.4-0.8-0.6c-0.2-0.2-0.2-0.4-0.2-0.6c0-0.2,0.1-0.5,0.3-0.8C100.4,155.4,100.9,155,101.7,154.4z M101.6,157.8
				c-0.4,0.3-0.6,0.7-0.8,1c-0.2,0.3-0.3,0.6-0.3,0.8c0,0.3,0.2,0.6,0.7,0.8c0.8,0.4,1.9,0.6,3.3,0.6c1.4,0,2.4-0.2,3-0.6
				c0.6-0.4,1-0.9,1-1.4c0-0.4-0.2-0.6-0.6-0.7c-0.4-0.1-1.2-0.2-2.3-0.3C103.8,158,102.5,157.9,101.6,157.8z M103.6,148.7
				c-0.6,0-1,0.2-1.4,0.6c-0.4,0.4-0.6,1-0.6,1.8c0,1.1,0.3,1.9,0.8,2.5c0.4,0.4,0.9,0.7,1.5,0.7c0.6,0,1.1-0.2,1.4-0.6
				c0.4-0.4,0.6-1,0.6-1.8c0-1.1-0.3-1.9-0.8-2.5C104.8,149,104.3,148.7,103.6,148.7z"/>
			<path class="st4" d="M112.3,152c0,1.4,0.4,2.5,1.1,3.2c0.8,0.8,1.6,1.2,2.7,1.2c0.7,0,1.3-0.2,1.8-0.5c0.5-0.3,0.9-0.9,1.3-1.7
				l0.4,0.2c-0.2,0.9-0.6,1.8-1.4,2.5c-0.8,0.8-1.7,1.1-2.9,1.1c-1.3,0-2.3-0.4-3.2-1.3c-0.9-0.9-1.3-2-1.3-3.5
				c0-1.6,0.5-2.8,1.4-3.7c0.9-0.9,2.1-1.3,3.4-1.3c1.2,0,2.1,0.3,2.9,1c0.8,0.7,1.1,1.6,1.1,2.7L112.3,152L112.3,152z M112.3,151.4
				h4.8c0-0.6-0.1-1-0.2-1.3c-0.2-0.4-0.5-0.7-0.8-0.9c-0.4-0.2-0.8-0.3-1.2-0.3c-0.6,0-1.2,0.2-1.7,0.7
				C112.7,150,112.4,150.6,112.3,151.4z"/>
		</g>
		<path class="st4" d="M27,37.2v76.6h40.3l38.3-73.5v73.5c0,0,39.3-3.1,38.6-41.5s-39.3-35-39.3-35l-39.6-0.1l-0.7,73.6L27,37.2z"/>
	</g>
</g>
</svg>
