<?xml version="1.0" encoding="utf-8"?>
<!-- Generator: Adobe Illustrator 17.0.1, SVG Export Plug-In . SVG Version: 6.00 Build 0)  -->
<!DOCTYPE svg PUBLIC "-//W3C//DTD SVG 1.1//EN" "http://www.w3.org/Graphics/SVG/1.1/DTD/svg11.dtd">
<svg version="1.1" id="Layer_1" xmlns="http://www.w3.org/2000/svg" xmlns:xlink="http://www.w3.org/1999/xlink" x="0px" y="0px"
	 width="229.333px" height="160.667px" viewBox="0 0 229.333 160.667" enable-background="new 0 0 229.333 160.667"
	 xml:space="preserve">
<g>
	<g>
		<path opacity="0.6" fill="#FFFFFF" d="M178.178,120.878h-2.581c-0.206-0.732-0.495-1.43-0.862-2.086l1.82-1.816
			c0.4-0.401,0.4-1.045,0-1.444l-2.582-2.586c-0.4-0.396-1.042-0.396-1.44,0l-1.822,1.821c-0.651-0.362-1.352-0.648-2.08-0.862
			v-2.574c0-0.565-0.461-1.021-1.022-1.021h-3.654c-0.564,0-1.021,0.456-1.021,1.021v2.574c-0.728,0.214-1.436,0.5-2.086,0.862
			l-1.818-1.821c-0.401-0.396-1.043-0.396-1.444,0l-2.581,2.586c-0.401,0.399-0.401,1.042,0,1.444l1.818,1.818
			c-0.363,0.653-0.647,1.354-0.862,2.083h-2.572c-0.566,0-1.022,0.46-1.022,1.019v3.654c0,0.565,0.456,1.018,1.022,1.018h2.572
			c0.215,0.733,0.499,1.433,0.862,2.088l-1.818,1.818c-0.401,0.399-0.401,1.043,0,1.441l2.581,2.586c0.4,0.396,1.042,0.396,1.444,0
			l1.818-1.82c0.65,0.36,1.357,0.648,2.086,0.859v2.577c0,0.562,0.457,1.019,1.021,1.019h3.654c0.561,0,1.022-0.457,1.022-1.019
			v-2.577c0.728-0.21,1.43-0.499,2.08-0.859l1.822,1.82c0.398,0.396,1.04,0.396,1.44,0l2.582-2.586c0.4-0.398,0.4-1.042,0-1.441
			l-1.82-1.818c0.367-0.655,0.656-1.355,0.862-2.088h2.581c0.561,0,1.013-0.453,1.013-1.018v-3.654
			C179.191,121.338,178.739,120.878,178.178,120.878 M165.782,129.874c-3.391,0-6.149-2.758-6.149-6.149
			c0-3.391,2.758-6.149,6.149-6.149c3.391,0,6.145,2.758,6.145,6.149C171.927,127.116,169.173,129.874,165.782,129.874"/>
		<path opacity="0.6" fill="#FFFFFF" d="M102.601,45.583h-5.154c-0.422-1.462-0.999-2.86-1.72-4.169l3.633-3.637
			c0.802-0.798,0.802-2.088,0-2.884l-5.166-5.169c-0.793-0.795-2.082-0.795-2.878,0l-3.637,3.637
			c-1.311-0.722-2.711-1.297-4.171-1.72V26.49c0-1.127-0.923-2.04-2.042-2.04h-7.309c-1.124,0-2.042,0.913-2.042,2.04v5.151
			c-1.46,0.423-2.86,0.998-4.166,1.72l-3.642-3.637c-0.802-0.795-2.082-0.795-2.882,0l-5.168,5.169
			c-0.796,0.796-0.796,2.087,0,2.884l3.637,3.639c-0.719,1.306-1.293,2.706-1.715,4.166h-5.154c-1.124,0-2.046,0.918-2.046,2.043
			v7.309c0,1.122,0.922,2.035,2.046,2.035h5.154c0.422,1.465,0.995,2.866,1.72,4.174l-3.642,3.637c-0.796,0.798-0.796,2.086,0,2.883
			l5.168,5.173c0.8,0.793,2.08,0.793,2.882,0l3.642-3.64c1.306,0.719,2.706,1.294,4.166,1.717v5.152c0,1.13,0.918,2.039,2.042,2.039
			h7.309c1.119,0,2.042-0.909,2.042-2.039v-5.152c1.46-0.423,2.86-0.998,4.166-1.717l3.642,3.64c0.796,0.793,2.086,0.793,2.878,0
			l5.166-5.173c0.802-0.798,0.802-2.086,0-2.883l-3.637-3.637c0.724-1.308,1.302-2.709,1.723-4.174h5.154
			c1.124,0,2.037-0.913,2.037-2.035v-7.309C104.638,46.501,103.725,45.583,102.601,45.583 M77.811,63.577
			c-6.787,0-12.294-5.52-12.294-12.302c0-6.783,5.507-12.298,12.294-12.298c6.782,0,12.298,5.515,12.298,12.298
			C90.109,58.058,84.593,63.577,77.811,63.577"/>
		<path opacity="0.8" fill="#FFFFFF" d="M149.567,45.769H76.235c-1.183,0-2.143,0.959-2.143,2.143v43.992
			c0,1.18,0.96,2.14,2.143,2.14h29.349v3.495h-2.744c-0.965,0-1.746,0.783-1.746,1.749v1.311c0,0.966,0.781,1.749,1.746,1.749
			h20.124c0.965,0,1.747-0.783,1.747-1.749v-1.311c0-0.966-0.783-1.749-1.747-1.749h-2.746v-3.495h29.348
			c1.183,0,2.143-0.96,2.143-2.14V47.912C151.71,46.728,150.75,45.769,149.567,45.769z M146.312,90.426H79.607V49.528h66.705V90.426
			z"/>
		<path fill="#FFFFFF" d="M87.528,103.666c0,2.162-1.75,3.909-3.91,3.909c-2.16,0-3.91-1.747-3.91-3.909
			c0-2.159,1.75-3.91,3.91-3.91C85.778,99.756,87.528,101.507,87.528,103.666"/>
		<path fill="#FFFFFF" d="M90.526,120.277H76.709c0.619-6.735,3.477-11.832,6.907-11.832
			C87.049,108.445,89.906,113.541,90.526,120.277"/>
		<path fill="#FFFFFF" d="M89.014,107.907l-0.904-0.76c0.864-1.027,1.338-2.335,1.338-3.68c0-3.157-2.568-5.726-5.726-5.726
			c-3.159,0-5.73,2.569-5.73,5.726c0,1.207,0.372,2.362,1.074,3.338l-0.96,0.69c-0.847-1.179-1.295-2.572-1.295-4.028
			c0-3.809,3.1-6.909,6.911-6.909c3.809,0,6.906,3.1,6.906,6.909C90.629,105.093,90.058,106.666,89.014,107.907"/>
		<path fill="#FFFFFF" d="M88.768,106.065c-0.669,0.432-1.468,0.675-2.322,0.651c-0.955-0.024-1.873-0.386-2.587-1.022l0.46-0.52
			c0.594,0.524,1.355,0.827,2.149,0.847c0.758,0.02,1.465-0.211,2.041-0.622L88.768,106.065z"/>
		<path fill="#FFFFFF" d="M83.931,105.007c-0.224-0.053-0.453,0.086-0.504,0.309l-0.13,0.538c-0.056,0.225,0.084,0.451,0.308,0.504
			l2.181,0.525c0.222,0.054,0.452-0.085,0.505-0.31l0.13-0.536c0.054-0.225-0.086-0.452-0.309-0.506L83.931,105.007z"/>
		<path fill="#FFFFFF" d="M78.112,104.32c-0.177-0.282-0.482-0.453-0.817-0.453c-0.181,0-0.357,0.053-0.513,0.151l-0.66,0.414
			c-0.218,0.138-0.37,0.349-0.427,0.603c-0.056,0.251-0.014,0.508,0.125,0.728l1.683,2.678c0.177,0.282,0.481,0.452,0.817,0.452
			c0.182,0,0.36-0.053,0.514-0.149l0.657-0.415c0.219-0.137,0.371-0.349,0.429-0.598c0.056-0.253,0.014-0.513-0.125-0.729
			L78.112,104.32z"/>
		<path fill="#FFFFFF" d="M91.539,105.034c-0.058-0.253-0.209-0.465-0.427-0.603l-0.658-0.414c-0.439-0.276-1.059-0.133-1.331,0.303
			l-1.683,2.681c-0.138,0.217-0.182,0.476-0.125,0.726c0.057,0.252,0.21,0.465,0.427,0.601l0.661,0.418
			c0.153,0.094,0.33,0.147,0.512,0.147c0.336,0,0.641-0.17,0.817-0.452l1.685-2.678C91.553,105.542,91.598,105.285,91.539,105.034"
			/>
		<g>
			<path fill="#FFFFFF" d="M108.279,90.893H57.496c-0.95,0-1.718,0.772-1.718,1.723v31.67c0,0.953,0.769,1.727,1.718,1.727h50.782
				c0.953,0,1.726-0.774,1.726-1.727v-31.67C110.004,91.665,109.232,90.893,108.279,90.893z M58.12,100.471
				c0-0.338,0.27-0.61,0.607-0.61c0.337,0,0.61,0.272,0.61,0.61v3.547c0,0.337-0.273,0.607-0.61,0.607
				c-0.337,0-0.607-0.27-0.607-0.607V100.471z M59.337,116.437c0,0.333-0.273,0.607-0.61,0.607c-0.337,0-0.607-0.273-0.607-0.607
				v-3.551c0-0.337,0.27-0.61,0.607-0.61c0.337,0,0.61,0.273,0.61,0.61V116.437z M58.626,109.897c-0.842,0-1.521-0.681-1.521-1.521
				c0-0.841,0.679-1.519,1.521-1.519c0.837,0,1.521,0.679,1.521,1.519C60.146,109.216,59.463,109.897,58.626,109.897z
				 M105.827,121.966h-44.42V94.938h44.42V121.966z"/>
			<path fill="#FFFFFF" d="M167.803,91.253h-50.782c-0.951,0-1.726,0.77-1.726,1.725v31.669c0,0.953,0.775,1.726,1.726,1.726h50.782
				c0.95,0,1.721-0.772,1.721-1.726V92.978C169.524,92.023,168.752,91.253,167.803,91.253z M165.965,100.829
				c0-0.334,0.271-0.608,0.608-0.608c0.337,0,0.607,0.274,0.607,0.608v3.549c0,0.334-0.27,0.608-0.607,0.608
				c-0.337,0-0.608-0.273-0.608-0.608V100.829z M163.894,122.325h-44.423V95.299h44.423V122.325z M167.179,116.796
				c0,0.337-0.27,0.607-0.607,0.607c-0.337,0-0.608-0.27-0.608-0.607v-3.547c0-0.337,0.271-0.61,0.608-0.61
				c0.337,0,0.607,0.273,0.607,0.61V116.796z M166.675,110.41c-0.839,0-1.521-0.68-1.521-1.521c0-0.84,0.681-1.521,1.521-1.521
				c0.841,0,1.521,0.681,1.521,1.521C168.196,109.73,167.516,110.41,166.675,110.41z"/>
		</g>
		<path fill="#FFFFFF" d="M145.597,103.915c0,2.163-1.753,3.917-3.918,3.917c-2.162,0-3.914-1.754-3.914-3.917
			s1.753-3.918,3.914-3.918C143.844,99.998,145.597,101.753,145.597,103.915"/>
		<path fill="#FFFFFF" d="M148.6,120.55h-13.838c0.617-6.744,3.482-11.847,6.916-11.847
			C145.118,108.703,147.98,113.806,148.6,120.55"/>
		<path fill="#FFFFFF" d="M147.086,108.163l-0.905-0.762c0.865-1.028,1.34-2.338,1.34-3.685c0-3.163-2.573-5.736-5.737-5.736
			c-3.163,0-5.736,2.573-5.736,5.736c0,1.211,0.371,2.364,1.075,3.343l-0.964,0.691c-0.846-1.181-1.293-2.576-1.293-4.034
			c0-3.815,3.102-6.92,6.918-6.92c3.819,0,6.923,3.105,6.923,6.92C148.706,105.342,148.13,106.921,147.086,108.163"/>
		<path fill="#FFFFFF" d="M146.839,106.316c-0.669,0.434-1.469,0.679-2.325,0.655c-0.956-0.025-1.877-0.389-2.591-1.022l0.461-0.524
			c0.595,0.524,1.355,0.828,2.151,0.848c0.758,0.02,1.466-0.211,2.045-0.623L146.839,106.316z"/>
		<path fill="#FFFFFF" d="M141.995,105.258c-0.224-0.053-0.453,0.085-0.505,0.309l-0.132,0.538c-0.053,0.225,0.086,0.453,0.31,0.507
			l2.186,0.525c0.224,0.053,0.45-0.085,0.504-0.309l0.132-0.538c0.051-0.225-0.087-0.453-0.311-0.508L141.995,105.258z"/>
		<path fill="#FFFFFF" d="M136.167,104.57c-0.177-0.282-0.484-0.451-0.817-0.451c-0.182,0-0.361,0.051-0.514,0.148l-0.661,0.415
			c-0.218,0.136-0.371,0.352-0.429,0.603c-0.058,0.252-0.011,0.508,0.125,0.731l1.685,2.682c0.18,0.282,0.484,0.453,0.819,0.453
			c0.181,0,0.358-0.053,0.514-0.151l0.66-0.414c0.218-0.137,0.37-0.352,0.428-0.603c0.058-0.251,0.014-0.512-0.124-0.729
			L136.167,104.57z"/>
		<path fill="#FFFFFF" d="M149.615,105.286c-0.058-0.251-0.209-0.469-0.427-0.603l-0.662-0.415
			c-0.438-0.279-1.057-0.133-1.332,0.303l-1.684,2.683c-0.139,0.219-0.184,0.479-0.125,0.731c0.057,0.251,0.209,0.465,0.428,0.603
			l0.661,0.415c0.154,0.095,0.33,0.148,0.514,0.148c0.334,0,0.641-0.171,0.817-0.452l1.688-2.683
			C149.629,105.793,149.673,105.536,149.615,105.286"/>
		<path opacity="0.4" fill="#FFFFFF" d="M118.548,65.187c0,3.204-2.598,5.801-5.802,5.801s-5.801-2.597-5.801-5.801
			c0-3.204,2.597-5.802,5.801-5.802S118.548,61.984,118.548,65.187"/>
		<path opacity="0.4" fill="#FFFFFF" d="M122.998,89.83h-20.5c0.918-9.992,5.159-17.552,10.248-17.552
			C117.838,72.278,122.078,79.838,122.998,89.83"/>
		<path fill="#FFFFFF" d="M120.756,71.48l-1.344-1.127c1.28-1.525,1.984-3.465,1.984-5.461c0-4.685-3.81-8.494-8.497-8.494
			c-4.686,0-8.499,3.809-8.499,8.494c0,1.79,0.552,3.506,1.594,4.954l-1.425,1.024c-1.257-1.751-1.92-3.817-1.92-5.978
			c0-5.651,4.597-10.249,10.249-10.249c5.655,0,10.252,4.598,10.252,10.249C123.152,67.301,122.301,69.64,120.756,71.48"/>
		<path fill="#FFFFFF" d="M120.387,68.745c-0.989,0.644-2.175,1.003-3.444,0.967c-1.417-0.037-2.778-0.575-3.838-1.514l0.684-0.774
			c0.88,0.778,2.007,1.227,3.186,1.254c1.123,0.033,2.174-0.31,3.03-0.919L120.387,68.745z"/>
		<path fill="#FFFFFF" d="M113.213,67.179c-0.334-0.082-0.67,0.123-0.748,0.455l-0.192,0.799c-0.082,0.336,0.124,0.67,0.457,0.748
			l3.234,0.78c0.332,0.08,0.67-0.125,0.751-0.46l0.192-0.795c0.079-0.334-0.128-0.671-0.461-0.751L113.213,67.179z"/>
		<path fill="#FFFFFF" d="M106.959,65.5l1.413,0.241c0.23,0.718,0.898,1.231,1.689,1.231c0.791,0,1.461-0.525,1.692-1.255
			l0.035,0.037c0-0.013,0.45-0.621,1.01-0.633h0.011c0.317,0,0.634,0.208,0.938,0.609c0.217,0.717,0.886,1.242,1.689,1.242
			c0.815,0,1.484-0.548,1.704-1.29l1.409-0.439l-0.024-0.571l-1.326,0.379c-0.072-0.927-0.828-1.644-1.764-1.644
			c-0.864,0-1.58,0.608-1.753,1.423c-0.279-0.194-0.571-0.317-0.875-0.317h-0.011c-0.401,0.013-0.729,0.182-0.986,0.366
			c-0.144-0.841-0.875-1.473-1.751-1.473c-0.961,0-1.739,0.755-1.775,1.715l-1.327-0.218V65.5z"/>
		<path fill="#FFFFFF" d="M104.579,66.156c-0.263-0.417-0.714-0.669-1.212-0.669c-0.268,0-0.531,0.077-0.76,0.22l-0.979,0.615
			c-0.325,0.204-0.548,0.519-0.634,0.894c-0.085,0.372-0.019,0.755,0.185,1.08l2.498,3.975c0.262,0.418,0.715,0.669,1.211,0.669
			c0.27,0,0.532-0.075,0.762-0.22l0.978-0.614c0.323-0.203,0.548-0.519,0.636-0.891c0.085-0.374,0.02-0.756-0.185-1.08
			L104.579,66.156z"/>
		<path fill="#FFFFFF" d="M124.501,67.215c-0.085-0.372-0.312-0.689-0.634-0.891l-0.979-0.615c-0.651-0.41-1.568-0.199-1.973,0.448
			l-2.498,3.979c-0.203,0.323-0.268,0.705-0.182,1.078c0.085,0.375,0.309,0.689,0.632,0.893l0.981,0.617
			c0.228,0.143,0.49,0.219,0.76,0.219c0.494,0,0.948-0.252,1.209-0.669l2.5-3.976C124.52,67.973,124.587,67.59,124.501,67.215"/>
		<path fill="#FFFFFF" d="M114.12,73.652c0,0.757-0.615,1.371-1.371,1.371c-0.761,0-1.374-0.614-1.374-1.371
			c0-0.757,0.613-1.374,1.374-1.374C113.504,72.278,114.12,72.894,114.12,73.652"/>
		<polygon fill="#FFFFFF" points="112.406,74.415 111.13,76.444 112.929,82.02 114.587,76.444 113.258,74.415 		"/>
		<path fill="#FFFFFF" d="M142.721,78.779c0-3.134-3.071-5.673-6.858-5.673c-3.789,0-6.858,2.539-6.858,5.673
			c0,3.134,3.069,5.67,6.858,5.67c0.484,0,0.951-0.041,1.406-0.119c0.743,1.991,1.285,4.67,1.285,4.67l0.595-5.242
			C141.278,82.794,142.721,80.926,142.721,78.779"/>
		<path fill="#FFFFFF" d="M92.84,72.609c-4.036,0-7.305,2.301-7.305,5.136c0,0.974,0.393,1.882,1.062,2.657l-3.613,3.423
			l5.927-1.755c1.136,0.51,2.479,0.81,3.928,0.81c4.036,0,7.306-2.301,7.306-5.135C100.146,74.91,96.875,72.609,92.84,72.609"/>
		<path fill="#FFFFFF" d="M179.488,56.073c-9.817,0-17.769,5.597-17.769,12.493c0,2.372,0.956,4.578,2.586,6.463l-8.79,8.326
			l14.425-4.266c2.759,1.24,6.031,1.965,9.549,1.965c9.814,0,17.771-5.592,17.771-12.488S189.301,56.073,179.488,56.073z
			 M179.923,78.129c-0.303,0.329-0.729,0.493-1.292,0.493c-0.553,0-0.984-0.161-1.281-0.482c-0.295-0.317-0.446-0.758-0.446-1.331
			c0-1.188,0.576-1.78,1.727-1.78c0.569,0,1.003,0.156,1.299,0.463c0.3,0.312,0.447,0.75,0.447,1.317
			C180.378,77.363,180.226,77.805,179.923,78.129z M184.123,66.635c-0.17,0.458-0.433,0.898-0.781,1.314
			c-0.349,0.415-0.953,0.958-1.809,1.623c-0.729,0.572-1.218,1.05-1.465,1.426c-0.251,0.376-0.374,0.885-0.374,1.519v0.529h-2.307
			v-0.752c0-0.864,0.157-1.583,0.472-2.155c0.313-0.572,0.861-1.167,1.647-1.78c0.936-0.737,1.537-1.311,1.81-1.72
			c0.271-0.406,0.405-0.895,0.405-1.463c0-0.657-0.219-1.165-0.658-1.517c-0.442-0.353-1.073-0.532-1.896-0.532
			c-0.746,0-1.44,0.108-2.077,0.318c-0.634,0.214-1.256,0.47-1.859,0.77l-0.992-2.078c1.594-0.884,3.304-1.33,5.125-1.33
			c1.537,0,2.759,0.377,3.663,1.13c0.905,0.755,1.355,1.796,1.355,3.124C184.383,65.651,184.297,66.175,184.123,66.635z"/>
		<path fill="#FFFFFF" d="M60.385,80.374c1.63-1.887,2.586-4.093,2.586-6.464c0-6.896-7.952-12.493-17.769-12.493
			c-9.813,0-17.771,5.597-17.771,12.493s7.957,12.488,17.771,12.488c3.518,0,6.79-0.726,9.549-1.965L69.175,88.7L60.385,80.374z
			 M47.148,65.685l-0.596,11.921h-2.036l-0.612-11.921H47.148z M46.791,82.66c-0.299,0.323-0.724,0.485-1.27,0.485
			c-0.553,0-0.986-0.154-1.294-0.467c-0.31-0.313-0.463-0.758-0.463-1.335c0-0.58,0.153-1.021,0.456-1.319
			c0.306-0.3,0.74-0.45,1.302-0.45c0.555,0,0.981,0.156,1.279,0.469c0.295,0.312,0.443,0.745,0.443,1.3
			C47.243,81.896,47.091,82.336,46.791,82.66z"/>
	</g>
</g>
</svg>
