<?xml version="1.0" encoding="utf-8"?>
<!-- Generator: Adobe Illustrator 21.1.0, SVG Export Plug-In . SVG Version: 6.00 Build 0)  -->
<svg version="1.1" id="Layer_1" xmlns="http://www.w3.org/2000/svg" xmlns:xlink="http://www.w3.org/1999/xlink" x="0px" y="0px"
	 viewBox="0 0 550 130" style="enable-background:new 0 0 550 130;" xml:space="preserve">
<style type="text/css">
	.st0{fill:#29ABE2;}
	.st1{fill:#6ECEF5;}
	.st2{fill:#2486C1;}
	.st3{fill:#0033A0;}
	.st4{fill:#FFFFFF;}
</style>
<g>
	<g>
		<polygon class="st0" points="158.1,2.8 244.8,127.8 294.8,65.3 		"/>
		<polygon class="st1" points="158.1,2.8 245.1,2.8 294.8,65.3 		"/>
		<polygon class="st2" points="201.4,65.3 158.1,127.8 244.8,127.8 		"/>
		<polygon class="st3" points="192.3,78.5 244.8,127.8 201.4,65.3 		"/>
		<g>
			<path class="st4" d="M307.6,123.8c0.3,0.6-0.3,2.2-1,2.6c-2.4-0.2-5.5-0.3-9-0.3c-3.7,0-6.9,0.1-9.3,0.3
				c-0.7-0.4-0.2-2.2,0.6-2.6l2.6-0.3c1.8-0.2,3.1-1,3.6-1.7c0.4-0.5,1.2-2,2.6-6.4l4.4-13.9c0.8-2.4,0.7-2.7-1-2.7h-11.6
				c-2.4,0-2.7,0.1-5,3.2l-9.4,11.8c-4.3,5.7-5.6,7.2-5.7,7.8c-0.2,0.6,0,1.2,1.4,1.6l3.3,0.6c0.5,0.6-0.2,2.2-0.9,2.6
				c-2.4-0.2-4.9-0.3-8.1-0.3c-3.1,0-6.1,0.1-9,0.3c-0.2-0.6,0.2-2,0.9-2.6l2.3-0.3c2.5-0.3,4.7-1.9,7-4.3
				c3.3-3.7,10.2-12,19.5-23.3l21-25.7c5.1-6.2,6.9-8.9,7.7-10.7c2.9-0.5,6.6-3.4,6.8-3.4c0.4,0,0.9,0.4,0.7,0.8
				c-0.5,1.8-2.1,6.2-4.9,15.2L305,111.2c-3.6,11.5-3.5,11.6,0.7,12.2L307.6,123.8z M302.6,94.8c1.4,0,1.6-0.2,2.2-2.1l7.4-22.7
				c0.5-1.4,0.7-2.7,0.6-2.7c-0.2,0-0.9,0.6-4.4,5.1l-16.7,20.8c-1,1.2-0.8,1.6,1,1.6H302.6L302.6,94.8z"/>
			<path class="st4" d="M346.3,90c-1.1,4.1-4.4,4.9-5.2,4.9c-0.8,0-1.3-0.6-1.1-1.9c0.5-2.6,1.4-5.7-1.3-5.7c-1.8,0-4.8,2.2-8.6,6.9
				c-4,5.1-8.7,13.5-11.1,21.4c-1.5,5.2-0.3,6.7,1.7,6.7c2.7,0,6.3-2.7,10.4-6.3c0.8-0.1,1.1,0.7,0.6,1.8
				c-4.5,5.3-10.8,9.7-15.9,9.7c-3.1,0-5.2-3-3.1-11c1.8-6.7,8.1-18.5,17.4-26.7c4.4-3.9,8.4-6,12.1-6C346,83.9,347.2,86.8,346.3,90
				z"/>
			<path class="st4" d="M371.6,90c-1.1,4.1-4.4,4.9-5.2,4.9c-0.8,0-1.3-0.6-1.1-1.9c0.5-2.6,1.4-5.7-1.3-5.7c-1.8,0-4.8,2.2-8.6,6.9
				c-4,5.1-8.7,13.5-11.1,21.4c-1.5,5.2-0.3,6.7,1.7,6.7c2.7,0,6.3-2.7,10.4-6.3c0.8-0.1,1.1,0.7,0.6,1.8
				c-4.5,5.3-10.8,9.7-15.9,9.7c-3.1,0-5.2-3-3.1-11c1.8-6.7,8.1-18.5,17.4-26.7c4.4-3.9,8.4-6,12.1-6
				C371.3,83.9,372.4,86.8,371.6,90z"/>
			<path class="st4" d="M396.8,90.1c-2.1,7.9-11.4,13-24.1,17.2c-1,1.8-2.5,5.1-3.6,9.2c-0.9,3.5,0.1,5.9,2.3,5.9
				c2.9,0,5.5-2.1,10-6c0.7,0,1,0.8,0.6,1.8c-7,7.8-12,9.4-15.4,9.4c-4.8,0-5-5.8-3.6-10.9c1.7-6.5,8.3-19.1,19.4-27.8
				c5.3-4.1,8.6-5,11-5C396.6,83.9,397.5,87.4,396.8,90.1z M383.5,92.1c-4.3,4.3-7.4,9.1-9.2,12.1c5.9-2.1,8.9-4,12.8-7.7
				c3.3-3,4.8-6.1,5-7c0.3-1,0.2-2.4-1.2-2.4C389.8,87.1,387.4,88,383.5,92.1z"/>
		</g>
		<g>
			<path class="st4" d="M394.2,119.3c-1.3,2.4-1.5,3.4-0.6,3.4c1.8,0,6.9-5.1,12-10.5c0.8-0.1,1.2,0.4,0.9,1.4
				c-3.5,5.2-10.8,13.8-17.5,13.8c-2.4,0-2.7-1.4-2.3-3.1c0.4-1.7,1.3-3.5,4.1-8.8l25.9-49c3.9-7.2,3.3-8.3,2.3-9l-1.2-0.8
				c-0.3-0.4,0-1.3,0.4-1.7c1.6-0.7,7.2-2.7,11-3.1l0.2,0.6c-2,3.7-3.6,6.6-9.5,17.8L394.2,119.3z"/>
		</g>
		<g>
			<path class="st4" d="M443.2,90.1c-2.1,7.9-11.5,13-24.1,17.2c-1,1.8-2.5,5.1-3.6,9.2c-0.9,3.5,0.1,5.9,2.3,5.9
				c2.9,0,5.5-2.1,10-6c0.7,0,1,0.8,0.6,1.8c-7,7.8-12,9.4-15.4,9.4c-4.8,0-5-5.8-3.6-10.9c1.7-6.5,8.3-19.1,19.4-27.8
				c5.3-4.1,8.6-5,11-5C443,83.9,443.9,87.4,443.2,90.1z M429.9,92.1c-4.3,4.3-7.4,9.1-9.2,12.1c5.9-2.1,8.9-4,12.8-7.7
				c3.3-3,4.8-6.1,5-7c0.3-1,0.2-2.4-1.2-2.4C436.2,87.1,433.9,88,429.9,92.1z"/>
			<path class="st4" d="M454.9,93.7l-6.9,13h0.4c4-5.8,10.1-14.1,13.1-17.5c2.7-3.1,5.3-5.4,7.3-5.4c2.8,0,2.3,3.5,1.9,5.1
				s-1.9,4.6-3.4,6.2c-1.4,1.6-2.7,1.7-2.4-0.5c0.3-2.7,0.2-4-0.6-4c-0.7,0-1.9,1-3.6,3.1c-7.1,8.1-14.9,20.7-22.4,32.6
				c-0.5,0.8-1.1,1.2-1.7,1.2c-0.9,0-3.1-0.4-1.9-2.7c2.2-4.1,12.1-22.5,17-32.6c0.5-1.1,0.7-2.2-0.1-2.2c-2.1,0-5,2.9-7.1,5.4
				c-0.9,0.2-1.3-0.4-0.8-1.7c4.1-5.6,8.3-9.9,12.1-9.9C459.7,83.9,456.3,90.9,454.9,93.7z"/>
			<path class="st4" d="M498.9,81.5c1.6-0.8,3.4,0.2,3.5,1.6c-2.2,3.8-15.4,26.7-20.4,36.1c-1,1.8-0.7,2.4-0.1,2.4
				c1.4,0,4.2-1.8,10.1-6.9c0.6,0,1,0.5,0.8,1.3c-4.9,5.8-12.2,11.6-16.6,11.6c-1.8,0-1.8-2-1.6-2.8c0.2-0.7,0.6-1.7,1.9-4l5.1-9.3
				l-0.2-0.1c-8.1,9.1-18.3,16.2-22,16.2c-2.2,0-2.8-2.9-2-5.8c0.6-2.4,4.6-10.7,12.5-20.1c5.7-6.8,10.3-11,14.2-13.4
				c3.7-2.3,5.9-3,8-3c0.9,0,1.4,0.3,1.8,0.6c0.3,0.2,0.9,1.1,1,2.2L498.9,81.5z M481.7,93.3c-6.7,5.9-15.3,19.5-17.2,26.8
				c-0.3,1.2,0,2,0.7,2c0.8,0,3.6-1.3,9.6-6.7c8.1-7.3,13.8-16.2,16.8-22.4c0-2-0.9-3.7-3-3.7C486.6,89.3,485,90.4,481.7,93.3z"/>
			<path class="st4" d="M516.8,89.4l-15,28.2c-1,2-0.8,2.6-0.1,2.6c1.2,0,8-5.4,11.7-9.3c0.8,0,1.1,0.6,0.6,1.9
				c-6.8,8.6-16,14.9-19.4,14.9c-1.1,0-1.8-1.6-1.4-2.8c0.4-1.3,1.1-2.8,2.7-5.9l15.7-29.5h-6.3c0.1-1,0.7-2.5,1.7-2.9l6.8-1.4
				L521,75c1-0.6,2.5-0.4,2.9,0.6l-5,10.1h8.8c0.3,1-0.8,3.1-2,3.8L516.8,89.4L516.8,89.4z"/>
			<path class="st4" d="M549.1,90.1c-2.1,7.9-11.5,13-24.1,17.2c-1,1.8-2.5,5.1-3.6,9.2c-0.9,3.5,0.1,5.9,2.3,5.9
				c2.9,0,5.5-2.1,10-6c0.7,0,1,0.8,0.6,1.8c-7,7.8-12,9.4-15.4,9.4c-4.8,0-5-5.8-3.6-10.9c1.7-6.5,8.3-19.1,19.4-27.8
				c5.3-4.1,8.6-5,11-5C548.9,83.9,549.8,87.4,549.1,90.1z M535.7,92.1c-4.3,4.3-7.4,9.1-9.2,12.1c5.9-2.1,8.9-4,12.8-7.7
				c3.3-3,4.8-6.1,5-7c0.3-1,0.2-2.4-1.2-2.4C542.1,87.1,539.7,88,535.7,92.1z"/>
		</g>
		<g>
			<path class="st4" d="M233.9,74.9h-3.3c0-3-0.2-7.2-0.5-12.8c-0.4-5.6-0.6-9-0.6-10.1h-0.2c-1.2,4.3-2.6,9-4.4,14
				c-1.8,5-2.7,8-2.7,8.9h-2.4c0-0.9-0.8-3.9-2.5-9s-2.7-8.5-3.2-10.2c-0.4-1.7-0.7-2.9-0.9-3.7H213c0,1.8-0.3,5.5-0.7,11
				s-0.6,9.5-0.6,11.9h-3c0-0.1,0.4-3.8,1.2-11s1.2-12.2,1.2-15h4.6c0,1.5,0.9,5.1,2.8,10.9c1.9,5.8,2.8,9.4,2.8,10.6h0.2
				c0-1.2,1.1-4.8,3.2-10.6c2.1-5.9,3.2-9.5,3.2-10.9h4.5c0,2.8,0.3,7.8,0.8,14.9C233.7,71,233.9,74.7,233.9,74.9z"/>
			<path class="st4" d="M258.2,61c0,3.8-1.1,7.1-3.2,9.9c-2.1,2.8-5,4.3-8.8,4.3c-1.2,0-3.2-0.1-6.1-0.3c0.2-4.1,0.3-8.6,0.3-13.6
				c0-4.7-0.1-8.8-0.3-12.3h1.9c0.5,0,1.2,0,2.1-0.1c1,0,1.6-0.1,1.9-0.1c4.1,0,7.2,1.2,9.1,3.5C257.2,54.6,258.2,57.5,258.2,61z
				 M255.1,61.9c0-2.9-0.8-5.4-2.5-7.4s-4.2-3-7.7-3c-0.5,0-1.2,0.1-2,0.2c0.1,3.1,0.1,6.3,0.1,9.5c0,3.6,0.1,7.2,0.2,10.9
				c0.9,0.2,1.8,0.3,2.7,0.3c3.1,0,5.4-1,6.9-3.1C254.4,67.3,255.1,64.8,255.1,61.9z"/>
			<path class="st4" d="M279,71.7l-0.2,3c-1.4,0.5-3,0.7-4.7,0.7c-4,0-7-1.3-9.1-3.8c-2-2.5-3-5.6-3-9.2c0-3.8,1.1-7,3.4-9.8
				c2.3-2.7,5.3-4.1,9.1-4.1c1.1,0,2.2,0.2,3.3,0.5l-0.5,3.2c-1.3-0.5-2.5-0.7-3.6-0.7c-2.8,0-5,1-6.4,3c-1.5,2-2.2,4.4-2.2,7.3
				s0.8,5.4,2.5,7.5s4,3.1,7,3.1C275.7,72.6,277.2,72.3,279,71.7z"/>
		</g>
	</g>
	<g>
		<g>
			<path class="st4" d="M9.9,97.8l-6-11.5v9.2c0,0.8,0.1,1.4,0.3,1.6c0.3,0.3,0.7,0.4,1.3,0.4H6v0.4H0.6v-0.4h0.5
				c0.7,0,1.1-0.2,1.4-0.5c0.2-0.2,0.3-0.7,0.3-1.5v-8.9c0-0.6-0.1-1-0.2-1.3c-0.1-0.2-0.3-0.4-0.6-0.5c-0.3-0.1-0.7-0.2-1.4-0.2
				v-0.4H5l5.6,10.7l5.5-10.7h4.4v0.4H20c-0.7,0-1.1,0.2-1.4,0.5c-0.2,0.2-0.2,0.7-0.2,1.5v8.9c0,0.8,0.1,1.4,0.3,1.6
				c0.3,0.3,0.7,0.4,1.3,0.4h0.5v0.4H14v-0.4h0.5c0.7,0,1.1-0.2,1.4-0.5c0.2-0.2,0.2-0.7,0.2-1.5v-9.2l-6,11.5H9.9L9.9,97.8z"/>
			<path class="st4" d="M25.4,88.4v7.4c0,0.6,0,1,0.1,1.2s0.2,0.3,0.4,0.4c0.2,0.1,0.5,0.1,1,0.1v0.4h-5.1v-0.4c0.5,0,0.9,0,1-0.1
				c0.2-0.1,0.3-0.2,0.4-0.4c0.1-0.2,0.2-0.6,0.2-1.2v-3.6c0-1,0-1.7-0.1-1.9c-0.1-0.2-0.1-0.4-0.3-0.5s-0.3-0.1-0.5-0.1
				s-0.5,0.1-0.8,0.2l-0.2-0.4l3.1-1.1H25.4L25.4,88.4z M24.4,83.6c0.3,0,0.6,0.1,0.8,0.3c0.2,0.2,0.3,0.4,0.3,0.7s-0.1,0.5-0.3,0.7
				s-0.5,0.3-0.8,0.3s-0.6-0.1-0.8-0.3c-0.2-0.2-0.3-0.4-0.3-0.7s0.1-0.5,0.3-0.7C23.8,83.7,24.1,83.6,24.4,83.6z"/>
			<path class="st4" d="M34.2,96.6c-1.1,0.7-1.7,1.2-2,1.3c-0.4,0.2-0.8,0.3-1.3,0.3c-0.7,0-1.3-0.2-1.8-0.7s-0.7-1-0.7-1.7
				c0-0.5,0.1-0.8,0.3-1.2c0.3-0.5,0.9-0.9,1.6-1.3s2.1-0.9,3.8-1.5v-0.4c0-0.9-0.2-1.6-0.5-1.9S32.8,89,32.2,89
				c-0.5,0-0.9,0.1-1.1,0.3c-0.3,0.2-0.4,0.5-0.4,0.8v0.6c0,0.3-0.1,0.5-0.3,0.7s-0.4,0.3-0.7,0.3s-0.5-0.1-0.7-0.3
				c-0.2-0.2-0.3-0.4-0.3-0.7c0-0.6,0.3-1.1,1-1.6s1.6-0.7,2.8-0.7c0.9,0,1.7,0.1,2.3,0.4c0.4,0.2,0.8,0.5,1,1
				c0.1,0.3,0.2,0.9,0.2,1.8v3.1c0,0.9,0,1.4,0.1,1.6c0,0.2,0.1,0.3,0.2,0.4c0.1,0.1,0.2,0.1,0.3,0.1s0.2,0,0.3-0.1
				c0.2-0.1,0.5-0.3,0.9-0.7v0.6c-0.8,1-1.7,1.5-2.4,1.5c-0.4,0-0.7-0.1-0.9-0.3C34.3,97.6,34.2,97.2,34.2,96.6z M34.2,96v-3.5
				c-1.1,0.4-1.9,0.7-2.2,0.9c-0.6,0.3-1,0.6-1.3,0.9c-0.3,0.3-0.4,0.7-0.4,1.1c0,0.5,0.2,0.9,0.5,1.2s0.7,0.5,1.1,0.5
				C32.5,97,33.2,96.6,34.2,96z"/>
			<path class="st4" d="M41.7,90.4c0.8-0.7,1.2-1.1,1.3-1.2c0.3-0.3,0.7-0.5,1.1-0.6s0.8-0.2,1.2-0.2c0.7,0,1.2,0.2,1.7,0.5
				s0.8,0.8,0.9,1.5c0.8-0.8,1.4-1.3,2-1.6c0.5-0.3,1.1-0.4,1.7-0.4s1,0.1,1.5,0.4c0.4,0.3,0.8,0.7,1,1.2c0.2,0.4,0.3,1,0.3,1.8v4
				c0,0.6,0,1,0.1,1.2c0.1,0.1,0.2,0.3,0.4,0.4c0.2,0.1,0.5,0.2,1,0.2V98h-5.1v-0.4H51c0.4,0,0.8-0.1,1-0.2c0.2-0.1,0.3-0.3,0.4-0.5
				c0-0.1,0-0.4,0-1v-4c0-0.8-0.1-1.3-0.3-1.6c-0.3-0.4-0.8-0.6-1.4-0.6c-0.4,0-0.8,0.1-1.2,0.3c-0.4,0.2-0.9,0.5-1.5,1v0.1v0.4v4.4
				c0,0.6,0,1,0.1,1.2s0.2,0.3,0.4,0.4c0.2,0.1,0.6,0.2,1.1,0.2V98h-5.3v-0.4c0.6,0,1-0.1,1.2-0.2c0.2-0.1,0.4-0.3,0.4-0.5
				c0-0.1,0.1-0.4,0.1-1v-4c0-0.8-0.1-1.3-0.4-1.6c-0.3-0.4-0.8-0.6-1.4-0.6c-0.4,0-0.8,0.1-1.2,0.3c-0.6,0.3-1.1,0.6-1.5,1v5
				c0,0.6,0,1,0.1,1.2s0.2,0.3,0.4,0.4c0.2,0.1,0.6,0.1,1.1,0.1v0.4h-5.2v-0.4c0.5,0,0.8,0,1-0.1s0.3-0.2,0.4-0.4s0.1-0.6,0.1-1.2
				v-3.5c0-1,0-1.7-0.1-2c-0.1-0.2-0.1-0.4-0.2-0.5S38.8,90,38.6,90s-0.5,0.1-0.8,0.2l-0.2-0.4l3.1-1.1h0.5L41.7,90.4L41.7,90.4z"/>
			<path class="st4" d="M60.3,88.4v7.4c0,0.6,0,1,0.1,1.2s0.2,0.3,0.4,0.4c0.2,0.1,0.5,0.1,1,0.1v0.4h-5.1v-0.4c0.5,0,0.9,0,1-0.1
				c0.2-0.1,0.3-0.2,0.4-0.4s0.2-0.6,0.2-1.2v-3.6c0-1,0-1.7-0.1-1.9c-0.1-0.2-0.1-0.4-0.3-0.5c-0.1-0.1-0.3-0.1-0.5-0.1
				s-0.5,0.1-0.8,0.2l-0.2-0.4l3.1-1.1H60.3L60.3,88.4z M59.4,83.6c0.3,0,0.6,0.1,0.8,0.3c0.2,0.2,0.3,0.4,0.3,0.7s-0.1,0.5-0.3,0.7
				c-0.2,0.2-0.5,0.3-0.8,0.3s-0.6-0.1-0.8-0.3c-0.2-0.2-0.3-0.4-0.3-0.7s0.1-0.5,0.3-0.7C58.8,83.7,59.1,83.6,59.4,83.6z"/>
			<path class="st4" d="M68.7,97.8v-0.4h0.6c0.7,0,1.1-0.2,1.4-0.6c0.2-0.2,0.2-0.7,0.2-1.5v-8.8c0-0.9-0.1-1.4-0.3-1.6
				c-0.3-0.3-0.7-0.4-1.3-0.4h-0.6v-0.4H75c2.3,0,4.1,0.2,5.3,0.7c1.2,0.5,2.2,1.2,2.9,2.3c0.7,1.1,1.1,2.3,1.1,3.8
				c0,1.9-0.7,3.5-2,4.8c-1.5,1.4-3.7,2.1-6.7,2.1H68.7L68.7,97.8z M73.1,97c1,0.2,1.8,0.3,2.4,0.3c1.8,0,3.2-0.5,4.4-1.6
				c1.2-1.1,1.7-2.6,1.7-4.5c0-1.9-0.6-3.4-1.7-4.5c-1.2-1.1-2.7-1.6-4.5-1.6c-0.7,0-1.5,0.1-2.3,0.3V97L73.1,97z"/>
			<path class="st4" d="M91.8,96.6c-1.1,0.7-1.7,1.2-2,1.3c-0.4,0.2-0.8,0.3-1.3,0.3c-0.7,0-1.3-0.2-1.8-0.7c-0.5-0.4-0.7-1-0.7-1.7
				c0-0.5,0.1-0.8,0.3-1.2c0.3-0.5,0.9-0.9,1.6-1.3s2.1-0.9,3.8-1.5v-0.4c0-0.9-0.2-1.6-0.5-1.9S90.4,89,89.8,89
				c-0.5,0-0.9,0.1-1.1,0.3c-0.3,0.2-0.4,0.5-0.4,0.8v0.6c0,0.3-0.1,0.5-0.3,0.7c-0.2,0.2-0.4,0.3-0.7,0.3c-0.3,0-0.5-0.1-0.7-0.3
				c-0.2-0.2-0.3-0.4-0.3-0.7c0-0.6,0.3-1.1,1-1.6s1.6-0.7,2.8-0.7c0.9,0,1.7,0.1,2.3,0.4c0.4,0.2,0.8,0.5,1,1
				c0.1,0.3,0.2,0.9,0.2,1.8v3.1c0,0.9,0,1.4,0.1,1.6c0,0.2,0.1,0.3,0.2,0.4c0.1,0.1,0.2,0.1,0.3,0.1c0.1,0,0.2,0,0.3-0.1
				c0.2-0.1,0.5-0.3,0.9-0.7v0.6c-0.8,1-1.7,1.5-2.4,1.5c-0.4,0-0.7-0.1-0.9-0.3C91.9,97.6,91.8,97.2,91.8,96.6z M91.8,96v-3.5
				c-1.1,0.4-1.9,0.7-2.2,0.9c-0.6,0.3-1,0.6-1.3,0.9c-0.3,0.3-0.4,0.7-0.4,1.1c0,0.5,0.2,0.9,0.5,1.2s0.7,0.5,1.1,0.5
				C90.1,97,90.8,96.6,91.8,96z"/>
			<path class="st4" d="M103.6,96.8c-0.5,0.5-1,0.8-1.5,1s-1,0.3-1.6,0.3c-1.1,0-2.1-0.4-3-1.3c-0.9-0.8-1.3-1.9-1.3-3.3
				c0-1.3,0.5-2.5,1.4-3.6s2.2-1.7,3.6-1.7c0.9,0,1.7,0.3,2.3,0.8v-1.7c0-1.1,0-1.7-0.1-1.9c-0.1-0.2-0.1-0.4-0.3-0.5
				c-0.1-0.1-0.3-0.1-0.5-0.1s-0.5,0.1-0.8,0.2l-0.1-0.4l3.1-1.1h0.5v10.7c0,1.1,0,1.7,0.1,2c0.1,0.2,0.1,0.4,0.3,0.5
				c0.1,0.1,0.3,0.1,0.4,0.1c0.2,0,0.5-0.1,0.8-0.2l0.1,0.4l-3.1,1.1h-0.5L103.6,96.8L103.6,96.8z M103.6,96.2v-4.8
				c0-0.5-0.2-0.9-0.4-1.3s-0.5-0.7-0.9-0.9c-0.4-0.2-0.7-0.3-1.1-0.3c-0.7,0-1.3,0.3-1.8,0.8c-0.7,0.7-1,1.7-1,3.1
				c0,1.4,0.3,2.4,1,3.1c0.7,0.7,1.4,1.1,2.2,1.1C102.3,97.1,102.9,96.8,103.6,96.2z"/>
			<path class="st4" d="M109.6,92.2c0,1.4,0.4,2.5,1.1,3.2c0.8,0.8,1.6,1.2,2.7,1.2c0.7,0,1.3-0.2,1.8-0.5s0.9-0.9,1.3-1.7l0.4,0.2
				c-0.2,0.9-0.6,1.8-1.4,2.5c-0.8,0.8-1.7,1.1-2.9,1.1c-1.3,0-2.3-0.4-3.2-1.3c-0.9-0.9-1.3-2-1.3-3.5c0-1.6,0.5-2.8,1.4-3.7
				c0.9-0.9,2.1-1.3,3.4-1.3c1.2,0,2.1,0.3,2.9,1c0.8,0.7,1.1,1.6,1.1,2.7L109.6,92.2L109.6,92.2z M109.6,91.6h4.8
				c0-0.6-0.1-1-0.2-1.3c-0.2-0.4-0.5-0.7-0.8-0.9c-0.4-0.2-0.8-0.3-1.2-0.3c-0.6,0-1.2,0.2-1.7,0.7C110,90.2,109.7,90.8,109.6,91.6
				z"/>
			<path class="st4" d="M36.7,108.8l0.4,4.7h-0.4c-0.5-1.4-1.1-2.4-2-3s-1.9-0.9-3.1-0.9c-1,0-2,0.2-2.8,0.7s-1.5,1.2-2,2.2
				s-0.7,2.3-0.7,3.8c0,1.2,0.2,2.3,0.7,3.2c0.4,0.9,1.1,1.6,2,2.1s1.9,0.7,3.1,0.7c1,0,1.9-0.2,2.7-0.6c0.8-0.4,1.6-1.1,2.5-2.3
				l0.4,0.2c-0.8,1.2-1.7,2.1-2.7,2.7c-1,0.6-2.3,0.8-3.7,0.8c-2.6,0-4.5-0.8-5.9-2.5c-1-1.3-1.6-2.7-1.6-4.4c0-1.4,0.3-2.6,1-3.8
				c0.7-1.1,1.6-2,2.9-2.7c1.2-0.6,2.5-0.9,4-0.9c1.1,0,2.2,0.2,3.3,0.7c0.3,0.1,0.5,0.2,0.7,0.2s0.4-0.1,0.5-0.2
				c0.2-0.2,0.3-0.4,0.4-0.8L36.7,108.8L36.7,108.8z"/>
			<path class="st4" d="M44,113.2c1.6,0,2.8,0.5,3.8,1.6c0.8,0.9,1.2,2,1.2,3.1c0,0.8-0.2,1.7-0.7,2.5c-0.4,0.8-1.1,1.5-1.8,1.9
				c-0.8,0.4-1.7,0.6-2.6,0.6c-1.6,0-2.8-0.6-3.7-1.7c-0.8-0.9-1.2-2-1.2-3.2c0-0.8,0.2-1.7,0.7-2.5s1.1-1.5,1.9-1.9
				C42.3,113.3,43.2,113.2,44,113.2z M43.7,113.8c-0.4,0-0.8,0.1-1.2,0.3c-0.4,0.2-0.7,0.6-1,1.1s-0.4,1.2-0.4,2
				c0,1.3,0.3,2.5,0.9,3.5s1.4,1.5,2.4,1.5c0.7,0,1.3-0.3,1.8-0.8s0.7-1.5,0.7-2.8c0-1.6-0.4-2.9-1.2-3.9
				C45.2,114.2,44.5,113.8,43.7,113.8z"/>
			<path class="st4" d="M54.2,108.3v12.3c0,0.6,0,1,0.1,1.2s0.2,0.3,0.4,0.4c0.2,0.1,0.6,0.1,1.1,0.1v0.4h-5.1v-0.4
				c0.5,0,0.8,0,1-0.1s0.3-0.2,0.4-0.4s0.1-0.6,0.1-1.2v-8.4c0-1,0-1.7-0.1-1.9s-0.1-0.4-0.3-0.5c-0.1-0.1-0.3-0.1-0.5-0.1
				s-0.4,0.1-0.7,0.2l-0.2-0.4l3.1-1.1L54.2,108.3L54.2,108.3z"/>
			<path class="st4" d="M60.6,108.3v12.3c0,0.6,0,1,0.1,1.2s0.2,0.3,0.4,0.4c0.2,0.1,0.6,0.1,1.1,0.1v0.4h-5.1v-0.4
				c0.5,0,0.8,0,1-0.1s0.3-0.2,0.4-0.4s0.1-0.6,0.1-1.2v-8.4c0-1,0-1.7-0.1-1.9s-0.1-0.4-0.3-0.5c-0.1-0.1-0.3-0.1-0.5-0.1
				s-0.4,0.1-0.7,0.2l-0.2-0.4l3.1-1.1L60.6,108.3L60.6,108.3z"/>
			<path class="st4" d="M65.3,117c0,1.4,0.4,2.5,1.1,3.2c0.8,0.8,1.6,1.2,2.7,1.2c0.7,0,1.3-0.2,1.8-0.5s0.9-0.9,1.3-1.7l0.4,0.2
				c-0.2,0.9-0.6,1.8-1.4,2.5c-0.8,0.8-1.7,1.1-2.9,1.1c-1.3,0-2.3-0.4-3.2-1.3c-0.9-0.9-1.3-2-1.3-3.5c0-1.6,0.5-2.8,1.4-3.7
				s2.1-1.3,3.4-1.3c1.2,0,2.1,0.3,2.9,1s1.1,1.6,1.1,2.7L65.3,117L65.3,117z M65.3,116.3h4.8c0-0.6-0.1-1-0.2-1.3
				c-0.2-0.4-0.5-0.7-0.8-0.9c-0.4-0.2-0.8-0.3-1.2-0.3c-0.6,0-1.2,0.2-1.7,0.7C65.7,115,65.4,115.6,65.3,116.3z"/>
			<path class="st4" d="M76.7,119.3c-0.6-0.3-1.1-0.7-1.5-1.2c-0.3-0.5-0.5-1-0.5-1.6c0-0.9,0.4-1.7,1.2-2.4c0.8-0.7,1.8-1,3-1
				c1,0,1.9,0.2,2.6,0.6h2.2c0.3,0,0.5,0,0.6,0s0.1,0,0.1,0.1s0.1,0.2,0.1,0.3c0,0.2,0,0.3-0.1,0.4l-0.1,0.1c-0.1,0-0.2,0-0.6,0
				h-1.4c0.4,0.5,0.6,1.1,0.6,1.9c0,0.9-0.4,1.6-1.1,2.2c-0.7,0.6-1.7,0.9-3,0.9c-0.5,0-1-0.1-1.6-0.2c-0.3,0.3-0.6,0.5-0.7,0.7
				s-0.2,0.4-0.2,0.5s0.1,0.2,0.2,0.3s0.4,0.2,0.7,0.2c0.2,0,0.7,0.1,1.6,0.1c1.6,0,2.6,0.1,3,0.1c0.7,0.1,1.3,0.3,1.7,0.7
				c0.4,0.4,0.6,0.8,0.6,1.4c0,0.8-0.4,1.5-1.2,2.1c-1.2,1-2.7,1.5-4.6,1.5c-1.5,0-2.7-0.3-3.7-0.9c-0.6-0.3-0.9-0.7-0.9-1.1
				c0-0.2,0-0.3,0.1-0.5s0.4-0.6,0.8-1c0.1-0.1,0.4-0.4,1.2-1.1c-0.4-0.2-0.7-0.4-0.8-0.6c-0.2-0.2-0.2-0.4-0.2-0.6
				c0-0.2,0.1-0.5,0.3-0.8C75.4,120.3,75.9,120,76.7,119.3z M76.6,122.8c-0.4,0.3-0.6,0.7-0.8,1c-0.2,0.3-0.3,0.6-0.3,0.8
				c0,0.3,0.2,0.6,0.7,0.8c0.8,0.4,1.9,0.6,3.3,0.6s2.4-0.2,3-0.6c0.6-0.4,1-0.9,1-1.4c0-0.4-0.2-0.6-0.6-0.7
				c-0.4-0.1-1.2-0.2-2.3-0.3C78.8,123,77.5,122.8,76.6,122.8z M78.6,113.7c-0.6,0-1,0.2-1.4,0.6c-0.4,0.4-0.6,1-0.6,1.8
				c0,1.1,0.3,1.9,0.8,2.5c0.4,0.4,0.9,0.7,1.5,0.7s1.1-0.2,1.4-0.6c0.4-0.4,0.6-1,0.6-1.8c0-1.1-0.3-1.9-0.8-2.5
				C79.8,114,79.3,113.7,78.6,113.7z"/>
			<path class="st4" d="M87.3,117c0,1.4,0.4,2.5,1.1,3.2c0.8,0.8,1.6,1.2,2.7,1.2c0.7,0,1.3-0.2,1.8-0.5s0.9-0.9,1.3-1.7l0.4,0.2
				c-0.2,0.9-0.6,1.8-1.4,2.5c-0.8,0.8-1.7,1.1-2.9,1.1c-1.3,0-2.3-0.4-3.2-1.3c-0.9-0.9-1.3-2-1.3-3.5c0-1.6,0.5-2.8,1.4-3.7
				s2.1-1.3,3.4-1.3c1.2,0,2.1,0.3,2.9,1s1.1,1.6,1.1,2.7L87.3,117L87.3,117z M87.3,116.3h4.8c0-0.6-0.1-1-0.2-1.3
				c-0.2-0.4-0.5-0.7-0.8-0.9c-0.4-0.2-0.8-0.3-1.2-0.3c-0.6,0-1.2,0.2-1.7,0.7C87.7,115,87.4,115.6,87.3,116.3z"/>
		</g>
		<path class="st4" d="M2,2.2v76.6h40.3L80.6,5.3v73.5c0,0,39.3-3.1,38.6-41.5s-39.3-35-39.3-35L40.3,2.2l-0.7,73.6L2,2.2z"/>
	</g>
</g>
</svg>
