<?xml version="1.0" encoding="utf-8"?>
<!-- Generator: Adobe Illustrator 17.0.1, SVG Export Plug-In . SVG Version: 6.00 Build 0)  -->
<!DOCTYPE svg PUBLIC "-//W3C//DTD SVG 1.1//EN" "http://www.w3.org/Graphics/SVG/1.1/DTD/svg11.dtd">
<svg version="1.1" id="Layer_1" xmlns="http://www.w3.org/2000/svg" xmlns:xlink="http://www.w3.org/1999/xlink" x="0px" y="0px"
	 width="229.333px" height="160.667px" viewBox="0 0 229.333 160.667" enable-background="new 0 0 229.333 160.667"
	 xml:space="preserve">
<rect x="111.111" y="102.635" fill="#FFFFFF" width="5.135" height="3.838"/>
<path fill="#FFFFFF" d="M130.543,104.422l-9.068-3.109l-7.709,23.703l-7.661-23.555l-9.272,3.02
	c-2.065,0.671-3.742,2.978-3.742,5.15c0,0-2.932,15.034,0,18.662c6.471,8.007,33.894,7.28,41.174,0c3.298-3.299,0-18.662,0-18.662
	C134.265,107.459,132.599,105.127,130.543,104.422"/>
<polygon fill="#FFFFFF" points="111.243,112.891 113.767,119.855 116.131,113.334 115.215,107.539 112.07,107.539 "/>
<path fill="#FFFFFF" d="M103.761,90.371c0.117-0.015,0.231-0.038,0.342-0.068c1.709,5.474,5.411,9.717,9.705,9.717
	c4.279,0,7.971-4.218,9.685-9.672c0.057,0.012,0.116,0.025,0.177,0.031c1.74,0.173,3.346-1.646,3.584-4.06
	c0.239-2.413-0.979-4.51-2.72-4.682c-0.045-0.005-0.092-0.004-0.137-0.005c-0.761-6.623-5.211-8.991-10.589-8.991
	c-5.384,0-9.839,2.37-10.596,9.002c-0.153-0.013-0.309-0.017-0.463,0.002c-1.739,0.201-2.921,2.318-2.641,4.727
	C100.387,88.782,102.023,90.572,103.761,90.371"/>
<path opacity="0.75" fill="#FFFFFF" d="M86.811,104.903l-8.5,6.715c-0.93-0.533-2.026-0.817-3.19-0.756
	c-1.52,0.079-2.923,0.73-3.947,1.832c-1.038,1.115-1.567,2.559-1.489,4.063c0.155,2.976,2.663,5.306,5.71,5.306
	c0.103,0,0.206-0.003,0.309-0.008c1.52-0.079,2.923-0.729,3.948-1.831c1.038-1.116,1.566-2.559,1.488-4.065
	c-0.027-0.506-0.126-0.99-0.282-1.452l8.435-6.664c0.867-0.685,1.014-1.944,0.33-2.811
	C88.938,104.365,87.679,104.216,86.811,104.903 M77.842,117.09c-0.101,0.347-0.277,0.674-0.535,0.952
	c-0.455,0.49-1.083,0.779-1.768,0.815l-0.144,0.003c-1.342,0-2.444-0.996-2.512-2.269c-0.033-0.632,0.192-1.24,0.635-1.716
	c0.436-0.47,1.034-0.748,1.686-0.803c0.028-0.002,0.055-0.01,0.082-0.012l0.145-0.003c1.341,0,2.444,0.997,2.511,2.27
	C77.956,116.588,77.914,116.843,77.842,117.09"/>
<path opacity="0.75" fill="#FFFFFF" d="M93.871,90.443c0.971-0.53,1.328-1.746,0.799-2.717l-4.552-8.339
	c0.996-1.106,1.506-2.519,1.429-3.994c-0.161-3.076-2.843-5.47-6.019-5.298c-1.521,0.08-2.923,0.73-3.947,1.831
	c-1.038,1.116-1.567,2.56-1.488,4.064c0.154,2.976,2.663,5.306,5.709,5.306c0.103,0,0.206-0.003,0.309-0.008
	c0.155-0.008,0.307-0.026,0.458-0.045l4.587,8.401c0.363,0.666,1.05,1.044,1.758,1.044C93.238,90.688,93.568,90.608,93.871,90.443
	 M88.312,76.079c-0.078,0.441-0.28,0.854-0.597,1.197c-0.457,0.489-1.085,0.779-1.77,0.815l-0.143,0.002
	c-0.389,0-0.754-0.092-1.084-0.242c-0.807-0.367-1.381-1.124-1.428-2.028c-0.033-0.63,0.193-1.24,0.635-1.715
	c0.456-0.49,1.084-0.78,1.769-0.815l0.142-0.003c1.342,0,2.446,0.997,2.513,2.27C88.357,75.736,88.341,75.909,88.312,76.079"/>
<path opacity="0.75" fill="#FFFFFF" d="M72.768,98.603c1.52-0.079,2.921-0.729,3.947-1.832c0.149-0.159,0.285-0.328,0.412-0.501
	l9.017,2.408c0.173,0.047,0.348,0.069,0.519,0.069c0.883,0,1.693-0.591,1.932-1.486c0.285-1.068-0.35-2.166-1.418-2.451
	l-9.006-2.406c-0.316-2.926-2.923-5.15-5.988-4.993c-1.52,0.078-2.921,0.728-3.947,1.831c-1.038,1.115-1.566,2.558-1.487,4.064
	c0.154,2.975,2.662,5.305,5.709,5.305C72.562,98.611,72.663,98.609,72.768,98.603 M69.947,93.139
	c-0.033-0.632,0.193-1.24,0.635-1.716c0.455-0.489,1.084-0.779,1.769-0.815l0.141-0.003c0.731,0,1.383,0.301,1.843,0.774
	c0.386,0.398,0.64,0.915,0.669,1.495c0.033,0.632-0.192,1.24-0.635,1.716c-0.288,0.31-0.649,0.528-1.044,0.664
	c-0.232,0.079-0.471,0.138-0.724,0.151l-0.143,0.004C71.117,95.409,70.012,94.412,69.947,93.139"/>
<path opacity="0.75" fill="#FFFFFF" d="M152.589,110.863c-1.163-0.062-2.257,0.223-3.19,0.756l-8.499-6.715
	c-0.867-0.687-2.127-0.538-2.812,0.329s-0.538,2.126,0.33,2.811l8.434,6.664c-0.155,0.461-0.255,0.946-0.282,1.452
	c-0.078,1.506,0.451,2.948,1.489,4.065c1.024,1.101,2.426,1.752,3.947,1.831c0.104,0.005,0.207,0.008,0.308,0.008
	c3.048,0,5.556-2.33,5.711-5.306c0.078-1.504-0.45-2.948-1.488-4.064C155.511,111.593,154.109,110.941,152.589,110.863
	 M152.314,118.861l-0.142-0.003c-0.685-0.036-1.314-0.325-1.769-0.815c-0.26-0.278-0.433-0.605-0.535-0.952
	c-0.074-0.247-0.114-0.502-0.1-0.763c0.068-1.273,1.17-2.271,2.512-2.271l0.142,0.004c0.03,0.002,0.056,0.01,0.085,0.012
	c0.652,0.055,1.247,0.333,1.686,0.802c0.44,0.477,0.667,1.085,0.634,1.717C154.76,117.865,153.657,118.861,152.314,118.861"/>
<path opacity="0.75" fill="#FFFFFF" d="M159.473,89.242c-1.024-1.102-2.425-1.753-3.947-1.831c-3.061-0.154-5.67,2.068-5.986,4.994
	l-9.007,2.406c-1.068,0.284-1.702,1.383-1.417,2.451c0.239,0.894,1.047,1.486,1.932,1.486c0.171,0,0.345-0.023,0.519-0.069
	l9.016-2.409c0.128,0.174,0.264,0.343,0.413,0.502c1.026,1.102,2.427,1.753,3.947,1.831c0.103,0.007,0.206,0.009,0.31,0.009
	c3.046,0,5.555-2.331,5.709-5.306C161.041,91.801,160.512,90.357,159.473,89.242 M155.253,95.409l-0.143-0.003
	c-0.253-0.013-0.492-0.073-0.724-0.152c-0.397-0.135-0.758-0.354-1.046-0.663c-0.441-0.476-0.668-1.085-0.635-1.716
	c0.031-0.58,0.285-1.097,0.671-1.495c0.46-0.474,1.112-0.775,1.843-0.775l0.141,0.004c0.685,0.036,1.314,0.325,1.769,0.814
	c0.442,0.476,0.668,1.085,0.635,1.716C157.699,94.412,156.594,95.409,155.253,95.409"/>
<path opacity="0.75" fill="#FFFFFF" d="M141.6,81.288c0.103,0.005,0.206,0.008,0.309,0.008c3.046,0,5.555-2.33,5.709-5.306
	c0.079-1.504-0.45-2.948-1.488-4.064c-1.024-1.101-2.428-1.751-3.947-1.831c-3.175-0.17-5.858,2.222-6.019,5.298
	c-0.077,1.475,0.431,2.888,1.429,3.994l-4.552,8.339c-0.53,0.971-0.172,2.187,0.797,2.717c0.305,0.165,0.634,0.245,0.958,0.245
	c0.709,0,1.396-0.378,1.759-1.044l4.587-8.401C141.293,81.262,141.445,81.28,141.6,81.288 M139.399,76.079
	c-0.031-0.17-0.046-0.343-0.037-0.519c0.067-1.273,1.17-2.27,2.511-2.27l0.144,0.003c0.685,0.035,1.313,0.325,1.769,0.815
	c0.442,0.475,0.668,1.085,0.635,1.716c-0.047,0.903-0.623,1.66-1.428,2.027c-0.33,0.15-0.695,0.242-1.084,0.242l-0.143-0.002
	c-0.685-0.036-1.314-0.326-1.77-0.815C139.677,76.933,139.475,76.52,139.399,76.079"/>
<path fill="#FFFFFF" d="M118.754,64.393c-0.015-0.839-0.674-1.428-1.605-1.43l-3.704-0.003l-3.705,0.003
	c-0.499,0-0.935,0.168-1.23,0.467c-0.262,0.268-0.398,0.616-0.392,1.011c0.013,0.833,0.67,1.418,1.598,1.426
	c0.587,0.002,1.175,0.004,1.762,0.004l1.917-0.002l2.134,0.002c0.534,0,1.068,0,1.602-0.003c0.504-0.004,0.943-0.17,1.236-0.47
	C118.627,65.134,118.76,64.787,118.754,64.393"/>
<path opacity="0.75" fill="#FFFFFF" d="M109.29,67.647c0.057,0.099,1.434,2.44,4.145,2.44c2.625,0,4.079-2.331,4.14-2.43
	l0.405-0.663h-9.066L109.29,67.647z"/>
<path opacity="0.75" fill="#FFFFFF" d="M118.54,59.368c-0.288-0.295-0.706-0.452-1.208-0.456c-0.719-0.005-1.44-0.006-2.158-0.006
	l-2.694,0.001l-1.683-0.006c-0.446,0-0.891,0.005-1.335,0.016c-0.534,0.015-0.998,0.252-1.273,0.649
	c-0.256,0.371-0.313,0.841-0.157,1.286c0.16,0.457,0.56,0.998,1.556,0.998l6.072,0.004c0.558,0,1.116-0.002,1.674-0.007
	c0.947-0.008,1.572-0.57,1.593-1.432C118.934,60,118.801,59.637,118.54,59.368"/>
<path opacity="0.75" fill="#FFFFFF" d="M120.033,29.665c0.203,0.095,0.419,0.145,0.643,0.145l0.113-0.005
	c0.531-0.041,1.005-0.366,1.235-0.848l2.361-4.963c0.171-0.361,0.192-0.765,0.058-1.142c-0.134-0.376-0.406-0.678-0.766-0.85
	c-0.722-0.343-1.649-0.012-1.993,0.707l-2.361,4.962C118.97,28.415,119.288,29.309,120.033,29.665 M120.676,29.365h0.001
	l-0.001,0.009V29.365z"/>
<path opacity="0.75" fill="#FFFFFF" d="M128.734,39.79l0.116-0.003c0.101-0.008,0.199-0.025,0.286-0.051l5.294-1.471
	c0.385-0.108,0.704-0.358,0.901-0.705c0.197-0.348,0.247-0.753,0.139-1.138c-0.216-0.772-1.065-1.256-1.84-1.038l-5.295,1.47
	c-0.794,0.221-1.261,1.048-1.04,1.843C127.475,39.341,128.066,39.79,128.734,39.79 M128.734,39.344h0.001l-0.001,0.01V39.344z"/>
<path opacity="0.75" fill="#FFFFFF" d="M104.101,30.767c0.277,0.42,0.744,0.671,1.249,0.671l0.117-0.006
	c0.253-0.021,0.499-0.106,0.707-0.245c0.334-0.221,0.56-0.557,0.639-0.949c0.078-0.392,0-0.79-0.221-1.123l-3.041-4.575
	c-0.439-0.666-1.405-0.863-2.072-0.419c-0.687,0.456-0.874,1.387-0.418,2.072L104.101,30.767z M105.35,30.994L105.35,30.994v0.009
	V30.994z"/>
<path opacity="0.75" fill="#FFFFFF" d="M125.617,51.661l4.572,3.045c0.248,0.166,0.535,0.253,0.832,0.253l0.114-0.005
	c0.46-0.036,0.872-0.278,1.128-0.661c0.456-0.686,0.27-1.617-0.415-2.073l-4.574-3.046c-0.666-0.444-1.632-0.247-2.072,0.415
	c-0.223,0.333-0.301,0.731-0.223,1.122C125.058,51.103,125.285,51.442,125.617,51.661 M131.021,54.513h0.001l-0.001,0.01V54.513z"/>
<path opacity="0.75" fill="#FFFFFF" d="M92.922,38.265l5.289,1.469c0.092,0.028,0.19,0.045,0.289,0.051l0.118,0.005
	c0.667,0,1.259-0.449,1.439-1.095c0.221-0.793-0.245-1.62-1.041-1.841l-5.293-1.47c-0.777-0.218-1.626,0.264-1.842,1.038
	c-0.107,0.385-0.057,0.79,0.139,1.138C92.218,37.907,92.537,38.157,92.922,38.265 M98.618,39.344v0.01l-0.002-0.01H98.618z"/>
<path opacity="0.75" fill="#FFFFFF" d="M100.077,49.174l-4.573,3.045c-0.685,0.456-0.872,1.388-0.415,2.074
	c0.257,0.383,0.668,0.624,1.129,0.662l0.113,0.004c0.297,0,0.585-0.087,0.831-0.253l4.572-3.045c0.333-0.22,0.56-0.558,0.639-0.95
	c0.078-0.391,0-0.79-0.222-1.12C101.71,48.925,100.744,48.729,100.077,49.174 M96.331,54.523l-0.001-0.01h0.001V54.523z"/>
<path fill="#FFFFFF" d="M103.276,42.383c0,3.294,1.489,5.955,2.809,8.314c1.077,1.928,2.094,3.746,2.158,5.642l0.044,1.347h10.401
	l0.017-1.379c0.019-1.89,1.182-3.805,2.414-5.837c1.532-2.524,3.114-5.131,3.114-8.37c0-4.568-2.744-9.903-10.479-9.903
	C106.875,32.197,103.276,37.322,103.276,42.383 M114.282,54.896h-1.512c0-0.016,0.001-0.029,0.002-0.046
	c0.047-0.951,0.081-2.338-0.07-2.981c-0.352-1.508-1.952-4.179-2.812-5.615c-0.124-0.208-0.232-0.388-0.318-0.532
	c-0.332-0.567-0.391-1.072-0.167-1.456c0.209-0.362,0.652-0.593,1.132-0.593h0.016c0.108,0.003,0.254,0.048,0.413,0.128
	c-0.473,0.514-0.724,1.132-0.709,1.762c0.011,0.43,0.246,0.895,0.63,1.246c0.356,0.324,0.781,0.492,1.178,0.465
	c0.446-0.032,0.868-0.318,1.157-0.786c0.147-0.238,0.248-0.5,0.298-0.76c0.096,0.926,0.941,1.566,1.707,1.575h0.01
	c0.354,0,0.706-0.182,0.992-0.512c0.363-0.425,0.551-0.993,0.478-1.452c-0.069-0.439-0.366-0.989-0.816-1.475
	c0.21-0.118,0.408-0.187,0.564-0.191c0.386,0.003,0.689,0.139,0.876,0.412c0.238,0.344,0.259,0.84,0.056,1.355
	c-0.258,0.659-0.745,1.54-1.258,2.471c-0.738,1.331-1.499,2.71-1.756,3.738C114.197,52.352,114.235,53.897,114.282,54.896
	 M111.316,45.537c-0.009-0.389,0.181-0.788,0.53-1.124c0.003,0,0.005-0.001,0.006-0.002c0.087,0.074,0.165,0.153,0.241,0.229
	c0.031,0.031,0.059,0.064,0.088,0.095c0.131,0.146,0.234,0.288,0.286,0.411c0.067,0.16,0.031,0.497-0.146,0.785
	c-0.118,0.19-0.25,0.282-0.331,0.286c-0.081,0.008-0.234-0.05-0.39-0.193C111.409,45.851,111.32,45.65,111.316,45.537
	 M112.808,43.861c0.265-0.081,0.544-0.116,0.809-0.098c0.207,0.017,0.405,0.07,0.592,0.152c-0.323,0.38-0.568,0.814-0.658,1.262
	c-0.016-0.155-0.051-0.305-0.107-0.438C113.33,44.466,113.1,44.157,112.808,43.861 M114.57,45.553c0-0.329,0.208-0.698,0.495-1.02
	c0.34,0.353,0.56,0.742,0.595,0.972c0.02,0.117-0.054,0.365-0.206,0.558c-0.101,0.13-0.192,0.178-0.217,0.181
	C115.011,46.241,114.57,45.995,114.57,45.553 M113.754,34.988c5.671,0,7.691,3.673,7.691,7.112c0,2.453-1.377,4.725-2.71,6.922
	c-1.126,1.857-2.289,3.771-2.682,5.874h-0.71c-0.047-1.018-0.077-2.441,0.057-2.99c0.224-0.893,0.952-2.209,1.655-3.483
	c0.532-0.963,1.035-1.873,1.319-2.595c0.332-0.852,0.27-1.707-0.17-2.345c-0.381-0.552-1.013-0.868-1.734-0.868h-0.025
	c-0.404,0.002-0.918,0.212-1.403,0.548c-0.405-0.249-0.864-0.421-1.348-0.453c-0.621-0.048-1.261,0.097-1.822,0.394
	c-0.455-0.288-0.927-0.487-1.309-0.489c-0.871,0.001-1.676,0.43-2.075,1.12c-0.242,0.419-0.543,1.305,0.171,2.522
	c0.087,0.149,0.196,0.331,0.322,0.541c0.77,1.286,2.375,3.965,2.689,5.311c0.12,0.514,0.086,1.826,0.038,2.787h-0.828
	c-0.379-2.019-1.388-3.824-2.367-5.572c-1.203-2.151-2.448-4.374-2.448-6.941C106.065,38.821,108.471,34.988,113.754,34.988"/>
</svg>
