<?xml version="1.0" encoding="utf-8"?>
<!-- Generator: Adobe Illustrator 17.0.1, SVG Export Plug-In . SVG Version: 6.00 Build 0)  -->
<!DOCTYPE svg PUBLIC "-//W3C//DTD SVG 1.1//EN" "http://www.w3.org/Graphics/SVG/1.1/DTD/svg11.dtd">
<svg version="1.1" id="Layer_1" xmlns="http://www.w3.org/2000/svg" xmlns:xlink="http://www.w3.org/1999/xlink" x="0px" y="0px"
	 width="229.333px" height="160.667px" viewBox="0 0 229.333 160.667" enable-background="new 0 0 229.333 160.667"
	 xml:space="preserve">
<path opacity="0.3" fill="none" stroke="#FDFEFF" stroke-width="9" stroke-miterlimit="10" d="M137.423,122.138H95.522
	c-7.477,0-13.595-6.117-13.595-13.594V72.292c0-7.477,6.118-13.595,13.595-13.595h41.901c7.477,0,13.594,6.118,13.594,13.595v36.252
	C151.017,116.021,144.9,122.138,137.423,122.138z"/>
<path opacity="0.3" fill="none" stroke="#FFFFFF" stroke-width="11" stroke-linecap="round" stroke-miterlimit="10" d="
	M99.913,81.468l12.658,20.402c0,0,21.104-47.62,47.384-47.62"/>
<path fill="none" stroke="#FDFEFF" stroke-width="10" stroke-miterlimit="10" d="M130.862,118.418H88.961
	c-7.477,0-13.595-6.117-13.595-13.594V68.572c0-7.477,6.118-13.595,13.595-13.595h41.901c7.477,0,13.594,6.118,13.594,13.595v36.252
	C144.456,112.301,138.339,118.418,130.862,118.418z"/>
<path fill="none" stroke="#FFFFFF" stroke-width="11" stroke-linecap="round" stroke-miterlimit="10" d="M96.352,78.747
	l12.658,20.402c0,0,21.104-47.62,47.384-47.62"/>
</svg>
