<?xml version="1.0" encoding="utf-8"?>
<!-- Generator: Adobe Illustrator 17.0.1, SVG Export Plug-In . SVG Version: 6.00 Build 0)  -->
<!DOCTYPE svg PUBLIC "-//W3C//DTD SVG 1.1//EN" "http://www.w3.org/Graphics/SVG/1.1/DTD/svg11.dtd">
<svg version="1.1" id="Layer_1" xmlns="http://www.w3.org/2000/svg" xmlns:xlink="http://www.w3.org/1999/xlink" x="0px" y="0px"
	 width="229.333px" height="160.667px" viewBox="0 0 229.333 160.667" enable-background="new 0 0 229.333 160.667"
	 xml:space="preserve">
<g opacity="0.5">
	<g>
		<path fill="#FFFFFF" d="M138.294,40.865h-94.29c-1.516,0-2.749,1.233-2.749,2.75v56.564c0,1.52,1.233,2.753,2.749,2.753h94.29
			c1.521,0,2.756-1.233,2.756-2.753V43.615C141.05,42.098,139.815,40.865,138.294,40.865z M134.624,98.552H47.678V45.246h86.946
			V98.552z"/>
		<path fill="#FFFFFF" d="M148.204,110.722c-1.445,1.908-4.409,1.898-5.928,1.898H40.023c-1.521,0-3.582,0.291-5.923-1.898
			l-3.171-3.785c-0.765-0.882-0.791-1.9,2.751-1.9h114.939c3.516,0,3.516,1.047,2.754,1.9L148.204,110.722z"/>
	</g>
</g>
<path fill="#FFFFFF" d="M164.355,84.798c0,6.952-5.627,12.574-12.579,12.574c-6.946,0-12.574-5.622-12.574-12.574
	c0-6.946,5.628-12.579,12.574-12.579C158.728,72.219,164.355,77.852,164.355,84.798"/>
<path fill="#FFFFFF" d="M174,138.226h-44.442c1.989-21.663,11.183-38.056,22.218-38.056C162.817,100.17,172.005,116.563,174,138.226
	"/>
<path opacity="0.75" fill="#FFFFFF" d="M169.136,98.438l-2.907-2.446c2.775-3.302,4.303-7.507,4.303-11.832
	c0-10.155-8.26-18.42-18.415-18.42c-10.162,0-18.432,8.265-18.432,18.42c0,3.88,1.198,7.596,3.457,10.733l-3.089,2.22
	c-2.726-3.791-4.166-8.27-4.166-12.953c0-12.254,9.969-22.223,22.23-22.223c12.249,0,22.212,9.969,22.212,22.223
	C174.329,89.387,172.494,94.448,169.136,98.438"/>
<path opacity="0.75" fill="#FFFFFF" d="M168.345,92.514c-2.149,1.391-4.721,2.171-7.468,2.094c-3.072-0.077-6.024-1.242-8.321-3.286
	l1.479-1.676c1.907,1.687,4.357,2.659,6.908,2.725c2.44,0.066,4.715-0.681,6.567-2L168.345,92.514z"/>
<path opacity="0.25" fill="#FFFFFF" d="M152.787,89.112c-0.72-0.17-1.456,0.275-1.621,0.995l-0.418,1.731
	c-0.182,0.725,0.269,1.451,0.989,1.621l7.012,1.687c0.715,0.176,1.457-0.269,1.627-0.995l0.418-1.725
	c0.176-0.725-0.275-1.451-0.995-1.627L152.787,89.112z"/>
<path opacity="0.75" fill="#FFFFFF" d="M134.07,86.903c-0.572-0.907-1.55-1.456-2.627-1.456c-0.582,0-1.148,0.17-1.649,0.483
	l-2.121,1.33c-0.703,0.445-1.193,1.126-1.374,1.94c-0.181,0.808-0.044,1.632,0.401,2.341l5.413,8.617
	c0.572,0.907,1.55,1.45,2.627,1.45c0.588,0,1.16-0.17,1.655-0.477l2.115-1.336c0.703-0.44,1.193-1.126,1.38-1.923
	c0.181-0.814,0.044-1.649-0.401-2.347L134.07,86.903z"/>
<path opacity="0.75" fill="#FFFFFF" d="M177.258,89.2c-0.187-0.814-0.671-1.495-1.374-1.94l-2.116-1.33
	c-1.412-0.89-3.407-0.429-4.281,0.973l-5.413,8.622c-0.445,0.698-0.588,1.533-0.401,2.336c0.181,0.808,0.676,1.494,1.369,1.934
	l2.126,1.341c0.495,0.302,1.067,0.472,1.649,0.472c1.077,0,2.061-0.543,2.627-1.45l5.418-8.617
	C177.302,90.832,177.445,90.008,177.258,89.2"/>
<rect x="54.73" y="52.062" opacity="0.75" fill="#FFFFFF" width="18.209" height="10.25"/>
<rect x="73.938" y="52.062" opacity="0.75" fill="#FFFFFF" width="18.209" height="10.25"/>
<rect x="54.73" y="65.228" opacity="0.75" fill="#FFFFFF" width="18.209" height="10.25"/>
<rect x="73.938" y="65.228" opacity="0.75" fill="#FFFFFF" width="18.209" height="10.25"/>
<rect x="91.147" y="65.228" opacity="0.75" fill="#FFFFFF" width="18.209" height="10.25"/>
<rect x="54.73" y="79.645" opacity="0.75" fill="#FFFFFF" width="18.209" height="10.25"/>
</svg>
