<?xml version="1.0" encoding="utf-8"?>
<!-- Generator: Adobe Illustrator 21.1.0, SVG Export Plug-In . SVG Version: 6.00 Build 0)  -->
<svg version="1.1" id="Layer_1" xmlns="http://www.w3.org/2000/svg" xmlns:xlink="http://www.w3.org/1999/xlink" x="0px" y="0px"
	 viewBox="0 0 600 200" style="enable-background:new 0 0 600 200;" xml:space="preserve">
<style type="text/css">
	.st0{fill:#29ABE2;}
	.st1{fill:#6ECEF5;}
	.st2{fill:#2486C1;}
	.st3{fill:#0033A0;}
	.st4{fill:#FFFFFF;}
</style>
<g>
	<polygon class="st0" points="4,5.3 135.2,194.7 210.9,100 	"/>
	<polygon class="st1" points="4,5.3 135.6,5.3 210.9,100 	"/>
	<polygon class="st2" points="69.6,100 4,194.7 135.2,194.7 	"/>
	<polygon class="st3" points="55.8,120 135.2,194.7 69.6,100 	"/>
	<g>
		<path class="st4" d="M230.3,188.5c0.5,0.9-0.5,3.3-1.5,3.9c-3.7-0.3-8.3-0.5-13.6-0.5c-5.6,0-10.4,0.2-14.1,0.5
			c-1-0.6-0.3-3.3,0.9-3.9l3.9-0.5c2.8-0.3,4.7-1.6,5.4-2.5c0.6-0.8,1.8-3,3.9-9.7l6.7-21c1.2-3.6,1.1-4.1-1.5-4.1h-17.5
			c-3.6,0-4.1,0.2-7.6,4.9l-14.3,17.9c-6.6,8.6-8.4,11-8.6,11.7c-0.3,0.9,0,1.9,2.2,2.3l5,0.9c0.7,0.9-0.3,3.3-1.3,3.9
			c-3.7-0.3-7.4-0.5-12.3-0.5c-4.7,0-9.2,0.2-13.6,0.5c-0.4-0.9,0.3-3,1.3-3.9l3.4-0.5c3.8-0.5,7.1-2.8,10.5-6.6
			c5-5.6,15.4-18.2,29.5-35.2l31.8-38.8c7.7-9.4,10.4-13.5,11.6-16.1c4.3-0.8,10-5.2,10.3-5.2c0.6,0,1.3,0.6,1.1,1.3
			c-0.7,2.7-3.1,9.4-7.4,23l-18.3,59.2c-5.4,17.4-5.3,17.5,1,18.5L230.3,188.5z M222.7,144.5c2.1,0,2.4-0.3,3.3-3.1l11.1-34.3
			c0.7-2.2,1.1-4.1,0.8-4.1c-0.4,0-1.3,0.9-6.7,7.7L206,142.2c-1.5,1.9-1.2,2.3,1.4,2.3L222.7,144.5L222.7,144.5z"/>
		<path class="st4" d="M288.9,137.3c-1.7,6.3-6.7,7.4-7.9,7.4c-1.2,0-1.9-0.9-1.7-2.8c0.7-3.9,2.1-8.6-1.9-8.6
			c-2.7,0-7.3,3.3-13,10.5c-6.1,7.7-13.2,20.4-16.8,32.4c-2.3,7.8-0.4,10.2,2.5,10.2c4,0,9.6-4.1,15.7-9.6c1.3-0.2,1.7,1.1,0.9,2.7
			c-6.9,8-16.3,14.7-24,14.7c-4.7,0-7.9-4.5-4.7-16.6c2.7-10.2,12.3-28,26.3-40.4c6.7-6,12.8-9.1,18.2-9.1
			C288.4,128.1,290.2,132.5,288.9,137.3z"/>
		<path class="st4" d="M327.1,137.3c-1.7,6.3-6.7,7.4-7.9,7.4c-1.2,0-1.9-0.9-1.7-2.8c0.7-3.9,2.1-8.6-1.9-8.6
			c-2.7,0-7.3,3.3-13,10.5c-6.1,7.7-13.2,20.4-16.8,32.4c-2.3,7.8-0.4,10.2,2.5,10.2c4,0,9.6-4.1,15.7-9.6c1.3-0.2,1.7,1.1,0.9,2.7
			c-6.9,8-16.3,14.7-24,14.7c-4.7,0-7.9-4.5-4.7-16.6c2.7-10.2,12.3-28,26.3-40.4c6.7-6,12.8-9.1,18.2-9.1
			C326.6,128.1,328.4,132.5,327.1,137.3z"/>
		<path class="st4" d="M365.2,137.5c-3.2,11.9-17.3,19.7-36.5,26c-1.6,2.7-3.8,7.7-5.4,13.9c-1.4,5.3,0.2,8.9,3.4,8.9
			c4.4,0,8.3-3.1,15.2-9.1c1.1,0,1.5,1.3,0.9,2.7c-10.6,11.7-18.2,14.3-23.3,14.3c-7.3,0-7.5-8.8-5.4-16.4
			c2.6-9.9,12.6-29,29.4-42.1c8-6.3,13.1-7.5,16.6-7.5C364.9,128.1,366.3,133.4,365.2,137.5z M345.1,140.5
			c-6.5,6.6-11.2,13.8-13.9,18.3c8.9-3.1,13.4-6.1,19.4-11.6c5-4.5,7.2-9.2,7.6-10.6c0.4-1.6,0.4-3.6-1.8-3.6
			C354.6,132.9,351.1,134.3,345.1,140.5z"/>
	</g>
	<g>
		<path class="st4" d="M361.4,181.8c-1.9,3.6-2.2,5.2-0.9,5.2c2.7,0,10.4-7.7,18.2-15.8c1.3-0.2,1.8,0.6,1.4,2.2
			c-5.3,7.8-16.4,20.8-26.5,20.8c-3.6,0-4.2-2.2-3.5-4.7c0.7-2.5,2-5.3,6.2-13.3l39.2-74.1c5.9-11,5.1-12.5,3.5-13.6l-1.9-1.3
			c-0.4-0.6-0.1-2,0.7-2.5c2.5-1.1,10.8-4.1,16.6-4.7l0.4,0.9c-3.1,5.6-5.5,10-14.4,26.9L361.4,181.8z"/>
	</g>
	<g>
		<path class="st4" d="M435.5,137.5c-3.2,11.9-17.3,19.7-36.5,26c-1.6,2.7-3.8,7.7-5.4,13.9c-1.4,5.3,0.2,8.9,3.4,8.9
			c4.4,0,8.3-3.1,15.2-9.1c1.1,0,1.5,1.3,0.9,2.7c-10.6,11.7-18.2,14.3-23.3,14.3c-7.3,0-7.5-8.8-5.4-16.4
			c2.6-9.9,12.6-29,29.4-42.1c8-6.3,13.1-7.5,16.6-7.5C435.2,128.1,436.6,133.4,435.5,137.5z M415.4,140.5
			c-6.5,6.6-11.2,13.8-13.9,18.3c8.9-3.1,13.4-6.1,19.4-11.6c5-4.5,7.2-9.2,7.6-10.6c0.4-1.6,0.4-3.6-1.8-3.6
			C424.9,132.9,421.4,134.3,415.4,140.5z"/>
		<path class="st4" d="M453.1,143l-10.5,19.7h0.6c6-8.8,15.3-21.3,19.9-26.5c4.1-4.7,8-8.1,11.1-8.1c4.3,0,3.4,5.3,2.8,7.7
			c-0.6,2.3-2.9,6.9-5.1,9.4c-2.1,2.3-4.1,2.5-3.7-0.8c0.5-4.1,0.3-6.1-0.9-6.1c-1.1,0-2.9,1.6-5.5,4.7
			c-10.7,12.2-22.6,31.3-33.9,49.3c-0.8,1.3-1.6,1.9-2.6,1.9c-1.3,0-4.7-0.6-2.9-4.1c3.3-6.3,18.3-34,25.7-49.3
			c0.8-1.7,1-3.3-0.1-3.3c-3.2,0-7.6,4.4-10.8,8.1c-1.3,0.3-1.9-0.6-1.3-2.5c6.2-8.5,12.5-15,18.4-15
			C460.4,128.1,455.4,138.7,453.1,143z"/>
		<path class="st4" d="M519.7,124.5c2.4-1.3,5.1,0.3,5.3,2.3c-3.4,5.8-23.2,40.4-30.9,54.7c-1.4,2.7-1.1,3.6-0.1,3.6
			c2.1,0,6.3-2.7,15.3-10.5c0.9,0,1.5,0.8,1.2,2c-7.5,8.8-18.4,17.5-25.1,17.5c-2.8,0-2.7-3-2.4-4.2c0.3-1.1,0.9-2.5,2.9-6.1
			l7.8-14.1l-0.3-0.2c-12.3,13.8-27.6,24.6-33.3,24.6c-3.4,0-4.2-4.4-3-8.8c1-3.6,7-16.1,18.8-30.4c8.6-10.3,15.5-16.6,21.5-20.2
			c5.7-3.4,9-4.5,12.2-4.5c1.3,0,2.1,0.5,2.7,0.9c0.4,0.3,1.4,1.7,1.5,3.3L519.7,124.5z M493.8,142.3c-10.2,8.9-23.1,29.4-26.1,40.6
			c-0.5,1.9-0.1,3,1,3c1.2,0,5.4-2,14.5-10.2c12.2-11.1,20.9-24.6,25.4-33.8c-0.1-3-1.4-5.6-4.6-5.6
			C501.1,136.2,498.7,137.9,493.8,142.3z"/>
		<path class="st4" d="M546.8,136.4L524.1,179c-1.5,3-1.2,3.9-0.2,3.9c1.8,0,12-8.1,17.6-14.1c1.2,0,1.7,0.9,0.9,2.8
			c-10.3,13-24.3,22.6-29.4,22.6c-1.7,0-2.7-2.3-2.1-4.2c0.5-2,1.6-4.2,4.1-8.9l23.8-44.6h-9.5c0.2-1.6,1.1-3.8,2.5-4.4l10.3-2.2
			l11-15.5c1.5-0.9,3.8-0.6,4.4,0.9l-7.6,15.3h13.3c0.4,1.6-1.1,4.7-3,5.8L546.8,136.4L546.8,136.4z"/>
		<path class="st4" d="M595.7,137.5c-3.2,11.9-17.3,19.7-36.5,26c-1.6,2.7-3.8,7.7-5.4,13.9c-1.4,5.3,0.2,8.9,3.4,8.9
			c4.4,0,8.3-3.1,15.2-9.1c1.1,0,1.5,1.3,0.9,2.7c-10.6,11.7-18.2,14.3-23.3,14.3c-7.3,0-7.5-8.8-5.4-16.4
			c2.6-9.9,12.6-29,29.4-42.1c8-6.3,13.1-7.5,16.6-7.5C595.4,128.1,596.7,133.4,595.7,137.5z M575.5,140.5
			c-6.5,6.6-11.2,13.8-13.9,18.3c8.9-3.1,13.4-6.1,19.4-11.6c5-4.5,7.2-9.2,7.6-10.6c0.4-1.6,0.4-3.6-1.8-3.6
			C585.1,132.9,581.5,134.3,575.5,140.5z"/>
	</g>
	<g>
		<path class="st4" d="M118.8,114.5h-5c0-4.5-0.3-11-0.8-19.4s-0.8-13.6-0.9-15.2h-0.3c-1.8,6.5-4,13.6-6.7,21.2
			c-2.7,7.6-4.1,12.1-4.1,13.4h-3.6c0-1.4-1.3-6-3.8-13.7c-2.5-7.7-4.1-12.9-4.8-15.5s-1.1-4.5-1.4-5.5h-0.3
			c-0.1,2.8-0.4,8.3-1,16.7c-0.6,8.4-1,14.4-1,18h-4.6c0-0.2,0.6-5.7,1.8-16.6c1.2-10.9,1.8-18.4,1.8-22.6h7c0,2.2,1.4,7.7,4.2,16.6
			c2.8,8.8,4.2,14.2,4.2,16.1h0.3c0-1.9,1.6-7.2,4.8-16.1c3.2-8.9,4.8-14.4,4.8-16.5h6.8c0,4.2,0.4,11.7,1.2,22.5
			C118.4,108.6,118.8,114.1,118.8,114.5z"/>
		<path class="st4" d="M155.5,93.4c0,5.7-1.6,10.7-4.8,15s-7.6,6.4-13.3,6.4c-1.8,0-4.9-0.1-9.2-0.4c0.3-6.2,0.4-13.1,0.4-20.6
			c0-7.1-0.1-13.3-0.4-18.6h2.9c0.7,0,1.8,0,3.2-0.1c1.4-0.1,2.4-0.1,2.9-0.1c6.2,0,10.9,1.7,13.8,5.2
			C154,83.8,155.5,88.2,155.5,93.4z M150.9,94.8c0-4.5-1.3-8.2-3.8-11.2c-2.5-3-6.4-4.5-11.6-4.5c-0.7,0-1.8,0.1-3.1,0.3
			c0.1,4.7,0.2,9.5,0.2,14.4c0,5.4,0.1,10.9,0.3,16.5c1.4,0.3,2.8,0.5,4.1,0.5c4.7,0,8.1-1.6,10.4-4.7
			C149.7,103,150.9,99.2,150.9,94.8z"/>
		<path class="st4" d="M187,109.7l-0.3,4.5c-2.2,0.7-4.5,1.1-7.1,1.1c-6.1,0-10.7-1.9-13.7-5.7c-3.1-3.8-4.6-8.4-4.6-13.9
			c0-5.7,1.7-10.7,5.1-14.8s8-6.2,13.8-6.2c1.6,0,3.3,0.3,5,0.8l-0.7,4.8c-2-0.7-3.8-1.1-5.4-1.1c-4.3,0-7.5,1.5-9.7,4.5
			s-3.3,6.7-3.3,11.1c0,4.4,1.3,8.2,3.8,11.4c2.5,3.2,6.1,4.8,10.6,4.8C182.1,111,184.3,110.5,187,109.7z"/>
	</g>
</g>
</svg>
