<?xml version="1.0" encoding="utf-8"?>
<!-- Generator: Adobe Illustrator 21.1.0, SVG Export Plug-In . SVG Version: 6.00 Build 0)  -->
<svg version="1.1" id="Layer_1" xmlns="http://www.w3.org/2000/svg" xmlns:xlink="http://www.w3.org/1999/xlink" x="0px" y="0px"
	 viewBox="0 0 105 105" style="enable-background:new 0 0 105 105;" xml:space="preserve">
<style type="text/css">
	.st0{fill:#FFFFFF;}
	.st1{opacity:0.5;fill:#FFFFFF;enable-background:new    ;}
</style>
<g>
	<path class="st0" d="M31.6,63.2l-5.4-4.8l-1.1-1l1.2-3.3L30,43.7l8.8,4.2l10.6-1.8c0.1,0,0.2,0,0.2,0c1.5-0.4,2.4-1.8,2.2-3.3
		c-0.3-1.6-1.8-2.7-3.4-2.4l-8.7,1.5l-7.8-3.7c0.1-1.2-0.2-2.4-0.9-3.4c2.4-0.2,4.6-1.8,5.4-4.2c0.3-0.9,0.4-1.8,0.4-2.7
		c-0.2-2.5-1.8-4.7-4.3-5.6c-3.4-1.2-7.1,0.5-8.3,3.9c-0.8,2.3-0.3,4.7,1.2,6.4c-1.7,0.4-3.2,1.6-3.8,3.4l0,0.1l-10.1,4.2L7.9,50.2
		c-0.5,1.4,0.1,2.9,1.3,3.6c0.1,0.1,0.3,0.1,0.4,0.2c1.5,0.6,3.2-0.2,3.8-1.8l2.8-7.6l2.8-1.1l-4.5,12.4c-0.6,1.6-0.3,3.3,0.5,4.7
		l-2.5,7.2l-8.7,6.5c-1.4,1.1-1.7,3.1-0.6,4.5c0.3,0.4,0.6,0.7,1,0.9c1.1,0.6,2.5,0.5,3.5-0.2l9.5-7.1c0.5-0.4,0.9-0.9,1.1-1.5
		l2.8-8.1c0,0,0,0,0.1,0l5,4.4l0.2,0.2l0.7,10l0,0.2c0.1,1.8,1.7,3.1,3.5,3c1.7-0.1,2.9-1.5,3-3.1c0-0.1,0-0.2,0-0.4l-0.8-11.6
		C32.7,64.5,32.3,63.8,31.6,63.2"/>
	<path class="st1" d="M102.5,54.5l-33.8-37l-0.2,10.7L41,27.9c0.1,1.4-0.1,2.7-0.6,4.1c-0.6,1.6-1.6,3.1-2.8,4.2l2.7,1.3l7.4-1.3
		c0.4-0.1,0.8-0.1,1.2-0.1c3.5,0,6.4,2.5,7,5.9c0.6,3.6-1.7,7.2-5.2,8.1c-0.2,0-0.3,0.1-0.5,0.1l-11.9,2.1l-5.9-2.8L30,56.2l4.4,3.9
		c1.5,1.3,2.4,3.1,2.5,5.1l0.8,11.6c0,0.2,0,0.5,0,0.7l30,0.4l-0.2,9.8L102.5,54.5z"/>
</g>
</svg>
