<?xml version="1.0" encoding="utf-8"?>
<!-- Generator: Adobe Illustrator 17.0.1, SVG Export Plug-In . SVG Version: 6.00 Build 0)  -->
<!DOCTYPE svg PUBLIC "-//W3C//DTD SVG 1.1//EN" "http://www.w3.org/Graphics/SVG/1.1/DTD/svg11.dtd">
<svg version="1.1" id="Layer_1" xmlns="http://www.w3.org/2000/svg" xmlns:xlink="http://www.w3.org/1999/xlink" x="0px" y="0px"
	 width="229.333px" height="160.667px" viewBox="0 0 229.333 160.667" enable-background="new 0 0 229.333 160.667"
	 xml:space="preserve">
<path fill="#FFFFFF" d="M95.058,90.767l-6.544-5.761l-1.36-1.197l1.43-3.975l4.556-12.655l10.709,5.057l12.813-2.213
	c0.094-0.016,0.188-0.034,0.281-0.059c1.783-0.456,2.943-2.215,2.628-4.06c-0.34-1.942-2.182-3.241-4.124-2.906l-10.59,1.827
	l-9.494-4.484c0.122-1.454-0.257-2.883-1.038-4.068c2.904-0.301,5.52-2.207,6.575-5.136c0.393-1.089,0.522-2.204,0.434-3.288
	c-0.242-2.971-2.169-5.674-5.157-6.747c-4.076-1.467-8.566,0.643-10.034,4.721c-0.988,2.737-0.35,5.656,1.406,7.729
	c-2.06,0.471-3.844,1.945-4.611,4.075l-0.03,0.082L70.655,62.76l-4.407,12.241c-0.602,1.668,0.119,3.494,1.624,4.327
	c0.165,0.089,0.34,0.171,0.522,0.236c1.855,0.667,3.896-0.296,4.563-2.148l3.337-9.27l3.353-1.384l-5.409,15.031
	c-0.706,1.957-0.395,4.024,0.648,5.647l-3.038,8.773l-10.549,7.94c-1.732,1.301-2.078,3.76-0.778,5.49
	c0.342,0.457,0.767,0.816,1.233,1.074c1.313,0.727,2.982,0.662,4.26-0.297l11.508-8.66c0.621-0.468,1.093-1.113,1.348-1.849
	l3.407-9.853c0.028-0.007,0.054-0.015,0.078-0.025l6.022,5.302l0.291,0.256l0.848,12.179l0.015,0.227
	c0.153,2.162,2.027,3.788,4.189,3.639c2.015-0.143,3.549-1.787,3.623-3.76c0.005-0.143,0.022-0.282,0.012-0.425l-0.976-14.014
	C96.308,92.409,95.834,91.451,95.058,90.767"/>
<path opacity="0.5" fill="#FFFFFF" d="M180.996,80.243l-41.011-44.885l-0.206,13.004l-33.341-0.443
	c0.071,1.658-0.179,3.329-0.759,4.939c-0.716,1.988-1.908,3.737-3.423,5.123l3.318,1.567l9.009-1.555
	c0.488-0.083,0.984-0.126,1.475-0.126c4.211,0,7.792,3.014,8.514,7.167c0.759,4.419-2.039,8.739-6.365,9.85
	c-0.218,0.054-0.421,0.097-0.624,0.134l-14.451,2.495l-7.107-3.356l-2.924,8.121l5.314,4.678c1.791,1.579,2.867,3.757,3.03,6.132
	l0.978,14.007c0.019,0.284,0.024,0.567,0.018,0.846l36.382,0.484l-0.189,11.824L180.996,80.243z"/>
</svg>
