<?xml version="1.0" encoding="utf-8"?>
<!-- Generator: Adobe Illustrator 21.1.0, SVG Export Plug-In . SVG Version: 6.00 Build 0)  -->
<svg version="1.1" id="Layer_1" xmlns="http://www.w3.org/2000/svg" xmlns:xlink="http://www.w3.org/1999/xlink" x="0px" y="0px"
	 viewBox="0 0 200 200" style="enable-background:new 0 0 200 200;" xml:space="preserve">
<style type="text/css">
	.st0{fill:#2886C3;}
</style>
<g>
	<path class="st0" d="M99.4,24.4c-41.4,0-75,33.6-75,75s33.6,75,75,75s75-33.6,75-75S140.8,24.4,99.4,24.4z M125.5,103.4L88,126.8
		c-0.8,0.5-1.6,0.7-2.5,0.7c-0.8,0-1.6-0.2-2.3-0.6c-1.5-0.8-2.4-2.4-2.4-4.1V76c0-1.7,0.9-3.3,2.4-4.1c1.5-0.8,3.3-0.8,4.8,0.1
		l37.5,23.4c1.4,0.9,2.2,2.4,2.2,4C127.7,101,126.8,102.5,125.5,103.4z"/>
</g>
</svg>
